<svg xmlns="http://www.w3.org/2000/svg" width="552.59" height="281.504" viewBox="0 0 552.59 281.504">
  <g id="Group_150357" data-name="Group 150357" transform="translate(-850.221 -5506.274)">
    <path id="Path_204396" data-name="Path 204396" d="M4.672,11.93a7.053,7.053,0,0,1-2.809-1.363,2.6,2.6,0,0,1-.879-2A2.751,2.751,0,0,1,2.059,6.348a4.269,4.269,0,0,1,2.793-.879,4.66,4.66,0,0,1,2.09.453,3.436,3.436,0,0,1,1.422,1.25,3.2,3.2,0,0,1,.5,1.742H7.359A2.08,2.08,0,0,0,6.7,7.287,2.669,2.669,0,0,0,4.852,6.7a2.732,2.732,0,0,0-1.73.489A1.632,1.632,0,0,0,2.5,8.542,1.468,1.468,0,0,0,3.09,9.72,5.785,5.785,0,0,0,5.1,10.6a9.316,9.316,0,0,1,2.219.88A3.367,3.367,0,0,1,8.5,12.6a2.861,2.861,0,0,1,.387,1.508,2.658,2.658,0,0,1-1.078,2.215,4.6,4.6,0,0,1-2.883.832,5.347,5.347,0,0,1-2.187-.449,3.681,3.681,0,0,1-1.566-1.23A3,3,0,0,1,.625,13.7H2.133a1.959,1.959,0,0,0,.762,1.629,3.207,3.207,0,0,0,2.035.6,2.948,2.948,0,0,0,1.82-.484,1.573,1.573,0,0,0,.633-1.32A1.545,1.545,0,0,0,6.8,12.832,6.755,6.755,0,0,0,4.672,11.93Zm9.422,5.227a3.693,3.693,0,0,1-2.8-1.129,4.19,4.19,0,0,1-1.078-3.02v-.266A5.073,5.073,0,0,1,10.7,10.5a3.748,3.748,0,0,1,1.344-1.547,3.378,3.378,0,0,1,1.871-.559,3.166,3.166,0,0,1,2.563,1.086,4.7,4.7,0,0,1,.914,3.109v.6H11.664a3,3,0,0,0,.73,2.02,2.3,2.3,0,0,0,1.777.77,2.517,2.517,0,0,0,1.3-.312,3.259,3.259,0,0,0,.93-.828l.883.688A3.55,3.55,0,0,1,14.094,17.156Zm-.18-7.578a1.928,1.928,0,0,0-1.469.637A3.1,3.1,0,0,0,11.711,12h4.234v-.109a2.753,2.753,0,0,0-.594-1.707A1.815,1.815,0,0,0,13.914,9.578Zm16.25,3.289a5.062,5.062,0,0,1-.883,3.109,2.829,2.829,0,0,1-2.391,1.18,3.1,3.1,0,0,1-2.422-.977v4.07H23.023V8.547h1.32l.07.938a2.977,2.977,0,0,1,2.453-1.094,2.882,2.882,0,0,1,2.41,1.148,5.117,5.117,0,0,1,.887,3.2ZM28.719,12.7a3.735,3.735,0,0,0-.609-2.258,1.963,1.963,0,0,0-1.672-.828,2.125,2.125,0,0,0-1.969,1.164V14.82a2.129,2.129,0,0,0,1.984,1.156,1.954,1.954,0,0,0,1.652-.824A4.077,4.077,0,0,0,28.719,12.7Zm8.5,3.461a3.07,3.07,0,0,1-2.477.992,2.628,2.628,0,0,1-2.059-.785,3.4,3.4,0,0,1-.715-2.324v-5.5h1.445v5.461q0,1.922,1.563,1.922a2.163,2.163,0,0,0,2.2-1.234V8.547h1.445V17H37.25Zm7.109.992a3.693,3.693,0,0,1-2.8-1.129,4.19,4.19,0,0,1-1.078-3.02v-.266a5.073,5.073,0,0,1,.48-2.246,3.748,3.748,0,0,1,1.344-1.547,3.378,3.378,0,0,1,1.871-.559,3.166,3.166,0,0,1,2.563,1.086,4.7,4.7,0,0,1,.914,3.109v.6H41.9a3,3,0,0,0,.73,2.02,2.3,2.3,0,0,0,1.777.77,2.517,2.517,0,0,0,1.3-.312,3.259,3.259,0,0,0,.93-.828l.883.688A3.55,3.55,0,0,1,44.328,17.156Zm-.18-7.578a1.928,1.928,0,0,0-1.469.637A3.1,3.1,0,0,0,41.945,12H46.18v-.109a2.753,2.753,0,0,0-.594-1.707A1.815,1.815,0,0,0,44.148,9.578Zm4.8,3.125a4.952,4.952,0,0,1,.922-3.129,3.137,3.137,0,0,1,4.766-.168V5h1.445V17H54.75l-.07-.906a2.943,2.943,0,0,1-2.414,1.063,2.887,2.887,0,0,1-2.395-1.2,5.008,5.008,0,0,1-.926-3.141Zm1.445.164a3.749,3.749,0,0,0,.594,2.25,1.92,1.92,0,0,0,1.641.813A2.108,2.108,0,0,0,54.633,14.7V10.813a2.125,2.125,0,0,0-1.992-1.2,1.929,1.929,0,0,0-1.656.82A4.128,4.128,0,0,0,50.391,12.867Zm11.438,4.289a3.693,3.693,0,0,1-2.8-1.129,4.19,4.19,0,0,1-1.078-3.02v-.266a5.073,5.073,0,0,1,.48-2.246,3.748,3.748,0,0,1,1.344-1.547,3.378,3.378,0,0,1,1.871-.559,3.166,3.166,0,0,1,2.563,1.086,4.7,4.7,0,0,1,.914,3.109v.6H59.4a3,3,0,0,0,.73,2.02,2.3,2.3,0,0,0,1.777.77,2.517,2.517,0,0,0,1.3-.312,3.259,3.259,0,0,0,.93-.828l.883.688A3.55,3.55,0,0,1,61.828,17.156Zm-.18-7.578a1.928,1.928,0,0,0-1.469.637A3.1,3.1,0,0,0,59.445,12H63.68v-.109a2.753,2.753,0,0,0-.594-1.707A1.815,1.815,0,0,0,61.648,9.578Zm6.516-1.031.047,1.063a3.08,3.08,0,0,1,2.531-1.219q2.68,0,2.7,3.023V17H72V11.406a1.946,1.946,0,0,0-.418-1.352A1.675,1.675,0,0,0,70.3,9.617a2.086,2.086,0,0,0-1.234.375,2.546,2.546,0,0,0-.828.984V17H66.8V8.547ZM84.8,17a3.036,3.036,0,0,1-.2-.891A3.225,3.225,0,0,1,82.2,17.156a2.984,2.984,0,0,1-2.051-.707,2.288,2.288,0,0,1-.8-1.793,2.39,2.39,0,0,1,1-2.051,4.733,4.733,0,0,1,2.824-.73h1.406v-.664A1.623,1.623,0,0,0,84.125,10a1.821,1.821,0,0,0-1.336-.449,2.108,2.108,0,0,0-1.3.391,1.151,1.151,0,0,0-.523.945H79.516a2,2,0,0,1,.449-1.223,3.066,3.066,0,0,1,1.219-.934,4.1,4.1,0,0,1,1.691-.344,3.342,3.342,0,0,1,2.289.73,2.635,2.635,0,0,1,.859,2.012v3.891a4.757,4.757,0,0,0,.3,1.852V17Zm-2.4-1.1a2.54,2.54,0,0,0,1.289-.352,2.127,2.127,0,0,0,.883-.914V12.9H83.445q-2.656,0-2.656,1.555a1.316,1.316,0,0,0,.453,1.063A1.742,1.742,0,0,0,82.406,15.9ZM89.859,17H88.414V5h1.445Zm3.672-8.453.039.938a3.122,3.122,0,0,1,2.508-1.094A2.417,2.417,0,0,1,98.492,9.75a3.2,3.2,0,0,1,1.1-.984,3.242,3.242,0,0,1,1.6-.375q2.781,0,2.828,2.945V17H102.57V11.422a1.941,1.941,0,0,0-.414-1.355,1.823,1.823,0,0,0-1.391-.449,1.916,1.916,0,0,0-1.336.48,1.949,1.949,0,0,0-.617,1.293V17H97.359V11.461a1.613,1.613,0,0,0-1.8-1.844,1.934,1.934,0,0,0-1.945,1.211V17H92.164V8.547ZM111.414,17a3.036,3.036,0,0,1-.2-.891,3.225,3.225,0,0,1-2.406,1.047,2.984,2.984,0,0,1-2.051-.707,2.288,2.288,0,0,1-.8-1.793,2.39,2.39,0,0,1,1-2.051,4.733,4.733,0,0,1,2.824-.73h1.406v-.664A1.623,1.623,0,0,0,110.734,10a1.821,1.821,0,0,0-1.336-.449,2.108,2.108,0,0,0-1.3.391,1.151,1.151,0,0,0-.523.945h-1.453a2,2,0,0,1,.449-1.223,3.066,3.066,0,0,1,1.219-.934,4.1,4.1,0,0,1,1.691-.344,3.342,3.342,0,0,1,2.289.73,2.635,2.635,0,0,1,.859,2.012v3.891a4.757,4.757,0,0,0,.3,1.852V17Zm-2.4-1.1a2.54,2.54,0,0,0,1.289-.352,2.127,2.127,0,0,0,.883-.914V12.9h-1.133q-2.656,0-2.656,1.555a1.316,1.316,0,0,0,.453,1.063A1.742,1.742,0,0,0,109.016,15.9Zm9.273.078a2.082,2.082,0,0,0,1.352-.469,1.649,1.649,0,0,0,.641-1.172h1.367a2.621,2.621,0,0,1-.5,1.383,3.293,3.293,0,0,1-1.23,1.047,3.55,3.55,0,0,1-1.629.391A3.482,3.482,0,0,1,115.543,16a4.59,4.59,0,0,1-1.02-3.152v-.242a5.089,5.089,0,0,1,.453-2.2,3.451,3.451,0,0,1,1.3-1.492,3.7,3.7,0,0,1,2-.531,3.39,3.39,0,0,1,2.363.852,3.043,3.043,0,0,1,1,2.211h-1.367a1.992,1.992,0,0,0-.621-1.348,1.932,1.932,0,0,0-1.379-.527,2.023,2.023,0,0,0-1.707.793,3.724,3.724,0,0,0-.605,2.293v.273a3.65,3.65,0,0,0,.6,2.25A2.033,2.033,0,0,0,118.289,15.977Zm8.492,1.18a3.693,3.693,0,0,1-2.8-1.129,4.19,4.19,0,0,1-1.078-3.02v-.266a5.073,5.073,0,0,1,.48-2.246,3.748,3.748,0,0,1,1.344-1.547,3.378,3.378,0,0,1,1.871-.559,3.166,3.166,0,0,1,2.563,1.086,4.7,4.7,0,0,1,.914,3.109v.6h-5.727a3,3,0,0,0,.73,2.02,2.3,2.3,0,0,0,1.777.77,2.517,2.517,0,0,0,1.3-.312,3.258,3.258,0,0,0,.93-.828l.883.688A3.55,3.55,0,0,1,126.781,17.156Zm-.18-7.578a1.928,1.928,0,0,0-1.469.637A3.1,3.1,0,0,0,124.4,12h4.234v-.109a2.753,2.753,0,0,0-.594-1.707A1.815,1.815,0,0,0,126.6,9.578Zm6.516-1.031.047,1.063A3.08,3.08,0,0,1,135.7,8.391q2.68,0,2.7,3.023V17h-1.445V11.406a1.946,1.946,0,0,0-.418-1.352,1.675,1.675,0,0,0-1.277-.437,2.086,2.086,0,0,0-1.234.375,2.546,2.546,0,0,0-.828.984V17H131.75V8.547ZM145.8,17a3.036,3.036,0,0,1-.2-.891,3.225,3.225,0,0,1-2.406,1.047,2.984,2.984,0,0,1-2.051-.707,2.287,2.287,0,0,1-.8-1.793,2.39,2.39,0,0,1,1-2.051,4.733,4.733,0,0,1,2.824-.73h1.406v-.664A1.623,1.623,0,0,0,145.117,10a1.821,1.821,0,0,0-1.336-.449,2.107,2.107,0,0,0-1.3.391,1.151,1.151,0,0,0-.523.945h-1.453a2,2,0,0,1,.449-1.223,3.066,3.066,0,0,1,1.219-.934,4.1,4.1,0,0,1,1.691-.344,3.342,3.342,0,0,1,2.289.73,2.635,2.635,0,0,1,.859,2.012v3.891a4.757,4.757,0,0,0,.3,1.852V17Zm-2.4-1.1a2.54,2.54,0,0,0,1.289-.352,2.127,2.127,0,0,0,.883-.914V12.9h-1.133q-2.656,0-2.656,1.555a1.316,1.316,0,0,0,.453,1.063A1.742,1.742,0,0,0,143.4,15.9Zm9.969-6.055a4.331,4.331,0,0,0-.711-.055A1.9,1.9,0,0,0,150.727,11v6h-1.445V8.547h1.406l.023.977a2.251,2.251,0,0,1,2.016-1.133,1.477,1.477,0,0,1,.641.109ZM4.484,39.977a2.082,2.082,0,0,0,1.352-.469,1.649,1.649,0,0,0,.641-1.172H7.844a2.621,2.621,0,0,1-.5,1.383,3.293,3.293,0,0,1-1.23,1.047,3.55,3.55,0,0,1-1.629.391A3.482,3.482,0,0,1,1.738,40a4.59,4.59,0,0,1-1.02-3.152v-.242a5.089,5.089,0,0,1,.453-2.2,3.451,3.451,0,0,1,1.3-1.492,3.7,3.7,0,0,1,2-.531,3.39,3.39,0,0,1,2.363.852,3.043,3.043,0,0,1,1,2.211H6.477a1.992,1.992,0,0,0-.621-1.348,1.932,1.932,0,0,0-1.379-.527,2.023,2.023,0,0,0-1.707.793,3.724,3.724,0,0,0-.605,2.293v.273a3.65,3.65,0,0,0,.6,2.25A2.033,2.033,0,0,0,4.484,39.977Zm4.6-3.281a4.993,4.993,0,0,1,.488-2.234,3.643,3.643,0,0,1,1.359-1.531,3.7,3.7,0,0,1,1.988-.539,3.565,3.565,0,0,1,2.793,1.2,4.6,4.6,0,0,1,1.066,3.18v.1a5.036,5.036,0,0,1-.473,2.215,3.589,3.589,0,0,1-1.352,1.527,3.743,3.743,0,0,1-2.02.547,3.556,3.556,0,0,1-2.785-1.2A4.575,4.575,0,0,1,9.086,36.8Zm1.453.172a3.616,3.616,0,0,0,.652,2.258,2.211,2.211,0,0,0,3.5-.012,3.955,3.955,0,0,0,.648-2.418,3.61,3.61,0,0,0-.66-2.254,2.1,2.1,0,0,0-1.754-.863,2.075,2.075,0,0,0-1.727.852A3.925,3.925,0,0,0,10.539,36.867Zm9.422-4.32.047,1.063a3.08,3.08,0,0,1,2.531-1.219q2.68,0,2.7,3.023V41H23.8V35.406a1.946,1.946,0,0,0-.418-1.352,1.675,1.675,0,0,0-1.277-.437,2.086,2.086,0,0,0-1.234.375,2.546,2.546,0,0,0-.828.984V41H18.594V32.547Zm8.953,0v9.43q0,2.438-2.211,2.438a2.7,2.7,0,0,1-.883-.14V43.125a2.794,2.794,0,0,0,.656.063.982.982,0,0,0,.738-.262,1.3,1.3,0,0,0,.254-.911V32.547ZM27.32,30.3a.867.867,0,0,1,.215-.59.79.79,0,0,1,.629-.246.819.819,0,0,1,.641.242.854.854,0,0,1,.219.594.826.826,0,0,1-.219.586.834.834,0,0,1-.641.234.808.808,0,0,1-.633-.234A.843.843,0,0,1,27.32,30.3Zm9.141,9.859a3.07,3.07,0,0,1-2.477.992,2.628,2.628,0,0,1-2.059-.785,3.4,3.4,0,0,1-.715-2.324v-5.5h1.445v5.461q0,1.922,1.563,1.922a2.163,2.163,0,0,0,2.2-1.234V32.547h1.445V41H36.492Zm4.969-7.617.047,1.063a3.08,3.08,0,0,1,2.531-1.219q2.68,0,2.7,3.023V41H45.266V35.406a1.946,1.946,0,0,0-.418-1.352,1.675,1.675,0,0,0-1.277-.437,2.086,2.086,0,0,0-1.234.375,2.546,2.546,0,0,0-.828.984V41H40.063V32.547ZM50.852,30.5v2.047H52.43v1.117H50.852v5.249a1.173,1.173,0,0,0,.211.763.888.888,0,0,0,.719.254,3.5,3.5,0,0,0,.688-.094V41a4.215,4.215,0,0,1-1.109.155A1.8,1.8,0,0,1,49.9,40.57a2.517,2.517,0,0,1-.492-1.664V33.664H47.867V32.547h1.539V30.5ZM59.336,41a3.036,3.036,0,0,1-.2-.891,3.225,3.225,0,0,1-2.406,1.047,2.984,2.984,0,0,1-2.051-.707,2.287,2.287,0,0,1-.8-1.793,2.39,2.39,0,0,1,1-2.051,4.733,4.733,0,0,1,2.824-.73h1.406v-.664A1.623,1.623,0,0,0,58.656,34a1.821,1.821,0,0,0-1.336-.449,2.107,2.107,0,0,0-1.3.391,1.151,1.151,0,0,0-.523.945H54.047a2,2,0,0,1,.449-1.223,3.066,3.066,0,0,1,1.219-.934,4.1,4.1,0,0,1,1.691-.344,3.342,3.342,0,0,1,2.289.73,2.635,2.635,0,0,1,.859,2.012v3.891a4.757,4.757,0,0,0,.3,1.852V41Zm-2.4-1.1a2.54,2.54,0,0,0,1.289-.352,2.127,2.127,0,0,0,.883-.914V36.9H57.977q-2.656,0-2.656,1.555a1.316,1.316,0,0,0,.453,1.063A1.742,1.742,0,0,0,56.938,39.9Zm7.242-7.352.039.938a3.122,3.122,0,0,1,2.508-1.094,2.417,2.417,0,0,1,2.414,1.359,3.2,3.2,0,0,1,1.1-.984,3.242,3.242,0,0,1,1.6-.375q2.781,0,2.828,2.945V41H73.219V35.422a1.941,1.941,0,0,0-.414-1.355,1.823,1.823,0,0,0-1.391-.449,1.916,1.916,0,0,0-1.336.48,1.949,1.949,0,0,0-.617,1.293V41H68.008V35.461a1.613,1.613,0,0,0-1.8-1.844,1.934,1.934,0,0,0-1.945,1.211V41H62.813V32.547Zm16.172,8.609a3.693,3.693,0,0,1-2.8-1.129,4.19,4.19,0,0,1-1.078-3.02v-.266a5.073,5.073,0,0,1,.48-2.246A3.748,3.748,0,0,1,78.3,32.949a3.378,3.378,0,0,1,1.871-.559,3.166,3.166,0,0,1,2.563,1.086,4.7,4.7,0,0,1,.914,3.109v.6H77.922a3,3,0,0,0,.73,2.02,2.3,2.3,0,0,0,1.777.77,2.517,2.517,0,0,0,1.3-.312,3.259,3.259,0,0,0,.93-.828l.883.688A3.55,3.55,0,0,1,80.352,41.156Zm-.18-7.578a1.928,1.928,0,0,0-1.469.637A3.1,3.1,0,0,0,77.969,36H82.2v-.109a2.753,2.753,0,0,0-.594-1.707A1.815,1.815,0,0,0,80.172,33.578Zm6.516-1.031.047,1.063a3.08,3.08,0,0,1,2.531-1.219q2.68,0,2.7,3.023V41H90.523V35.406a1.946,1.946,0,0,0-.418-1.352,1.675,1.675,0,0,0-1.277-.437,2.086,2.086,0,0,0-1.234.375,2.546,2.546,0,0,0-.828.984V41H85.32V32.547ZM96.109,30.5v2.047h1.578v1.117H96.109v5.249a1.173,1.173,0,0,0,.211.763.888.888,0,0,0,.719.254,3.5,3.5,0,0,0,.688-.094V41a4.215,4.215,0,0,1-1.109.155,1.8,1.8,0,0,1-1.461-.586,2.517,2.517,0,0,1-.492-1.664V33.664H93.125V32.547h1.539V30.5Zm6.773,10.656a3.693,3.693,0,0,1-2.8-1.129,4.19,4.19,0,0,1-1.078-3.02v-.266a5.073,5.073,0,0,1,.48-2.246,3.748,3.748,0,0,1,1.344-1.547,3.378,3.378,0,0,1,1.871-.559,3.166,3.166,0,0,1,2.563,1.086,4.7,4.7,0,0,1,.914,3.109v.6h-5.727a3,3,0,0,0,.73,2.02,2.3,2.3,0,0,0,1.777.77,2.517,2.517,0,0,0,1.3-.312,3.259,3.259,0,0,0,.93-.828l.883.688A3.55,3.55,0,0,1,102.883,41.156Zm-.18-7.578a1.928,1.928,0,0,0-1.469.637A3.1,3.1,0,0,0,100.5,36h4.234v-.109a2.753,2.753,0,0,0-.594-1.707A1.815,1.815,0,0,0,102.7,33.578Zm5.18,6.664a.905.905,0,0,1,.223-.625.848.848,0,0,1,.668-.25.874.874,0,0,1,.676.25.887.887,0,0,1,.23.625.839.839,0,0,1-.23.6.89.89,0,0,1-.676.242.8.8,0,0,1-.891-.844ZM4.672,83.93a7.053,7.053,0,0,1-2.809-1.363,2.6,2.6,0,0,1-.879-2,2.751,2.751,0,0,1,1.074-2.223,4.269,4.269,0,0,1,2.793-.879,4.66,4.66,0,0,1,2.09.453,3.436,3.436,0,0,1,1.422,1.25,3.2,3.2,0,0,1,.5,1.742H7.359A2.08,2.08,0,0,0,6.7,79.287,2.669,2.669,0,0,0,4.852,78.7a2.732,2.732,0,0,0-1.73.489A1.632,1.632,0,0,0,2.5,80.542a1.468,1.468,0,0,0,.59,1.178A5.785,5.785,0,0,0,5.1,82.6a9.316,9.316,0,0,1,2.219.88A3.367,3.367,0,0,1,8.5,84.6a2.861,2.861,0,0,1,.387,1.508,2.658,2.658,0,0,1-1.078,2.215,4.6,4.6,0,0,1-2.883.832,5.347,5.347,0,0,1-2.187-.449,3.681,3.681,0,0,1-1.566-1.23A3,3,0,0,1,.625,85.7H2.133a1.959,1.959,0,0,0,.762,1.629,3.207,3.207,0,0,0,2.035.6,2.948,2.948,0,0,0,1.82-.484,1.573,1.573,0,0,0,.633-1.32A1.545,1.545,0,0,0,6.8,84.832,6.755,6.755,0,0,0,4.672,83.93ZM10.2,84.7a4.993,4.993,0,0,1,.488-2.234,3.643,3.643,0,0,1,1.359-1.531,3.7,3.7,0,0,1,1.988-.539,3.565,3.565,0,0,1,2.793,1.2,4.6,4.6,0,0,1,1.066,3.18v.1a5.036,5.036,0,0,1-.473,2.215,3.589,3.589,0,0,1-1.352,1.527,3.743,3.743,0,0,1-2.02.547,3.556,3.556,0,0,1-2.785-1.2A4.575,4.575,0,0,1,10.2,84.8Zm1.453.172a3.616,3.616,0,0,0,.652,2.258,2.211,2.211,0,0,0,3.5-.012,3.955,3.955,0,0,0,.648-2.418,3.61,3.61,0,0,0-.66-2.254,2.1,2.1,0,0,0-1.754-.863,2.075,2.075,0,0,0-1.727.852A3.925,3.925,0,0,0,11.656,84.867ZM21.281,89H19.836V77h1.445Zm7.531,0a3.036,3.036,0,0,1-.2-.891A3.225,3.225,0,0,1,26.2,89.156a2.984,2.984,0,0,1-2.051-.707,2.287,2.287,0,0,1-.8-1.793,2.39,2.39,0,0,1,1-2.051,4.733,4.733,0,0,1,2.824-.73h1.406v-.664A1.623,1.623,0,0,0,28.133,82a1.821,1.821,0,0,0-1.336-.449,2.108,2.108,0,0,0-1.3.391,1.151,1.151,0,0,0-.523.945H23.523a2,2,0,0,1,.449-1.223,3.066,3.066,0,0,1,1.219-.934,4.1,4.1,0,0,1,1.691-.344,3.342,3.342,0,0,1,2.289.73,2.635,2.635,0,0,1,.859,2.012v3.891a4.757,4.757,0,0,0,.3,1.852V89Zm-2.4-1.1a2.54,2.54,0,0,0,1.289-.352,2.127,2.127,0,0,0,.883-.914V84.9H27.453q-2.656,0-2.656,1.555a1.316,1.316,0,0,0,.453,1.063A1.742,1.742,0,0,0,26.414,87.9Zm7.242-7.352.039.938A3.122,3.122,0,0,1,36.2,80.391a2.417,2.417,0,0,1,2.414,1.359,3.2,3.2,0,0,1,1.1-.984,3.242,3.242,0,0,1,1.6-.375q2.781,0,2.828,2.945V89H42.7V83.422a1.941,1.941,0,0,0-.414-1.355,1.823,1.823,0,0,0-1.391-.449,1.916,1.916,0,0,0-1.336.48,1.949,1.949,0,0,0-.617,1.293V89H37.484V83.461a1.613,1.613,0,0,0-1.8-1.844,1.934,1.934,0,0,0-1.945,1.211V89H32.289V80.547Zm16.172,8.609a3.693,3.693,0,0,1-2.8-1.129,4.19,4.19,0,0,1-1.078-3.02v-.266a5.073,5.073,0,0,1,.48-2.246,3.748,3.748,0,0,1,1.344-1.547,3.378,3.378,0,0,1,1.871-.559,3.166,3.166,0,0,1,2.563,1.086,4.7,4.7,0,0,1,.914,3.109v.6H47.4a3,3,0,0,0,.73,2.02,2.3,2.3,0,0,0,1.777.77,2.517,2.517,0,0,0,1.3-.312,3.259,3.259,0,0,0,.93-.828l.883.688A3.55,3.55,0,0,1,49.828,89.156Zm-.18-7.578a1.928,1.928,0,0,0-1.469.637A3.1,3.1,0,0,0,47.445,84H51.68v-.109a2.753,2.753,0,0,0-.594-1.707A1.815,1.815,0,0,0,49.648,81.578Zm6.516-1.031.047,1.063a3.08,3.08,0,0,1,2.531-1.219q2.68,0,2.7,3.023V89H60V83.406a1.946,1.946,0,0,0-.418-1.352,1.675,1.675,0,0,0-1.277-.437,2.086,2.086,0,0,0-1.234.375,2.546,2.546,0,0,0-.828.984V89H54.8V80.547ZM65.586,78.5v2.047h1.578v1.117H65.586v5.249a1.173,1.173,0,0,0,.211.763.888.888,0,0,0,.719.254,3.5,3.5,0,0,0,.688-.094V89a4.215,4.215,0,0,1-1.109.155,1.8,1.8,0,0,1-1.461-.586,2.517,2.517,0,0,1-.492-1.664V81.664H62.6V80.547h1.539V78.5Zm6.773,10.656a3.693,3.693,0,0,1-2.8-1.129,4.19,4.19,0,0,1-1.078-3.02v-.266a5.073,5.073,0,0,1,.48-2.246,3.748,3.748,0,0,1,1.344-1.547,3.378,3.378,0,0,1,1.871-.559,3.166,3.166,0,0,1,2.563,1.086,4.7,4.7,0,0,1,.914,3.109v.6H69.93a3,3,0,0,0,.73,2.02,2.3,2.3,0,0,0,1.777.77,2.517,2.517,0,0,0,1.3-.312,3.259,3.259,0,0,0,.93-.828l.883.688A3.55,3.55,0,0,1,72.359,89.156Zm-.18-7.578a1.928,1.928,0,0,0-1.469.637A3.1,3.1,0,0,0,69.977,84h4.234v-.109a2.753,2.753,0,0,0-.594-1.707A1.815,1.815,0,0,0,72.18,81.578Zm16.25,3.289a5.062,5.062,0,0,1-.883,3.109,2.829,2.829,0,0,1-2.391,1.18,3.1,3.1,0,0,1-2.422-.977v4.07H81.289v-11.7h1.32l.07.938a2.977,2.977,0,0,1,2.453-1.094,2.882,2.882,0,0,1,2.41,1.148,5.117,5.117,0,0,1,.887,3.2ZM86.984,84.7a3.735,3.735,0,0,0-.609-2.258,1.963,1.963,0,0,0-1.672-.828,2.125,2.125,0,0,0-1.969,1.164V86.82a2.129,2.129,0,0,0,1.984,1.156,1.954,1.954,0,0,0,1.652-.824A4.077,4.077,0,0,0,86.984,84.7Zm2.9-.008a4.993,4.993,0,0,1,.488-2.234A3.643,3.643,0,0,1,91.73,80.93a3.7,3.7,0,0,1,1.988-.539,3.565,3.565,0,0,1,2.793,1.2,4.6,4.6,0,0,1,1.066,3.18v.1a5.036,5.036,0,0,1-.473,2.215,3.589,3.589,0,0,1-1.352,1.527,3.743,3.743,0,0,1-2.02.547,3.556,3.556,0,0,1-2.785-1.2A4.575,4.575,0,0,1,89.883,84.8Zm1.453.172a3.616,3.616,0,0,0,.652,2.258,2.211,2.211,0,0,0,3.5-.012,3.955,3.955,0,0,0,.648-2.418,3.61,3.61,0,0,0-.66-2.254,2.1,2.1,0,0,0-1.754-.863,2.075,2.075,0,0,0-1.727.852A3.925,3.925,0,0,0,91.336,84.867Zm7.7-.164a4.952,4.952,0,0,1,.922-3.129,3.137,3.137,0,0,1,4.766-.168V77h1.445V89h-1.328l-.07-.906a2.943,2.943,0,0,1-2.414,1.063,2.887,2.887,0,0,1-2.395-1.2,5.008,5.008,0,0,1-.926-3.141Zm1.445.164a3.749,3.749,0,0,0,.594,2.25,1.92,1.92,0,0,0,1.641.813,2.109,2.109,0,0,0,2.008-1.234V82.813a2.125,2.125,0,0,0-1.992-1.2,1.929,1.929,0,0,0-1.656.82A4.128,4.128,0,0,0,100.484,84.867ZM112.5,81.844a4.331,4.331,0,0,0-.711-.055A1.9,1.9,0,0,0,109.859,83v6h-1.445V80.547h1.406l.023.977a2.251,2.251,0,0,1,2.016-1.133,1.477,1.477,0,0,1,.641.109ZM119.047,89a3.036,3.036,0,0,1-.2-.891,3.225,3.225,0,0,1-2.406,1.047,2.984,2.984,0,0,1-2.051-.707,2.287,2.287,0,0,1-.8-1.793,2.39,2.39,0,0,1,1-2.051,4.733,4.733,0,0,1,2.824-.73h1.406v-.664A1.623,1.623,0,0,0,118.367,82a1.821,1.821,0,0,0-1.336-.449,2.108,2.108,0,0,0-1.3.391,1.151,1.151,0,0,0-.523.945h-1.453a2,2,0,0,1,.449-1.223,3.066,3.066,0,0,1,1.219-.934,4.1,4.1,0,0,1,1.691-.344,3.342,3.342,0,0,1,2.289.73,2.635,2.635,0,0,1,.859,2.012v3.891a4.757,4.757,0,0,0,.3,1.852V89Zm-2.4-1.1a2.54,2.54,0,0,0,1.289-.352,2.127,2.127,0,0,0,.883-.914V84.9h-1.133q-2.656,0-2.656,1.555a1.316,1.316,0,0,0,.453,1.063A1.742,1.742,0,0,0,116.648,87.9ZM117.984,77h1.75l-2.094,2.3-1.164,0Zm5.914,3.547.047,1.063a3.08,3.08,0,0,1,2.531-1.219q2.68,0,2.7,3.023V89h-1.445V83.406a1.946,1.946,0,0,0-.418-1.352,1.675,1.675,0,0,0-1.277-.437,2.086,2.086,0,0,0-1.234.375,2.546,2.546,0,0,0-.828.984V89h-1.445V80.547ZM6.313,113a3.036,3.036,0,0,1-.2-.891A3.225,3.225,0,0,1,3.7,113.156a2.984,2.984,0,0,1-2.051-.707,2.287,2.287,0,0,1-.8-1.793,2.39,2.39,0,0,1,1-2.051,4.733,4.733,0,0,1,2.824-.73H6.086v-.664A1.623,1.623,0,0,0,5.633,106a1.821,1.821,0,0,0-1.336-.449,2.108,2.108,0,0,0-1.3.391,1.151,1.151,0,0,0-.523.945H1.023a2,2,0,0,1,.449-1.223,3.066,3.066,0,0,1,1.219-.934,4.1,4.1,0,0,1,1.691-.344,3.342,3.342,0,0,1,2.289.73,2.635,2.635,0,0,1,.859,2.012v3.891a4.757,4.757,0,0,0,.3,1.852V113Zm-2.4-1.1a2.54,2.54,0,0,0,1.289-.352,2.127,2.127,0,0,0,.883-.914V108.9H4.953q-2.656,0-2.656,1.555a1.316,1.316,0,0,0,.453,1.063A1.742,1.742,0,0,0,3.914,111.9Zm7.453,1.1H9.922V101h1.445Zm3.672-8.453.039.938a3.122,3.122,0,0,1,2.508-1.094A2.417,2.417,0,0,1,20,105.75a3.2,3.2,0,0,1,1.1-.984,3.242,3.242,0,0,1,1.6-.375q2.781,0,2.828,2.945V113H24.078v-5.578a1.941,1.941,0,0,0-.414-1.355,1.823,1.823,0,0,0-1.391-.449,1.916,1.916,0,0,0-1.336.48,1.949,1.949,0,0,0-.617,1.293V113H18.867v-5.539a1.613,1.613,0,0,0-1.8-1.844,1.934,1.934,0,0,0-1.945,1.211V113H13.672v-8.453ZM32.922,113a3.036,3.036,0,0,1-.2-.891,3.225,3.225,0,0,1-2.406,1.047,2.984,2.984,0,0,1-2.051-.707,2.287,2.287,0,0,1-.8-1.793,2.39,2.39,0,0,1,1-2.051,4.733,4.733,0,0,1,2.824-.73H32.7v-.664A1.623,1.623,0,0,0,32.242,106a1.821,1.821,0,0,0-1.336-.449,2.108,2.108,0,0,0-1.3.391,1.151,1.151,0,0,0-.523.945H27.633a2,2,0,0,1,.449-1.223,3.066,3.066,0,0,1,1.219-.934,4.1,4.1,0,0,1,1.691-.344,3.342,3.342,0,0,1,2.289.73,2.635,2.635,0,0,1,.859,2.012v3.891a4.757,4.757,0,0,0,.3,1.852V113Zm-2.4-1.1a2.54,2.54,0,0,0,1.289-.352,2.127,2.127,0,0,0,.883-.914V108.9H31.563q-2.656,0-2.656,1.555a1.316,1.316,0,0,0,.453,1.063A1.742,1.742,0,0,0,30.523,111.9Zm9.273.078a2.082,2.082,0,0,0,1.352-.469,1.649,1.649,0,0,0,.641-1.172h1.367a2.621,2.621,0,0,1-.5,1.383,3.293,3.293,0,0,1-1.23,1.047,3.55,3.55,0,0,1-1.629.391A3.482,3.482,0,0,1,37.051,112a4.59,4.59,0,0,1-1.02-3.152v-.242a5.089,5.089,0,0,1,.453-2.2,3.451,3.451,0,0,1,1.3-1.492,3.7,3.7,0,0,1,2-.531,3.39,3.39,0,0,1,2.363.852,3.043,3.043,0,0,1,1,2.211H41.789a1.992,1.992,0,0,0-.621-1.348,1.932,1.932,0,0,0-1.379-.527,2.023,2.023,0,0,0-1.707.793,3.724,3.724,0,0,0-.605,2.293v.273a3.65,3.65,0,0,0,.6,2.25A2.033,2.033,0,0,0,39.8,111.977Zm8.492,1.18a3.693,3.693,0,0,1-2.8-1.129,4.19,4.19,0,0,1-1.078-3.02v-.266a5.073,5.073,0,0,1,.48-2.246,3.748,3.748,0,0,1,1.344-1.547,3.378,3.378,0,0,1,1.871-.559,3.166,3.166,0,0,1,2.563,1.086,4.7,4.7,0,0,1,.914,3.109v.6H45.859a3,3,0,0,0,.73,2.02,2.3,2.3,0,0,0,1.777.77,2.517,2.517,0,0,0,1.3-.312,3.259,3.259,0,0,0,.93-.828l.883.688A3.55,3.55,0,0,1,48.289,113.156Zm-.18-7.578a1.928,1.928,0,0,0-1.469.637A3.1,3.1,0,0,0,45.906,108h4.234v-.109a2.753,2.753,0,0,0-.594-1.707A1.815,1.815,0,0,0,48.109,105.578Zm6.516-1.031.047,1.063a3.08,3.08,0,0,1,2.531-1.219q2.68,0,2.7,3.023V113H58.461v-5.594a1.946,1.946,0,0,0-.418-1.352,1.675,1.675,0,0,0-1.277-.437,2.086,2.086,0,0,0-1.234.375,2.546,2.546,0,0,0-.828.984V113H53.258v-8.453ZM67.3,113a3.036,3.036,0,0,1-.2-.891,3.225,3.225,0,0,1-2.406,1.047,2.984,2.984,0,0,1-2.051-.707,2.287,2.287,0,0,1-.8-1.793,2.39,2.39,0,0,1,1-2.051,4.733,4.733,0,0,1,2.824-.73h1.406v-.664A1.623,1.623,0,0,0,66.625,106a1.821,1.821,0,0,0-1.336-.449,2.108,2.108,0,0,0-1.3.391,1.151,1.151,0,0,0-.523.945H62.016a2,2,0,0,1,.449-1.223,3.066,3.066,0,0,1,1.219-.934,4.1,4.1,0,0,1,1.691-.344,3.342,3.342,0,0,1,2.289.73,2.635,2.635,0,0,1,.859,2.012v3.891a4.757,4.757,0,0,0,.3,1.852V113Zm-2.4-1.1a2.54,2.54,0,0,0,1.289-.352,2.127,2.127,0,0,0,.883-.914V108.9H65.945q-2.656,0-2.656,1.555a1.316,1.316,0,0,0,.453,1.063A1.742,1.742,0,0,0,64.906,111.9Zm9.969-6.055a4.331,4.331,0,0,0-.711-.055A1.9,1.9,0,0,0,72.234,107v6H70.789v-8.453H72.2l.023.977a2.251,2.251,0,0,1,2.016-1.133,1.477,1.477,0,0,1,.641.109Zm6.25,4.914a1.064,1.064,0,0,0-.441-.91,4.249,4.249,0,0,0-1.539-.559,7.277,7.277,0,0,1-1.742-.562,2.478,2.478,0,0,1-.953-.781,1.869,1.869,0,0,1-.309-1.078,2.193,2.193,0,0,1,.879-1.758,3.432,3.432,0,0,1,2.246-.719,3.532,3.532,0,0,1,2.332.742,2.357,2.357,0,0,1,.895,1.9H81.039a1.3,1.3,0,0,0-.5-1.023,1.888,1.888,0,0,0-1.27-.43,1.976,1.976,0,0,0-1.234.344,1.082,1.082,0,0,0-.445.9.877.877,0,0,0,.414.789,5.1,5.1,0,0,0,1.5.508,7.8,7.8,0,0,1,1.754.578,2.559,2.559,0,0,1,1,.809,1.988,1.988,0,0,1,.324,1.152,2.163,2.163,0,0,1-.906,1.816,3.8,3.8,0,0,1-2.352.684,4.257,4.257,0,0,1-1.8-.359,2.922,2.922,0,0,1-1.223-1,2.42,2.42,0,0,1-.441-1.395H77.3a1.5,1.5,0,0,0,.582,1.152,2.258,2.258,0,0,0,1.434.426,2.331,2.331,0,0,0,1.316-.332A1.02,1.02,0,0,0,81.125,110.758Zm6.836,2.4a3.693,3.693,0,0,1-2.8-1.129,4.19,4.19,0,0,1-1.078-3.02v-.266a5.073,5.073,0,0,1,.48-2.246,3.748,3.748,0,0,1,1.344-1.547,3.378,3.378,0,0,1,1.871-.559,3.166,3.166,0,0,1,2.563,1.086,4.7,4.7,0,0,1,.914,3.109v.6H85.531a3,3,0,0,0,.73,2.02,2.3,2.3,0,0,0,1.777.77,2.517,2.517,0,0,0,1.3-.312,3.259,3.259,0,0,0,.93-.828l.883.688A3.55,3.55,0,0,1,87.961,113.156Zm-.18-7.578a1.928,1.928,0,0,0-1.469.637A3.1,3.1,0,0,0,85.578,108h4.234v-.109a2.753,2.753,0,0,0-.594-1.707A1.815,1.815,0,0,0,87.781,105.578Zm10.6-1.031v9.43q0,2.438-2.211,2.438a2.7,2.7,0,0,1-.883-.14v-1.149a2.794,2.794,0,0,0,.656.063.982.982,0,0,0,.738-.262,1.3,1.3,0,0,0,.254-.911v-9.468ZM96.789,102.3a.867.867,0,0,1,.215-.59.79.79,0,0,1,.629-.246.819.819,0,0,1,.641.242.854.854,0,0,1,.219.594.826.826,0,0,1-.219.586.834.834,0,0,1-.641.234.808.808,0,0,1-.633-.234A.843.843,0,0,1,96.789,102.3Zm9.141,9.859a3.07,3.07,0,0,1-2.477.992,2.628,2.628,0,0,1-2.059-.785,3.4,3.4,0,0,1-.715-2.324v-5.5h1.445v5.461q0,1.922,1.563,1.922a2.163,2.163,0,0,0,2.2-1.234v-6.148h1.445V113h-1.375Zm4.969-7.617.047,1.063a3.08,3.08,0,0,1,2.531-1.219q2.68,0,2.7,3.023V113h-1.445v-5.594a1.946,1.946,0,0,0-.418-1.352,1.675,1.675,0,0,0-1.277-.437,2.086,2.086,0,0,0-1.234.375,2.546,2.546,0,0,0-.828.984V113h-1.445v-8.453Zm9.422-2.047v2.047H121.9v1.117H120.32v5.249a1.173,1.173,0,0,0,.211.763.888.888,0,0,0,.719.254,3.5,3.5,0,0,0,.688-.094V113a4.215,4.215,0,0,1-1.109.155,1.8,1.8,0,0,1-1.461-.586,2.517,2.517,0,0,1-.492-1.664v-5.242h-1.539v-1.117h1.539V102.5Zm2.727,6.2a4.993,4.993,0,0,1,.488-2.234,3.643,3.643,0,0,1,1.359-1.531,3.7,3.7,0,0,1,1.988-.539,3.565,3.565,0,0,1,2.793,1.2,4.6,4.6,0,0,1,1.066,3.18v.1a5.036,5.036,0,0,1-.473,2.215,3.589,3.589,0,0,1-1.352,1.527,3.743,3.743,0,0,1-2.02.547,3.556,3.556,0,0,1-2.785-1.2,4.575,4.575,0,0,1-1.066-3.164Zm1.453.172a3.616,3.616,0,0,0,.652,2.258,2.211,2.211,0,0,0,3.5-.012,3.954,3.954,0,0,0,.648-2.418,3.61,3.61,0,0,0-.66-2.254,2.1,2.1,0,0,0-1.754-.863,2.075,2.075,0,0,0-1.727.852A3.925,3.925,0,0,0,124.5,108.867Zm8.008,6.4-.82-.562a3.77,3.77,0,0,0,.766-2.109v-1.3h1.414v1.133A3.559,3.559,0,0,1,133.48,114,3.7,3.7,0,0,1,132.508,115.266Zm12.07-4.508a1.064,1.064,0,0,0-.441-.91,4.249,4.249,0,0,0-1.539-.559,7.277,7.277,0,0,1-1.742-.562,2.479,2.479,0,0,1-.953-.781,1.869,1.869,0,0,1-.309-1.078,2.193,2.193,0,0,1,.879-1.758,3.432,3.432,0,0,1,2.246-.719,3.532,3.532,0,0,1,2.332.742,2.357,2.357,0,0,1,.895,1.9h-1.453a1.3,1.3,0,0,0-.5-1.023,1.888,1.888,0,0,0-1.27-.43,1.976,1.976,0,0,0-1.234.344,1.082,1.082,0,0,0-.445.9.877.877,0,0,0,.414.789,5.1,5.1,0,0,0,1.5.508,7.8,7.8,0,0,1,1.754.578,2.558,2.558,0,0,1,1,.809,1.988,1.988,0,0,1,.324,1.152,2.163,2.163,0,0,1-.906,1.816,3.8,3.8,0,0,1-2.352.684,4.257,4.257,0,0,1-1.8-.359,2.922,2.922,0,0,1-1.223-1,2.42,2.42,0,0,1-.441-1.395h1.445a1.5,1.5,0,0,0,.582,1.152,2.258,2.258,0,0,0,1.434.426,2.331,2.331,0,0,0,1.316-.332A1.02,1.02,0,0,0,144.578,110.758Zm4.9,2.242h-1.445v-8.453h1.445Zm-1.562-10.7a.863.863,0,0,1,.215-.594.807.807,0,0,1,.637-.242.819.819,0,0,1,.641.242.854.854,0,0,1,.219.594.826.826,0,0,1-.219.586.834.834,0,0,1-.641.234.821.821,0,0,1-.637-.234A.834.834,0,0,1,147.914,102.3Zm12.758,8.453a1.064,1.064,0,0,0-.441-.91,4.249,4.249,0,0,0-1.539-.559,7.277,7.277,0,0,1-1.742-.562,2.479,2.479,0,0,1-.953-.781,1.869,1.869,0,0,1-.309-1.078,2.193,2.193,0,0,1,.879-1.758,3.432,3.432,0,0,1,2.246-.719,3.532,3.532,0,0,1,2.332.742,2.357,2.357,0,0,1,.895,1.9h-1.453a1.3,1.3,0,0,0-.5-1.023,1.888,1.888,0,0,0-1.27-.43,1.976,1.976,0,0,0-1.234.344,1.082,1.082,0,0,0-.445.9.877.877,0,0,0,.414.789,5.1,5.1,0,0,0,1.5.508,7.8,7.8,0,0,1,1.754.578,2.558,2.558,0,0,1,1,.809,1.988,1.988,0,0,1,.324,1.152,2.163,2.163,0,0,1-.906,1.816,3.8,3.8,0,0,1-2.352.684,4.257,4.257,0,0,1-1.8-.359,2.922,2.922,0,0,1-1.223-1,2.42,2.42,0,0,1-.441-1.395h1.445a1.5,1.5,0,0,0,.582,1.152,2.258,2.258,0,0,0,1.434.426,2.331,2.331,0,0,0,1.316-.332A1.02,1.02,0,0,0,160.672,110.758Zm6.836,2.4a3.693,3.693,0,0,1-2.8-1.129,4.19,4.19,0,0,1-1.078-3.02v-.266a5.073,5.073,0,0,1,.48-2.246,3.748,3.748,0,0,1,1.344-1.547,3.378,3.378,0,0,1,1.871-.559,3.166,3.166,0,0,1,2.563,1.086,4.7,4.7,0,0,1,.914,3.109v.6h-5.727a3,3,0,0,0,.73,2.02,2.3,2.3,0,0,0,1.777.77,2.517,2.517,0,0,0,1.3-.312,3.258,3.258,0,0,0,.93-.828l.883.688A3.55,3.55,0,0,1,167.508,113.156Zm-.18-7.578a1.928,1.928,0,0,0-1.469.637,3.1,3.1,0,0,0-.734,1.785h4.234v-.109a2.753,2.753,0,0,0-.594-1.707A1.815,1.815,0,0,0,167.328,105.578ZM6.313,137a3.036,3.036,0,0,1-.2-.891A3.225,3.225,0,0,1,3.7,137.156a2.984,2.984,0,0,1-2.051-.707,2.288,2.288,0,0,1-.8-1.793,2.39,2.39,0,0,1,1-2.051,4.733,4.733,0,0,1,2.824-.73H6.086v-.664A1.623,1.623,0,0,0,5.633,130a1.821,1.821,0,0,0-1.336-.449,2.107,2.107,0,0,0-1.3.391,1.151,1.151,0,0,0-.523.945H1.023a2,2,0,0,1,.449-1.223,3.066,3.066,0,0,1,1.219-.934,4.1,4.1,0,0,1,1.691-.344,3.342,3.342,0,0,1,2.289.73,2.635,2.635,0,0,1,.859,2.012v3.891a4.757,4.757,0,0,0,.3,1.852V137Zm-2.4-1.1a2.54,2.54,0,0,0,1.289-.352,2.127,2.127,0,0,0,.883-.914V132.9H4.953q-2.656,0-2.656,1.555a1.316,1.316,0,0,0,.453,1.063A1.742,1.742,0,0,0,3.914,135.9Zm5.531-3.2a4.952,4.952,0,0,1,.922-3.129,2.915,2.915,0,0,1,2.414-1.184,2.932,2.932,0,0,1,2.352,1.016V125h1.445v12H15.25l-.07-.906a2.943,2.943,0,0,1-2.414,1.063,2.887,2.887,0,0,1-2.395-1.2,5.008,5.008,0,0,1-.926-3.141Zm1.445.164a3.749,3.749,0,0,0,.594,2.25,1.919,1.919,0,0,0,1.641.813,2.108,2.108,0,0,0,2.008-1.234v-3.883a2.125,2.125,0,0,0-1.992-1.2,1.929,1.929,0,0,0-1.656.82A4.128,4.128,0,0,0,10.891,132.867Zm7.547-.172a4.993,4.993,0,0,1,.488-2.234,3.643,3.643,0,0,1,1.359-1.531,3.7,3.7,0,0,1,1.988-.539,3.565,3.565,0,0,1,2.793,1.2,4.6,4.6,0,0,1,1.066,3.18v.1a5.036,5.036,0,0,1-.473,2.215,3.589,3.589,0,0,1-1.352,1.527,3.743,3.743,0,0,1-2.02.547,3.556,3.556,0,0,1-2.785-1.2,4.575,4.575,0,0,1-1.066-3.164Zm1.453.172a3.616,3.616,0,0,0,.652,2.258,2.211,2.211,0,0,0,3.5-.012,3.955,3.955,0,0,0,.648-2.418,3.61,3.61,0,0,0-.66-2.254,2.1,2.1,0,0,0-1.754-.863,2.075,2.075,0,0,0-1.727.852A3.925,3.925,0,0,0,19.891,132.867Zm15.2,0a5.062,5.062,0,0,1-.883,3.109,2.829,2.829,0,0,1-2.391,1.18,3.1,3.1,0,0,1-2.422-.977v4.07H27.945v-11.7h1.32l.07.938a2.977,2.977,0,0,1,2.453-1.094,2.882,2.882,0,0,1,2.41,1.148,5.117,5.117,0,0,1,.887,3.2Zm-1.445-.164a3.735,3.735,0,0,0-.609-2.258,1.963,1.963,0,0,0-1.672-.828,2.125,2.125,0,0,0-1.969,1.164v4.039a2.129,2.129,0,0,0,1.984,1.156,1.954,1.954,0,0,0,1.652-.824A4.077,4.077,0,0,0,33.641,132.7Zm5.242-6.2v2.047h1.578v1.117H38.883v5.249a1.173,1.173,0,0,0,.211.763.888.888,0,0,0,.719.254,3.5,3.5,0,0,0,.688-.094V137a4.215,4.215,0,0,1-1.109.155,1.8,1.8,0,0,1-1.461-.586,2.517,2.517,0,0,1-.492-1.664v-5.242H35.9v-1.117h1.539V126.5ZM47.367,137a3.036,3.036,0,0,1-.2-.891,3.225,3.225,0,0,1-2.406,1.047,2.984,2.984,0,0,1-2.051-.707,2.288,2.288,0,0,1-.8-1.793,2.39,2.39,0,0,1,1-2.051,4.733,4.733,0,0,1,2.824-.73h1.406v-.664A1.623,1.623,0,0,0,46.688,130a1.821,1.821,0,0,0-1.336-.449,2.107,2.107,0,0,0-1.3.391,1.151,1.151,0,0,0-.523.945H42.078a2,2,0,0,1,.449-1.223,3.066,3.066,0,0,1,1.219-.934,4.1,4.1,0,0,1,1.691-.344,3.342,3.342,0,0,1,2.289.73,2.635,2.635,0,0,1,.859,2.012v3.891a4.757,4.757,0,0,0,.3,1.852V137Zm-2.4-1.1a2.54,2.54,0,0,0,1.289-.352,2.127,2.127,0,0,0,.883-.914V132.9H46.008q-2.656,0-2.656,1.555a1.316,1.316,0,0,0,.453,1.063A1.742,1.742,0,0,0,44.969,135.9Zm7.25-7.352.047,1.063a3.08,3.08,0,0,1,2.531-1.219q2.68,0,2.7,3.023V137H56.055v-5.594a1.946,1.946,0,0,0-.418-1.352,1.675,1.675,0,0,0-1.277-.437,2.086,2.086,0,0,0-1.234.375,2.546,2.546,0,0,0-.828.984V137H50.852v-8.453Zm14.813,7.43a2.082,2.082,0,0,0,1.352-.469,1.649,1.649,0,0,0,.641-1.172h1.367a2.621,2.621,0,0,1-.5,1.383,3.293,3.293,0,0,1-1.23,1.047,3.55,3.55,0,0,1-1.629.391A3.482,3.482,0,0,1,64.285,136a4.59,4.59,0,0,1-1.02-3.152v-.242a5.089,5.089,0,0,1,.453-2.2,3.451,3.451,0,0,1,1.3-1.492,3.7,3.7,0,0,1,2-.531,3.39,3.39,0,0,1,2.363.852,3.043,3.043,0,0,1,1,2.211H69.023a1.992,1.992,0,0,0-.621-1.348,1.932,1.932,0,0,0-1.379-.527,2.023,2.023,0,0,0-1.707.793,3.724,3.724,0,0,0-.605,2.293v.273a3.65,3.65,0,0,0,.6,2.25A2.033,2.033,0,0,0,67.031,135.977ZM73.586,137H72.141v-8.453h1.445Zm-1.562-10.7a.863.863,0,0,1,.215-.594.807.807,0,0,1,.637-.242.819.819,0,0,1,.641.242.854.854,0,0,1,.219.594.826.826,0,0,1-.219.586.834.834,0,0,1-.641.234.821.821,0,0,1-.637-.234A.834.834,0,0,1,72.023,126.3Zm7.383,10.852a3.693,3.693,0,0,1-2.8-1.129,4.19,4.19,0,0,1-1.078-3.02v-.266a5.073,5.073,0,0,1,.48-2.246,3.748,3.748,0,0,1,1.344-1.547,3.379,3.379,0,0,1,1.871-.559,3.166,3.166,0,0,1,2.563,1.086,4.7,4.7,0,0,1,.914,3.109v.6H76.977a3,3,0,0,0,.73,2.02,2.3,2.3,0,0,0,1.777.77,2.517,2.517,0,0,0,1.3-.312,3.258,3.258,0,0,0,.93-.828l.883.688A3.55,3.55,0,0,1,79.406,137.156Zm-.18-7.578a1.928,1.928,0,0,0-1.469.637A3.1,3.1,0,0,0,77.023,132h4.234v-.109a2.753,2.753,0,0,0-.594-1.707A1.815,1.815,0,0,0,79.227,129.578Zm9.234.266a4.332,4.332,0,0,0-.711-.055A1.9,1.9,0,0,0,85.82,131v6H84.375v-8.453h1.406l.023.977a2.251,2.251,0,0,1,2.016-1.133,1.476,1.476,0,0,1,.641.109Zm3.68-3.344v2.047h1.578v1.117H92.141v5.249a1.173,1.173,0,0,0,.211.763.888.888,0,0,0,.719.254,3.5,3.5,0,0,0,.688-.094V137a4.215,4.215,0,0,1-1.109.155,1.8,1.8,0,0,1-1.461-.586,2.517,2.517,0,0,1-.492-1.664v-5.242H89.156v-1.117H90.7V126.5Zm8.484,10.5a3.036,3.036,0,0,1-.2-.891,3.225,3.225,0,0,1-2.406,1.047,2.984,2.984,0,0,1-2.051-.707,2.288,2.288,0,0,1-.8-1.793,2.39,2.39,0,0,1,1-2.051,4.733,4.733,0,0,1,2.824-.73H100.4v-.664A1.623,1.623,0,0,0,99.945,130a1.821,1.821,0,0,0-1.336-.449,2.107,2.107,0,0,0-1.3.391,1.151,1.151,0,0,0-.523.945H95.336a2,2,0,0,1,.449-1.223A3.066,3.066,0,0,1,97,128.734a4.1,4.1,0,0,1,1.691-.344,3.342,3.342,0,0,1,2.289.73,2.635,2.635,0,0,1,.859,2.012v3.891a4.757,4.757,0,0,0,.3,1.852V137Zm-2.4-1.1a2.54,2.54,0,0,0,1.289-.352,2.127,2.127,0,0,0,.883-.914V132.9H99.266q-2.656,0-2.656,1.555a1.316,1.316,0,0,0,.453,1.063A1.742,1.742,0,0,0,98.227,135.9Zm10.8-1.141a1.064,1.064,0,0,0-.441-.91,4.249,4.249,0,0,0-1.539-.559,7.277,7.277,0,0,1-1.742-.562,2.479,2.479,0,0,1-.953-.781,1.869,1.869,0,0,1-.309-1.078,2.193,2.193,0,0,1,.879-1.758,3.432,3.432,0,0,1,2.246-.719,3.532,3.532,0,0,1,2.332.742,2.357,2.357,0,0,1,.895,1.9h-1.453a1.3,1.3,0,0,0-.5-1.023,1.888,1.888,0,0,0-1.27-.43,1.976,1.976,0,0,0-1.234.344,1.082,1.082,0,0,0-.445.9.877.877,0,0,0,.414.789,5.1,5.1,0,0,0,1.5.508,7.8,7.8,0,0,1,1.754.578,2.558,2.558,0,0,1,1,.809,1.988,1.988,0,0,1,.324,1.152,2.163,2.163,0,0,1-.906,1.816,3.8,3.8,0,0,1-2.352.684,4.257,4.257,0,0,1-1.8-.359,2.922,2.922,0,0,1-1.223-1,2.42,2.42,0,0,1-.441-1.395H105.2a1.5,1.5,0,0,0,.582,1.152,2.258,2.258,0,0,0,1.434.426,2.331,2.331,0,0,0,1.316-.332A1.02,1.02,0,0,0,109.031,134.758Zm8.648-6.211.039.938a3.122,3.122,0,0,1,2.508-1.094,2.417,2.417,0,0,1,2.414,1.359,3.2,3.2,0,0,1,1.1-.984,3.242,3.242,0,0,1,1.6-.375q2.781,0,2.828,2.945V137h-1.445v-5.578a1.941,1.941,0,0,0-.414-1.355,1.823,1.823,0,0,0-1.391-.449,1.916,1.916,0,0,0-1.336.48,1.949,1.949,0,0,0-.617,1.293V137h-1.453v-5.539a1.613,1.613,0,0,0-1.8-1.844,1.934,1.934,0,0,0-1.945,1.211V137h-1.445v-8.453Zm16.172,8.609a3.693,3.693,0,0,1-2.8-1.129,4.19,4.19,0,0,1-1.078-3.02v-.266a5.073,5.073,0,0,1,.48-2.246,3.748,3.748,0,0,1,1.344-1.547,3.379,3.379,0,0,1,1.871-.559,3.166,3.166,0,0,1,2.563,1.086,4.7,4.7,0,0,1,.914,3.109v.6h-5.727a3,3,0,0,0,.73,2.02,2.3,2.3,0,0,0,1.777.77,2.517,2.517,0,0,0,1.3-.312,3.258,3.258,0,0,0,.93-.828l.883.688A3.55,3.55,0,0,1,133.852,137.156Zm-.18-7.578a1.928,1.928,0,0,0-1.469.637,3.1,3.1,0,0,0-.734,1.785H135.7v-.109a2.753,2.753,0,0,0-.594-1.707A1.815,1.815,0,0,0,133.672,129.578Zm4.8,3.125a4.952,4.952,0,0,1,.922-3.129,3.137,3.137,0,0,1,4.766-.168V125H145.6v12h-1.328l-.07-.906a2.943,2.943,0,0,1-2.414,1.063,2.887,2.887,0,0,1-2.395-1.2,5.008,5.008,0,0,1-.926-3.141Zm1.445.164a3.749,3.749,0,0,0,.594,2.25,1.919,1.919,0,0,0,1.641.813,2.108,2.108,0,0,0,2.008-1.234v-3.883a2.125,2.125,0,0,0-1.992-1.2,1.929,1.929,0,0,0-1.656.82A4.128,4.128,0,0,0,139.914,132.867Zm9.5,4.133h-1.445v-8.453h1.445Zm-1.562-10.7a.863.863,0,0,1,.215-.594.807.807,0,0,1,.637-.242.819.819,0,0,1,.641.242.854.854,0,0,1,.219.594.826.826,0,0,1-.219.586.834.834,0,0,1-.641.234.821.821,0,0,1-.637-.234A.834.834,0,0,1,147.852,126.3Zm3.523,6.4a4.952,4.952,0,0,1,.922-3.129,3.137,3.137,0,0,1,4.766-.168V125h1.445v12H157.18l-.07-.906a2.943,2.943,0,0,1-2.414,1.063,2.887,2.887,0,0,1-2.395-1.2,5.008,5.008,0,0,1-.926-3.141Zm1.445.164a3.749,3.749,0,0,0,.594,2.25,1.919,1.919,0,0,0,1.641.813,2.108,2.108,0,0,0,2.008-1.234v-3.883a2.125,2.125,0,0,0-1.992-1.2,1.929,1.929,0,0,0-1.656.82A4.128,4.128,0,0,0,152.82,132.867ZM165.969,137a3.036,3.036,0,0,1-.2-.891,3.225,3.225,0,0,1-2.406,1.047,2.984,2.984,0,0,1-2.051-.707,2.287,2.287,0,0,1-.8-1.793,2.39,2.39,0,0,1,1-2.051,4.733,4.733,0,0,1,2.824-.73h1.406v-.664a1.623,1.623,0,0,0-.453-1.207,1.821,1.821,0,0,0-1.336-.449,2.107,2.107,0,0,0-1.3.391,1.151,1.151,0,0,0-.523.945H160.68a2,2,0,0,1,.449-1.223,3.066,3.066,0,0,1,1.219-.934,4.1,4.1,0,0,1,1.691-.344,3.342,3.342,0,0,1,2.289.73,2.635,2.635,0,0,1,.859,2.012v3.891a4.757,4.757,0,0,0,.3,1.852V137Zm-2.4-1.1a2.54,2.54,0,0,0,1.289-.352,2.127,2.127,0,0,0,.883-.914V132.9h-1.133q-2.656,0-2.656,1.555a1.316,1.316,0,0,0,.453,1.063A1.742,1.742,0,0,0,163.57,135.9Zm10.8-1.141a1.064,1.064,0,0,0-.441-.91,4.249,4.249,0,0,0-1.539-.559,7.277,7.277,0,0,1-1.742-.562,2.479,2.479,0,0,1-.953-.781,1.869,1.869,0,0,1-.309-1.078,2.193,2.193,0,0,1,.879-1.758,3.432,3.432,0,0,1,2.246-.719,3.532,3.532,0,0,1,2.332.742,2.357,2.357,0,0,1,.895,1.9h-1.453a1.3,1.3,0,0,0-.5-1.023,1.888,1.888,0,0,0-1.27-.43,1.976,1.976,0,0,0-1.234.344,1.082,1.082,0,0,0-.445.9.877.877,0,0,0,.414.789,5.1,5.1,0,0,0,1.5.508,7.8,7.8,0,0,1,1.754.578,2.558,2.558,0,0,1,1,.809,1.988,1.988,0,0,1,.324,1.152,2.163,2.163,0,0,1-.906,1.816,3.8,3.8,0,0,1-2.352.684,4.257,4.257,0,0,1-1.8-.359,2.922,2.922,0,0,1-1.223-1,2.42,2.42,0,0,1-.441-1.395h1.445a1.5,1.5,0,0,0,.582,1.152,2.258,2.258,0,0,0,1.434.426,2.331,2.331,0,0,0,1.316-.332A1.02,1.02,0,0,0,174.375,134.758ZM8.234,156.867a5.062,5.062,0,0,1-.883,3.109,2.829,2.829,0,0,1-2.391,1.18,3.1,3.1,0,0,1-2.422-.977v4.07H1.094v-11.7h1.32l.07.938a2.977,2.977,0,0,1,2.453-1.094,2.882,2.882,0,0,1,2.41,1.148,5.117,5.117,0,0,1,.887,3.2ZM6.789,156.7a3.735,3.735,0,0,0-.609-2.258,1.963,1.963,0,0,0-1.672-.828,2.125,2.125,0,0,0-1.969,1.164v4.039a2.129,2.129,0,0,0,1.984,1.156,1.954,1.954,0,0,0,1.652-.824A4.077,4.077,0,0,0,6.789,156.7Zm7.367-2.859a4.332,4.332,0,0,0-.711-.055A1.9,1.9,0,0,0,11.516,155v6H10.07v-8.453h1.406l.023.977a2.251,2.251,0,0,1,2.016-1.133,1.476,1.476,0,0,1,.641.109Zm4.836,7.313a3.693,3.693,0,0,1-2.8-1.129,4.19,4.19,0,0,1-1.078-3.02v-.266a5.073,5.073,0,0,1,.48-2.246,3.748,3.748,0,0,1,1.344-1.547,3.379,3.379,0,0,1,1.871-.559,3.166,3.166,0,0,1,2.563,1.086,4.7,4.7,0,0,1,.914,3.109v.6H16.563a3,3,0,0,0,.73,2.02,2.3,2.3,0,0,0,1.777.77,2.517,2.517,0,0,0,1.3-.312,3.258,3.258,0,0,0,.93-.828l.883.688A3.55,3.55,0,0,1,18.992,161.156Zm-.18-7.578a1.928,1.928,0,0,0-1.469.637A3.1,3.1,0,0,0,16.609,156h4.234v-.109a2.753,2.753,0,0,0-.594-1.707A1.815,1.815,0,0,0,18.813,153.578Zm7.836,5.461,2.094-6.492h1.477L27.188,161h-1.1l-3.062-8.453H24.5Zm8.469,2.117a3.693,3.693,0,0,1-2.8-1.129,4.19,4.19,0,0,1-1.078-3.02v-.266a5.073,5.073,0,0,1,.48-2.246,3.748,3.748,0,0,1,1.344-1.547,3.379,3.379,0,0,1,1.871-.559,3.166,3.166,0,0,1,2.563,1.086,4.7,4.7,0,0,1,.914,3.109v.6H32.688a3,3,0,0,0,.73,2.02,2.3,2.3,0,0,0,1.777.77,2.517,2.517,0,0,0,1.3-.312,3.258,3.258,0,0,0,.93-.828l.883.688A3.55,3.55,0,0,1,35.117,161.156Zm-.18-7.578a1.928,1.928,0,0,0-1.469.637A3.1,3.1,0,0,0,32.734,156h4.234v-.109a2.753,2.753,0,0,0-.594-1.707A1.815,1.815,0,0,0,34.938,153.578Zm6.516-1.031.047,1.063a3.08,3.08,0,0,1,2.531-1.219q2.68,0,2.7,3.023V161H45.289v-5.594a1.946,1.946,0,0,0-.418-1.352,1.675,1.675,0,0,0-1.277-.437,2.086,2.086,0,0,0-1.234.375,2.546,2.546,0,0,0-.828.984V161H40.086v-8.453Zm9.422-2.047v2.047h1.578v1.117H50.875v5.249a1.173,1.173,0,0,0,.211.763.888.888,0,0,0,.719.254,3.5,3.5,0,0,0,.688-.094V161a4.215,4.215,0,0,1-1.109.155,1.8,1.8,0,0,1-1.461-.586,2.517,2.517,0,0,1-.492-1.664v-5.242H47.891v-1.117H49.43V150.5ZM55.711,161H54.266v-8.453h1.445Zm-1.562-10.7a.863.863,0,0,1,.215-.594.807.807,0,0,1,.637-.242.819.819,0,0,1,.641.242.854.854,0,0,1,.219.594.826.826,0,0,1-.219.586.834.834,0,0,1-.641.234.821.821,0,0,1-.637-.234A.834.834,0,0,1,54.148,150.3Zm6.664,8.734,2.094-6.492h1.477L61.352,161h-1.1l-3.062-8.453h1.477ZM70.875,161a3.036,3.036,0,0,1-.2-.891,3.225,3.225,0,0,1-2.406,1.047,2.984,2.984,0,0,1-2.051-.707,2.288,2.288,0,0,1-.8-1.793,2.39,2.39,0,0,1,1-2.051,4.733,4.733,0,0,1,2.824-.73h1.406v-.664A1.623,1.623,0,0,0,70.2,154a1.821,1.821,0,0,0-1.336-.449,2.107,2.107,0,0,0-1.3.391,1.151,1.151,0,0,0-.523.945H65.586a2,2,0,0,1,.449-1.223,3.066,3.066,0,0,1,1.219-.934,4.1,4.1,0,0,1,1.691-.344,3.342,3.342,0,0,1,2.289.73,2.635,2.635,0,0,1,.859,2.012v3.891a4.757,4.757,0,0,0,.3,1.852V161Zm-2.4-1.1a2.54,2.54,0,0,0,1.289-.352,2.127,2.127,0,0,0,.883-.914V156.9H69.516q-2.656,0-2.656,1.555a1.316,1.316,0,0,0,.453,1.063A1.742,1.742,0,0,0,68.477,159.9Zm10.8-1.141a1.064,1.064,0,0,0-.441-.91,4.249,4.249,0,0,0-1.539-.559,7.277,7.277,0,0,1-1.742-.562,2.479,2.479,0,0,1-.953-.781,1.869,1.869,0,0,1-.309-1.078,2.193,2.193,0,0,1,.879-1.758,3.432,3.432,0,0,1,2.246-.719,3.532,3.532,0,0,1,2.332.742,2.357,2.357,0,0,1,.895,1.9H79.2a1.3,1.3,0,0,0-.5-1.023,1.888,1.888,0,0,0-1.27-.43,1.976,1.976,0,0,0-1.234.344,1.082,1.082,0,0,0-.445.9.877.877,0,0,0,.414.789,5.1,5.1,0,0,0,1.5.508,7.8,7.8,0,0,1,1.754.578,2.558,2.558,0,0,1,1,.809,1.988,1.988,0,0,1,.324,1.152,2.163,2.163,0,0,1-.906,1.816,3.8,3.8,0,0,1-2.352.684,4.257,4.257,0,0,1-1.8-.359,2.922,2.922,0,0,1-1.223-1,2.42,2.42,0,0,1-.441-1.395h1.445a1.5,1.5,0,0,0,.582,1.152,2.258,2.258,0,0,0,1.434.426,2.331,2.331,0,0,0,1.316-.332A1.02,1.02,0,0,0,79.281,158.758Zm3.359,1.484a.905.905,0,0,1,.223-.625.848.848,0,0,1,.668-.25.874.874,0,0,1,.676.25.887.887,0,0,1,.23.625.839.839,0,0,1-.23.6.89.89,0,0,1-.676.242.8.8,0,0,1-.891-.844ZM10.063,209H8.555l-5.727-8.766V209H1.32V197.625H2.828l5.742,8.8v-8.8h1.492Zm2.055-4.3a4.993,4.993,0,0,1,.488-2.234,3.643,3.643,0,0,1,1.359-1.531,3.7,3.7,0,0,1,1.988-.539,3.565,3.565,0,0,1,2.793,1.2,4.6,4.6,0,0,1,1.066,3.18v.1a5.036,5.036,0,0,1-.473,2.215,3.589,3.589,0,0,1-1.352,1.527,3.743,3.743,0,0,1-2.02.547,3.556,3.556,0,0,1-2.785-1.2,4.575,4.575,0,0,1-1.066-3.164Zm1.453.172a3.616,3.616,0,0,0,.652,2.258,2.211,2.211,0,0,0,3.5-.012,3.955,3.955,0,0,0,.648-2.418,3.61,3.61,0,0,0-.66-2.254,2.1,2.1,0,0,0-1.754-.863,2.075,2.075,0,0,0-1.727.852A3.925,3.925,0,0,0,13.57,204.867Zm11.664-.164a4.952,4.952,0,0,1,.922-3.129,3.137,3.137,0,0,1,4.766-.168V197h1.445v12H31.039l-.07-.906a2.943,2.943,0,0,1-2.414,1.063,2.887,2.887,0,0,1-2.395-1.2,5.008,5.008,0,0,1-.926-3.141Zm1.445.164a3.749,3.749,0,0,0,.594,2.25,1.919,1.919,0,0,0,1.641.813,2.108,2.108,0,0,0,2.008-1.234v-3.883a2.125,2.125,0,0,0-1.992-1.2,1.929,1.929,0,0,0-1.656.82A4.128,4.128,0,0,0,26.68,204.867Zm11.438,4.289a3.693,3.693,0,0,1-2.8-1.129,4.19,4.19,0,0,1-1.078-3.02v-.266a5.073,5.073,0,0,1,.48-2.246,3.748,3.748,0,0,1,1.344-1.547,3.379,3.379,0,0,1,1.871-.559,3.166,3.166,0,0,1,2.563,1.086,4.7,4.7,0,0,1,.914,3.109v.6H35.688a3,3,0,0,0,.73,2.02,2.3,2.3,0,0,0,1.777.77,2.517,2.517,0,0,0,1.3-.312,3.258,3.258,0,0,0,.93-.828l.883.688A3.55,3.55,0,0,1,38.117,209.156Zm-.18-7.578a1.928,1.928,0,0,0-1.469.637A3.1,3.1,0,0,0,35.734,204h4.234v-.109a2.753,2.753,0,0,0-.594-1.707A1.815,1.815,0,0,0,37.938,201.578Zm12.3,3.289a5.026,5.026,0,0,1-.891,3.113,2.846,2.846,0,0,1-2.391,1.176,2.947,2.947,0,0,1-2.477-1.133l-.07.977H43.086V197h1.445v4.477a2.93,2.93,0,0,1,2.414-1.086,2.863,2.863,0,0,1,2.418,1.164,5.177,5.177,0,0,1,.879,3.188ZM48.8,204.7a3.906,3.906,0,0,0-.57-2.281,1.888,1.888,0,0,0-1.641-.8,2.122,2.122,0,0,0-2.055,1.328V206.6a2.181,2.181,0,0,0,2.07,1.328,1.878,1.878,0,0,0,1.617-.8A4.153,4.153,0,0,0,48.8,204.7Zm6.773,4.453a3.693,3.693,0,0,1-2.8-1.129,4.19,4.19,0,0,1-1.078-3.02v-.266a5.073,5.073,0,0,1,.48-2.246,3.748,3.748,0,0,1,1.344-1.547,3.379,3.379,0,0,1,1.871-.559,3.166,3.166,0,0,1,2.563,1.086,4.7,4.7,0,0,1,.914,3.109v.6H53.141a3,3,0,0,0,.73,2.02,2.3,2.3,0,0,0,1.777.77,2.517,2.517,0,0,0,1.3-.312,3.258,3.258,0,0,0,.93-.828l.883.688A3.55,3.55,0,0,1,55.57,209.156Zm-.18-7.578a1.928,1.928,0,0,0-1.469.637A3.1,3.1,0,0,0,53.188,204h4.234v-.109a2.753,2.753,0,0,0-.594-1.707A1.815,1.815,0,0,0,55.391,201.578Zm6.516-1.031.047,1.063a3.08,3.08,0,0,1,2.531-1.219q2.68,0,2.7,3.023V209H65.742v-5.594a1.946,1.946,0,0,0-.418-1.352,1.675,1.675,0,0,0-1.277-.437,2.086,2.086,0,0,0-1.234.375,2.546,2.546,0,0,0-.828.984V209H60.539v-8.453ZM78.547,209a3.036,3.036,0,0,1-.2-.891,3.225,3.225,0,0,1-2.406,1.047,2.984,2.984,0,0,1-2.051-.707,2.288,2.288,0,0,1-.8-1.793,2.39,2.39,0,0,1,1-2.051,4.733,4.733,0,0,1,2.824-.73H78.32v-.664A1.623,1.623,0,0,0,77.867,202a1.821,1.821,0,0,0-1.336-.449,2.107,2.107,0,0,0-1.3.391,1.151,1.151,0,0,0-.523.945H73.258a2,2,0,0,1,.449-1.223,3.066,3.066,0,0,1,1.219-.934,4.1,4.1,0,0,1,1.691-.344,3.342,3.342,0,0,1,2.289.73,2.635,2.635,0,0,1,.859,2.012v3.891a4.757,4.757,0,0,0,.3,1.852V209Zm-2.4-1.1a2.54,2.54,0,0,0,1.289-.352,2.127,2.127,0,0,0,.883-.914V204.9H77.188q-2.656,0-2.656,1.555a1.316,1.316,0,0,0,.453,1.063A1.742,1.742,0,0,0,76.148,207.9ZM83.6,209H82.156V197H83.6Zm3.672-8.453.039.938a3.122,3.122,0,0,1,2.508-1.094,2.417,2.417,0,0,1,2.414,1.359,3.2,3.2,0,0,1,1.1-.984,3.242,3.242,0,0,1,1.6-.375q2.781,0,2.828,2.945V209H96.313v-5.578a1.941,1.941,0,0,0-.414-1.355,1.823,1.823,0,0,0-1.391-.449,1.916,1.916,0,0,0-1.336.48,1.949,1.949,0,0,0-.617,1.293V209H91.1v-5.539a1.613,1.613,0,0,0-1.8-1.844,1.934,1.934,0,0,0-1.945,1.211V209H85.906v-8.453ZM105.156,209a3.036,3.036,0,0,1-.2-.891,3.225,3.225,0,0,1-2.406,1.047,2.984,2.984,0,0,1-2.051-.707,2.288,2.288,0,0,1-.8-1.793,2.39,2.39,0,0,1,1-2.051,4.733,4.733,0,0,1,2.824-.73h1.406v-.664a1.623,1.623,0,0,0-.453-1.207,1.821,1.821,0,0,0-1.336-.449,2.107,2.107,0,0,0-1.3.391,1.151,1.151,0,0,0-.523.945H99.867a2,2,0,0,1,.449-1.223,3.066,3.066,0,0,1,1.219-.934,4.1,4.1,0,0,1,1.691-.344,3.342,3.342,0,0,1,2.289.73,2.635,2.635,0,0,1,.859,2.012v3.891a4.757,4.757,0,0,0,.3,1.852V209Zm-2.4-1.1a2.54,2.54,0,0,0,1.289-.352,2.127,2.127,0,0,0,.883-.914V204.9H103.8q-2.656,0-2.656,1.555a1.316,1.316,0,0,0,.453,1.063A1.742,1.742,0,0,0,102.758,207.9Zm9.273.078a2.082,2.082,0,0,0,1.352-.469,1.649,1.649,0,0,0,.641-1.172h1.367a2.621,2.621,0,0,1-.5,1.383,3.293,3.293,0,0,1-1.23,1.047,3.55,3.55,0,0,1-1.629.391A3.482,3.482,0,0,1,109.285,208a4.59,4.59,0,0,1-1.02-3.152v-.242a5.089,5.089,0,0,1,.453-2.2,3.451,3.451,0,0,1,1.3-1.492,3.7,3.7,0,0,1,2-.531,3.39,3.39,0,0,1,2.363.852,3.043,3.043,0,0,1,1,2.211h-1.367a1.992,1.992,0,0,0-.621-1.348,1.932,1.932,0,0,0-1.379-.527,2.023,2.023,0,0,0-1.707.793,3.724,3.724,0,0,0-.605,2.293v.273a3.65,3.65,0,0,0,.6,2.25A2.033,2.033,0,0,0,112.031,207.977Zm8.492,1.18a3.693,3.693,0,0,1-2.8-1.129,4.19,4.19,0,0,1-1.078-3.02v-.266a5.073,5.073,0,0,1,.48-2.246,3.748,3.748,0,0,1,1.344-1.547,3.379,3.379,0,0,1,1.871-.559,3.166,3.166,0,0,1,2.563,1.086,4.7,4.7,0,0,1,.914,3.109v.6h-5.727a3,3,0,0,0,.73,2.02,2.3,2.3,0,0,0,1.777.77,2.517,2.517,0,0,0,1.3-.312,3.258,3.258,0,0,0,.93-.828l.883.688A3.55,3.55,0,0,1,120.523,209.156Zm-.18-7.578a1.928,1.928,0,0,0-1.469.637,3.1,3.1,0,0,0-.734,1.785h4.234v-.109a2.753,2.753,0,0,0-.594-1.707A1.815,1.815,0,0,0,120.344,201.578Zm6.516-1.031.047,1.063a3.08,3.08,0,0,1,2.531-1.219q2.68,0,2.7,3.023V209H130.7v-5.594a1.946,1.946,0,0,0-.418-1.352,1.675,1.675,0,0,0-1.277-.437,2.086,2.086,0,0,0-1.234.375,2.546,2.546,0,0,0-.828.984V209h-1.445v-8.453ZM139.539,209a3.036,3.036,0,0,1-.2-.891,3.225,3.225,0,0,1-2.406,1.047,2.984,2.984,0,0,1-2.051-.707,2.287,2.287,0,0,1-.8-1.793,2.39,2.39,0,0,1,1-2.051,4.733,4.733,0,0,1,2.824-.73h1.406v-.664a1.623,1.623,0,0,0-.453-1.207,1.821,1.821,0,0,0-1.336-.449,2.107,2.107,0,0,0-1.3.391,1.151,1.151,0,0,0-.523.945H134.25a2,2,0,0,1,.449-1.223,3.066,3.066,0,0,1,1.219-.934,4.1,4.1,0,0,1,1.691-.344,3.342,3.342,0,0,1,2.289.73,2.635,2.635,0,0,1,.859,2.012v3.891a4.757,4.757,0,0,0,.3,1.852V209Zm-2.4-1.1a2.54,2.54,0,0,0,1.289-.352,2.127,2.127,0,0,0,.883-.914V204.9H138.18q-2.656,0-2.656,1.555a1.316,1.316,0,0,0,.453,1.063A1.742,1.742,0,0,0,137.141,207.9Zm9.969-6.055a4.332,4.332,0,0,0-.711-.055,1.9,1.9,0,0,0-1.93,1.211v6h-1.445v-8.453h1.406l.023.977a2.251,2.251,0,0,1,2.016-1.133,1.476,1.476,0,0,1,.641.109Zm6.25,4.914a1.064,1.064,0,0,0-.441-.91,4.249,4.249,0,0,0-1.539-.559,7.277,7.277,0,0,1-1.742-.562,2.479,2.479,0,0,1-.953-.781,1.869,1.869,0,0,1-.309-1.078,2.193,2.193,0,0,1,.879-1.758,3.432,3.432,0,0,1,2.246-.719,3.532,3.532,0,0,1,2.332.742,2.357,2.357,0,0,1,.895,1.9h-1.453a1.3,1.3,0,0,0-.5-1.023,1.888,1.888,0,0,0-1.27-.43,1.976,1.976,0,0,0-1.234.344,1.082,1.082,0,0,0-.445.9.877.877,0,0,0,.414.789,5.1,5.1,0,0,0,1.5.508,7.8,7.8,0,0,1,1.754.578,2.558,2.558,0,0,1,1,.809,1.988,1.988,0,0,1,.324,1.152,2.163,2.163,0,0,1-.906,1.816,3.8,3.8,0,0,1-2.352.684,4.257,4.257,0,0,1-1.8-.359,2.922,2.922,0,0,1-1.223-1,2.42,2.42,0,0,1-.441-1.395h1.445a1.5,1.5,0,0,0,.582,1.152,2.258,2.258,0,0,0,1.434.426,2.331,2.331,0,0,0,1.316-.332A1.02,1.02,0,0,0,153.359,206.758Zm6.836,2.4a3.693,3.693,0,0,1-2.8-1.129,4.19,4.19,0,0,1-1.078-3.02v-.266a5.073,5.073,0,0,1,.48-2.246,3.748,3.748,0,0,1,1.344-1.547,3.379,3.379,0,0,1,1.871-.559,3.166,3.166,0,0,1,2.563,1.086,4.7,4.7,0,0,1,.914,3.109v.6h-5.727a3,3,0,0,0,.73,2.02,2.3,2.3,0,0,0,1.777.77,2.517,2.517,0,0,0,1.3-.312,3.258,3.258,0,0,0,.93-.828l.883.688A3.55,3.55,0,0,1,160.2,209.156Zm-.18-7.578a1.928,1.928,0,0,0-1.469.637,3.1,3.1,0,0,0-.734,1.785h4.234v-.109a2.753,2.753,0,0,0-.594-1.707A1.815,1.815,0,0,0,160.016,201.578Z" transform="translate(1226.991 5551.443)" fill="#12263f"/>
    <path id="Path_204397" data-name="Path 204397" d="M6.17,11.74h3v2.54h-3v3.437H3.4V14.28H.4V11.74H3.4V8.4H6.17Zm3.5,194.03a6.11,6.11,0,0,1-1.165,4,4.024,4.024,0,0,1-3.283,1.406,4.046,4.046,0,0,1-3.3-1.415,6.1,6.1,0,0,1-1.169-3.99v-2.338a6.11,6.11,0,0,1,1.165-4A4.034,4.034,0,0,1,5.2,198.027a4.036,4.036,0,0,1,3.3,1.415,6.116,6.116,0,0,1,1.169,4Zm-2.962-2.716a4.564,4.564,0,0,0-.36-2.061,1.2,1.2,0,0,0-1.143-.681,1.176,1.176,0,0,0-1.112.633,4.3,4.3,0,0,0-.374,1.916v3.27a4.6,4.6,0,0,0,.36,2.1,1.209,1.209,0,0,0,1.143.664,1.193,1.193,0,0,0,1.116-.646,4.39,4.39,0,0,0,.369-2.026Z" transform="translate(1187.991 5564.443)" fill="#12263f"/>
    <path id="Path_204413" data-name="Path 204413" d="M15.328,33.307h9.166v6.627H15.328V50.293H8.346V39.934H-.846V33.307H8.346V23.379h6.982Z" transform="translate(922.991 5557.443)" fill="#12263f"/>
    <path id="Path_204399" data-name="Path 204399" d="M15.328,33.307h9.166v6.627H15.328V50.293H8.346V39.934H-.846V33.307H8.346V23.379h6.982Z" transform="translate(1101.926 5557.443)" fill="#12263f"/>
    <path id="Path_204407" data-name="Path 204407" d="M15.328,33.307h9.166v6.627H15.328V50.293H8.346V39.934H-.846V33.307H8.346V23.379h6.982Z" transform="translate(983.199 5613.776)" fill="#12263f"/>
    <path id="Path_204400" data-name="Path 204400" d="M24.38,38.715q0,7.668-3.174,11.73t-9.293,4.063q-6.043,0-9.242-3.986T-.6,39.1v-6.8q0-7.744,3.212-11.756t9.255-4.012q6.043,0,9.242,3.974T24.38,31.91Zm-7.338-7.482q0-4.6-1.257-6.7a4.247,4.247,0,0,0-3.923-2.1,4.172,4.172,0,0,0-3.821,2q-1.231,2-1.308,6.239v9q0,4.524,1.231,6.722a4.191,4.191,0,0,0,3.948,2.2A4.121,4.121,0,0,0,15.8,46.482a13.871,13.871,0,0,0,1.244-6.456Z" transform="translate(1101.926 5613.776)" fill="#12263f"/>
    <path id="Path_204403" data-name="Path 204403" d="M15.328,33.307h9.166v6.627H15.328V50.293H8.346V39.934H-.846V33.307H8.346V23.379h6.982Z" transform="translate(1043.407 5671.109)" fill="#12263f"/>
    <path id="Path_204401" data-name="Path 204401" d="M15.328,33.307h9.166v6.627H15.328V50.293H8.346V39.934H-.846V33.307H8.346V23.379h6.982Z" transform="translate(1101.926 5671.109)" fill="#12263f"/>
    <path id="Path_204414" data-name="Path 204414" d="M15.328,33.307h9.166v6.627H15.328V50.293H8.346V39.934H-.846V33.307H8.346V23.379h6.982Z" transform="translate(922.991 5727.443)" fill="#12263f"/>
    <path id="Path_204408" data-name="Path 204408" d="M24.38,38.715q0,7.668-3.174,11.73t-9.293,4.063q-6.043,0-9.242-3.986T-.6,39.1v-6.8q0-7.744,3.212-11.756t9.255-4.012q6.043,0,9.242,3.974T24.38,31.91Zm-7.338-7.482q0-4.6-1.257-6.7a4.247,4.247,0,0,0-3.923-2.1,4.172,4.172,0,0,0-3.821,2q-1.231,2-1.308,6.239v9q0,4.524,1.231,6.722a4.191,4.191,0,0,0,3.948,2.2A4.121,4.121,0,0,0,15.8,46.482a13.871,13.871,0,0,0,1.244-6.456Z" transform="translate(983.199 5727.443)" fill="#12263f"/>
    <path id="Path_204404" data-name="Path 204404" d="M15.328,33.307h9.166v6.627H15.328V50.293H8.346V39.934H-.846V33.307H8.346V23.379h6.982Z" transform="translate(1043.407 5727.443)" fill="#12263f"/>
    <path id="Path_204402" data-name="Path 204402" d="M15.328,33.307h9.166v6.627H15.328V50.293H8.346V39.934H-.846V33.307H8.346V23.379h6.982Z" transform="translate(1101.926 5727.443)" fill="#12263f"/>
    <g id="Group_150321" data-name="Group 150321" transform="translate(207.223 -1056.184)">
      <g id="Group_150299" data-name="Group 150299" transform="translate(816.562 6562.458)">
        <g id="Group_150297" data-name="Group 150297" transform="translate(0)">
          <path id="Rectangle_44846" data-name="Rectangle 44846" d="M6.674,0H26.8a6.675,6.675,0,0,1,6.675,6.675V26.8A6.674,6.674,0,0,1,26.8,33.473H6.675A6.675,6.675,0,0,1,0,26.8V6.674A6.674,6.674,0,0,1,6.674,0Z" transform="translate(0.238 23.907) rotate(-45)" fill="#fff"/>
          <path id="Path_204181" data-name="Path 204181" d="M63.447,33.888,44.475,14.917a4.95,4.95,0,0,0-6.986,0L18.518,33.888a4.95,4.95,0,0,0,0,6.986L37.489,59.845a4.949,4.949,0,0,0,6.986,0L63.447,40.874a4.95,4.95,0,0,0,0-6.986Zm-2.289,4.7L42.187,57.557a1.713,1.713,0,0,1-2.409,0L20.806,38.586a1.713,1.713,0,0,1,0-2.409L39.778,17.205a1.714,1.714,0,0,1,2.409,0L61.158,36.177a1.713,1.713,0,0,1,0,2.409Z" transform="translate(-17.075 -13.474)" fill="#ed1c24" fill-rule="evenodd"/>
        </g>
        <g id="Group_150298" data-name="Group 150298" transform="translate(11.132 8.557)">
          <path id="Path_204182" data-name="Path 204182" d="M62.714,54.633c-.217,1.412-1.235,2.219.878,2.219s1.1-.807.878-2.219c-.064-.418-.41-1.125-.878-1.11C63.124,53.507,62.778,54.215,62.714,54.633Z" transform="translate(-50.914 -42.148)"/>
          <path id="Path_204183" data-name="Path 204183" d="M51.294,42.481c-.285,2.465,1.449,2.443,2.361,2.271a10.658,10.658,0,0,1-.017,2.015,2.509,2.509,0,0,0,.255,1.834A6.946,6.946,0,0,0,57.9,50.453,6.989,6.989,0,0,0,61.91,48.6c.661-.891.027-2.743.217-3.854.909.174,2.662.21,2.376-2.268-.18-1.555-.871-1.647-.189-3.238a5.9,5.9,0,0,0-3.69-8.191,9.62,9.62,0,0,0-2.689-.384,9.29,9.29,0,0,0-2.764.384,6,6,0,0,0-3.69,8.191C52.134,40.846,51.473,40.925,51.294,42.481Zm10.144,5.772A6.261,6.261,0,0,1,57.9,49.864a6.492,6.492,0,0,1-3.534-1.609,1.927,1.927,0,0,1-.142-1.44,8.344,8.344,0,0,0,.105-2.109,1.361,1.361,0,0,1,.525.783A5.908,5.908,0,0,1,55,47.057h0a.294.294,0,0,0,.169.266,6.113,6.113,0,0,0,5.424.011.3.3,0,0,0,.2-.277,5.93,5.93,0,0,1,.149-1.569,1.387,1.387,0,0,1,.492-.761C61.237,45.922,61.837,47.651,61.438,48.253ZM55.357,31.609a9.625,9.625,0,0,1,2.579-.359,7.935,7.935,0,0,1,2.5.359,5.366,5.366,0,0,1,3.871,5.374c-.015,1.446-.612,1.956-.781,2.936a3.706,3.706,0,0,1-.212-2.365c.083-.378-.4-.393-.443-.007a5.872,5.872,0,0,0,.011,1.753c.163.938,2.364,4.669.171,4.922-.818.095-1.316-.294-1.583-.186-1.153.468-1.26,1.731-1.271,2.833a5.508,5.508,0,0,1-4.61,0c-.01-1.071-.12-2.4-1.284-2.838a.292.292,0,0,0-.189-.005h0a3.516,3.516,0,0,1-1.38.2c-2.171-.25-.028-3.935.124-4.874a6.086,6.086,0,0,0,.057-1.8c-.042-.385-.457-.349-.415.036a6.624,6.624,0,0,1-.24,2.337,3.918,3.918,0,0,0-.227-.861C50.769,35.95,52.077,32.564,55.357,31.609Z" transform="translate(-45.242 -30.668)"/>
          <path id="Path_204184" data-name="Path 204184" d="M57.632,51.5c1.2-.437,2.1-.9,2.161-2.525.037-1.025-2.914-.34-3.471-.2-.489.125-.665.365-.679.7v.081a3.8,3.8,0,0,0,.226.96A1.484,1.484,0,0,0,57.632,51.5Z" transform="translate(-47.581 -39.586)"/>
          <path id="Path_204185" data-name="Path 204185" d="M68.015,51.5a1.484,1.484,0,0,0,1.763-.98A3.927,3.927,0,0,0,70,49.571v-.1c-.014-.333-.193-.571-.679-.7-.557-.143-3.508-.828-3.471.2C65.912,50.6,66.818,51.062,68.015,51.5Z" transform="translate(-52.71 -39.586)"/>
          <path id="Path_204186" data-name="Path 204186" d="M64.988,62.943a2.47,2.47,0,0,0-.325-1,.84.84,0,0,0-.507-.343,1.69,1.69,0,0,0-.042-.959,1.744,1.744,0,0,0-.265-.513,1.194,1.194,0,0,0-.454-.373,1,1,0,0,0-.742-.032,2.693,2.693,0,0,0-1.641,1.506,2.715,2.715,0,0,1-.931,1.106c-1.3.8-3.175,1.711-4.819,2.509-.549.267-1.072.521-1.593.781h0l-.444.227c-.308.158-.644.331-1,.5-.419-.207-.818-.406-1.174-.584l-.282-.141h0c-.288-.144-.576-.286-.87-.429l-.725-.353c-1.643-.8-3.519-1.708-4.817-2.508a2.719,2.719,0,0,1-.931-1.106,2.691,2.691,0,0,0-1.641-1.506,1,1,0,0,0-.741.032,1.2,1.2,0,0,0-.454.374,1.752,1.752,0,0,0-.265.514,1.684,1.684,0,0,0-.042.959.841.841,0,0,0-.508.343,2.462,2.462,0,0,0-.324,1,1.756,1.756,0,0,0,.191.951c.449.876,1.589.787,2.463.719.168-.013.326-.025.439-.029.593-.017,4.769,2.065,6.858,3.107l.017.009c-.467.221-.9.412-1.272.556a3.755,3.755,0,0,1-.96.292c-.113,0-.271-.016-.44-.029-.874-.069-2.014-.157-2.463.719a1.756,1.756,0,0,0-.191.951,2.46,2.46,0,0,0,.325,1,.838.838,0,0,0,.507.344,1.688,1.688,0,0,0,.042.959,1.765,1.765,0,0,0,.265.514,1.2,1.2,0,0,0,.454.373,1,1,0,0,0,.742.032,2.69,2.69,0,0,0,1.64-1.506A2.718,2.718,0,0,1,49,70.8c.529-.326,1.071-.631,1.622-.923.534-.283,1.057-.545,1.579-.8l.014-.007c1.129.556,2.254,1.135,3.223,1.732a2.712,2.712,0,0,1,.931,1.106,2.69,2.69,0,0,0,1.641,1.505,1,1,0,0,0,.741-.032,1.2,1.2,0,0,0,.454-.373,1.749,1.749,0,0,0,.265-.514,1.682,1.682,0,0,0,.042-.958.841.841,0,0,0,.508-.344,2.469,2.469,0,0,0,.324-1,1.756,1.756,0,0,0-.191-.951c-.449-.876-1.589-.787-2.463-.719-.168.013-.326.025-.438.029a9.715,9.715,0,0,1-2.232-.856c2.231-1.111,6.315-3.125,6.875-3.108.113,0,.271.016.439.029.874.068,2.014.157,2.463-.719A1.762,1.762,0,0,0,64.988,62.943ZM50.347,69.357c-.555.295-1.108.605-1.657.944a3.189,3.189,0,0,0-1.136,1.318,2.206,2.206,0,0,1-1.309,1.234.426.426,0,0,1-.318-.009.61.61,0,0,1-.228-.194,1.152,1.152,0,0,1-.173-.338,1,1,0,0,1-.014-.673l.006-.015a2.33,2.33,0,0,0,.715-.076.294.294,0,1,0-.173-.562,1.987,1.987,0,0,1-.772.027.716.716,0,0,1-.358-.108,1.883,1.883,0,0,1-.25-.76,1.182,1.182,0,0,1,.126-.64c.27-.526,1.189-.454,1.9-.4.16.012.31.024.467.029a3.93,3.93,0,0,0,1.19-.331c.493-.193,1.095-.463,1.727-.774.328.162.652.32.977.477l.485.236C51.14,68.947,50.736,69.151,50.347,69.357Zm6.92-.221c.158,0,.307-.016.466-.029.706-.055,1.627-.127,1.9.4a1.182,1.182,0,0,1,.126.64,1.884,1.884,0,0,1-.251.76.709.709,0,0,1-.357.108,1.98,1.98,0,0,1-.772-.027.294.294,0,1,0-.173.562,2.334,2.334,0,0,0,.715.076l.006.015a.991.991,0,0,1-.014.672,1.167,1.167,0,0,1-.173.338.618.618,0,0,1-.228.194.428.428,0,0,1-.318.009,2.206,2.206,0,0,1-1.309-1.234A3.182,3.182,0,0,0,55.746,70.3c-1.332-.821-2.923-1.594-4.426-2.323l-1.019-.5a.284.284,0,0,0-.141-.07l-.263-.129-.051-.026-.021-.011-.162-.081C47.53,66.1,43.269,63.974,42.526,64c-.158,0-.307.016-.466.029-.707.055-1.627.127-1.9-.4a1.184,1.184,0,0,1-.126-.641,1.884,1.884,0,0,1,.251-.76.709.709,0,0,1,.357-.107,1.979,1.979,0,0,1,.772.027.294.294,0,0,0,.173-.562,2.334,2.334,0,0,0-.715-.076l-.006-.016a1,1,0,0,1,.014-.672,1.153,1.153,0,0,1,.173-.338.611.611,0,0,1,.228-.194.426.426,0,0,1,.318-.009,2.207,2.207,0,0,1,1.309,1.234,3.188,3.188,0,0,0,1.135,1.318c1.33.82,3.216,1.735,4.87,2.538l.981.478c.219.108.424.208.608.3h0l.282.141C52.915,67.349,56.537,69.157,57.267,69.136Zm7.007-5.509c-.269.526-1.189.453-1.9.4-.159-.012-.309-.024-.467-.029-.746-.022-5.444,2.315-7.573,3.377-.474-.224-.965-.462-1.447-.7.21-.1.412-.207.6-.3.115-.059.224-.115.439-.222h0c.439-.22,1-.491,1.586-.776,1.654-.8,3.541-1.719,4.872-2.539a3.189,3.189,0,0,0,1.136-1.318,2.206,2.206,0,0,1,1.308-1.234.43.43,0,0,1,.318.009.62.62,0,0,1,.228.194,1.152,1.152,0,0,1,.173.338.994.994,0,0,1,.014.672l-.006.016a2.334,2.334,0,0,0-.715.076.294.294,0,0,0,.173.562,1.979,1.979,0,0,1,.772-.027.709.709,0,0,1,.357.107,1.886,1.886,0,0,1,.251.761A1.183,1.183,0,0,1,64.273,63.626Z" transform="translate(-39.444 -45.233)"/>
        </g>
      </g>
      <g id="Group_150310" data-name="Group 150310" transform="translate(642.998 6736.021)">
        <g id="Group_150297-2" data-name="Group 150297" transform="translate(0)">
          <path id="Rectangle_44846-2" data-name="Rectangle 44846" d="M6.674,0H26.8a6.675,6.675,0,0,1,6.675,6.675V26.8A6.674,6.674,0,0,1,26.8,33.473H6.675A6.675,6.675,0,0,1,0,26.8V6.674A6.674,6.674,0,0,1,6.674,0Z" transform="translate(0.238 23.907) rotate(-45)" fill="#fff"/>
          <path id="Path_204181-2" data-name="Path 204181" d="M63.447,33.888,44.475,14.917a4.95,4.95,0,0,0-6.986,0L18.518,33.888a4.95,4.95,0,0,0,0,6.986L37.489,59.845a4.949,4.949,0,0,0,6.986,0L63.447,40.874a4.95,4.95,0,0,0,0-6.986Zm-2.289,4.7L42.187,57.557a1.713,1.713,0,0,1-2.409,0L20.806,38.586a1.713,1.713,0,0,1,0-2.409L39.778,17.205a1.714,1.714,0,0,1,2.409,0L61.158,36.177a1.713,1.713,0,0,1,0,2.409Z" transform="translate(-17.075 -13.474)" fill="#ed1c24" fill-rule="evenodd"/>
        </g>
        <g id="Group_150298-2" data-name="Group 150298" transform="translate(11.132 8.557)">
          <path id="Path_204182-2" data-name="Path 204182" d="M62.714,54.633c-.217,1.412-1.235,2.219.878,2.219s1.1-.807.878-2.219c-.064-.418-.41-1.125-.878-1.11C63.124,53.507,62.778,54.215,62.714,54.633Z" transform="translate(-50.914 -42.148)"/>
          <path id="Path_204183-2" data-name="Path 204183" d="M51.294,42.481c-.285,2.465,1.449,2.443,2.361,2.271a10.658,10.658,0,0,1-.017,2.015,2.509,2.509,0,0,0,.255,1.834A6.946,6.946,0,0,0,57.9,50.453,6.989,6.989,0,0,0,61.91,48.6c.661-.891.027-2.743.217-3.854.909.174,2.662.21,2.376-2.268-.18-1.555-.871-1.647-.189-3.238a5.9,5.9,0,0,0-3.69-8.191,9.62,9.62,0,0,0-2.689-.384,9.29,9.29,0,0,0-2.764.384,6,6,0,0,0-3.69,8.191C52.134,40.846,51.473,40.925,51.294,42.481Zm10.144,5.772A6.261,6.261,0,0,1,57.9,49.864a6.492,6.492,0,0,1-3.534-1.609,1.927,1.927,0,0,1-.142-1.44,8.344,8.344,0,0,0,.105-2.109,1.361,1.361,0,0,1,.525.783A5.908,5.908,0,0,1,55,47.057h0a.294.294,0,0,0,.169.266,6.113,6.113,0,0,0,5.424.011.3.3,0,0,0,.2-.277,5.93,5.93,0,0,1,.149-1.569,1.387,1.387,0,0,1,.492-.761C61.237,45.922,61.837,47.651,61.438,48.253ZM55.357,31.609a9.625,9.625,0,0,1,2.579-.359,7.935,7.935,0,0,1,2.5.359,5.366,5.366,0,0,1,3.871,5.374c-.015,1.446-.612,1.956-.781,2.936a3.706,3.706,0,0,1-.212-2.365c.083-.378-.4-.393-.443-.007a5.872,5.872,0,0,0,.011,1.753c.163.938,2.364,4.669.171,4.922-.818.095-1.316-.294-1.583-.186-1.153.468-1.26,1.731-1.271,2.833a5.508,5.508,0,0,1-4.61,0c-.01-1.071-.12-2.4-1.284-2.838a.292.292,0,0,0-.189-.005h0a3.516,3.516,0,0,1-1.38.2c-2.171-.25-.028-3.935.124-4.874a6.086,6.086,0,0,0,.057-1.8c-.042-.385-.457-.349-.415.036a6.624,6.624,0,0,1-.24,2.337,3.918,3.918,0,0,0-.227-.861C50.769,35.95,52.077,32.564,55.357,31.609Z" transform="translate(-45.242 -30.668)"/>
          <path id="Path_204184-2" data-name="Path 204184" d="M57.632,51.5c1.2-.437,2.1-.9,2.161-2.525.037-1.025-2.914-.34-3.471-.2-.489.125-.665.365-.679.7v.081a3.8,3.8,0,0,0,.226.96A1.484,1.484,0,0,0,57.632,51.5Z" transform="translate(-47.581 -39.586)"/>
          <path id="Path_204185-2" data-name="Path 204185" d="M68.015,51.5a1.484,1.484,0,0,0,1.763-.98A3.927,3.927,0,0,0,70,49.571v-.1c-.014-.333-.193-.571-.679-.7-.557-.143-3.508-.828-3.471.2C65.912,50.6,66.818,51.062,68.015,51.5Z" transform="translate(-52.71 -39.586)"/>
          <path id="Path_204186-2" data-name="Path 204186" d="M64.988,62.943a2.47,2.47,0,0,0-.325-1,.84.84,0,0,0-.507-.343,1.69,1.69,0,0,0-.042-.959,1.744,1.744,0,0,0-.265-.513,1.194,1.194,0,0,0-.454-.373,1,1,0,0,0-.742-.032,2.693,2.693,0,0,0-1.641,1.506,2.715,2.715,0,0,1-.931,1.106c-1.3.8-3.175,1.711-4.819,2.509-.549.267-1.072.521-1.593.781h0l-.444.227c-.308.158-.644.331-1,.5-.419-.207-.818-.406-1.174-.584l-.282-.141h0c-.288-.144-.576-.286-.87-.429l-.725-.353c-1.643-.8-3.519-1.708-4.817-2.508a2.719,2.719,0,0,1-.931-1.106,2.691,2.691,0,0,0-1.641-1.506,1,1,0,0,0-.741.032,1.2,1.2,0,0,0-.454.374,1.752,1.752,0,0,0-.265.514,1.684,1.684,0,0,0-.042.959.841.841,0,0,0-.508.343,2.462,2.462,0,0,0-.324,1,1.756,1.756,0,0,0,.191.951c.449.876,1.589.787,2.463.719.168-.013.326-.025.439-.029.593-.017,4.769,2.065,6.858,3.107l.017.009c-.467.221-.9.412-1.272.556a3.755,3.755,0,0,1-.96.292c-.113,0-.271-.016-.44-.029-.874-.069-2.014-.157-2.463.719a1.756,1.756,0,0,0-.191.951,2.46,2.46,0,0,0,.325,1,.838.838,0,0,0,.507.344,1.688,1.688,0,0,0,.042.959,1.765,1.765,0,0,0,.265.514,1.2,1.2,0,0,0,.454.373,1,1,0,0,0,.742.032,2.69,2.69,0,0,0,1.64-1.506A2.718,2.718,0,0,1,49,70.8c.529-.326,1.071-.631,1.622-.923.534-.283,1.057-.545,1.579-.8l.014-.007c1.129.556,2.254,1.135,3.223,1.732a2.712,2.712,0,0,1,.931,1.106,2.69,2.69,0,0,0,1.641,1.505,1,1,0,0,0,.741-.032,1.2,1.2,0,0,0,.454-.373,1.749,1.749,0,0,0,.265-.514,1.682,1.682,0,0,0,.042-.958.841.841,0,0,0,.508-.344,2.469,2.469,0,0,0,.324-1,1.756,1.756,0,0,0-.191-.951c-.449-.876-1.589-.787-2.463-.719-.168.013-.326.025-.438.029a9.715,9.715,0,0,1-2.232-.856c2.231-1.111,6.315-3.125,6.875-3.108.113,0,.271.016.439.029.874.068,2.014.157,2.463-.719A1.762,1.762,0,0,0,64.988,62.943ZM50.347,69.357c-.555.295-1.108.605-1.657.944a3.189,3.189,0,0,0-1.136,1.318,2.206,2.206,0,0,1-1.309,1.234.426.426,0,0,1-.318-.009.61.61,0,0,1-.228-.194,1.152,1.152,0,0,1-.173-.338,1,1,0,0,1-.014-.673l.006-.015a2.33,2.33,0,0,0,.715-.076.294.294,0,1,0-.173-.562,1.987,1.987,0,0,1-.772.027.716.716,0,0,1-.358-.108,1.883,1.883,0,0,1-.25-.76,1.182,1.182,0,0,1,.126-.64c.27-.526,1.189-.454,1.9-.4.16.012.31.024.467.029a3.93,3.93,0,0,0,1.19-.331c.493-.193,1.095-.463,1.727-.774.328.162.652.32.977.477l.485.236C51.14,68.947,50.736,69.151,50.347,69.357Zm6.92-.221c.158,0,.307-.016.466-.029.706-.055,1.627-.127,1.9.4a1.182,1.182,0,0,1,.126.64,1.884,1.884,0,0,1-.251.76.709.709,0,0,1-.357.108,1.98,1.98,0,0,1-.772-.027.294.294,0,1,0-.173.562,2.334,2.334,0,0,0,.715.076l.006.015a.991.991,0,0,1-.014.672,1.167,1.167,0,0,1-.173.338.618.618,0,0,1-.228.194.428.428,0,0,1-.318.009,2.206,2.206,0,0,1-1.309-1.234A3.182,3.182,0,0,0,55.746,70.3c-1.332-.821-2.923-1.594-4.426-2.323l-1.019-.5a.284.284,0,0,0-.141-.07l-.263-.129-.051-.026-.021-.011-.162-.081C47.53,66.1,43.269,63.974,42.526,64c-.158,0-.307.016-.466.029-.707.055-1.627.127-1.9-.4a1.184,1.184,0,0,1-.126-.641,1.884,1.884,0,0,1,.251-.76.709.709,0,0,1,.357-.107,1.979,1.979,0,0,1,.772.027.294.294,0,0,0,.173-.562,2.334,2.334,0,0,0-.715-.076l-.006-.016a1,1,0,0,1,.014-.672,1.153,1.153,0,0,1,.173-.338.611.611,0,0,1,.228-.194.426.426,0,0,1,.318-.009,2.207,2.207,0,0,1,1.309,1.234,3.188,3.188,0,0,0,1.135,1.318c1.33.82,3.216,1.735,4.87,2.538l.981.478c.219.108.424.208.608.3h0l.282.141C52.915,67.349,56.537,69.157,57.267,69.136Zm7.007-5.509c-.269.526-1.189.453-1.9.4-.159-.012-.309-.024-.467-.029-.746-.022-5.444,2.315-7.573,3.377-.474-.224-.965-.462-1.447-.7.21-.1.412-.207.6-.3.115-.059.224-.115.439-.222h0c.439-.22,1-.491,1.586-.776,1.654-.8,3.541-1.719,4.872-2.539a3.189,3.189,0,0,0,1.136-1.318,2.206,2.206,0,0,1,1.308-1.234.43.43,0,0,1,.318.009.62.62,0,0,1,.228.194,1.152,1.152,0,0,1,.173.338.994.994,0,0,1,.014.672l-.006.016a2.334,2.334,0,0,0-.715.076.294.294,0,0,0,.173.562,1.979,1.979,0,0,1,.772-.027.709.709,0,0,1,.357.107,1.886,1.886,0,0,1,.251.761A1.183,1.183,0,0,1,64.273,63.626Z" transform="translate(-39.444 -45.233)"/>
        </g>
      </g>
      <g id="Group_150302" data-name="Group 150302" transform="translate(698.31 6562.458)">
        <g id="Group_150300" data-name="Group 150300">
          <path id="Path_204187" data-name="Path 204187" d="M234.414,36.665l18.971-18.971a3.331,3.331,0,0,1,4.7,0l18.971,18.971a3.331,3.331,0,0,1,0,4.7L258.083,60.334a3.332,3.332,0,0,1-4.7,0L234.414,41.363A3.329,3.329,0,0,1,234.414,36.665Z" transform="translate(-231.826 -15.107)" fill="#fff" fill-rule="evenodd"/>
          <path id="Path_204188" data-name="Path 204188" d="M276.565,33.888,257.594,14.917a4.95,4.95,0,0,0-6.986,0L231.636,33.888a4.95,4.95,0,0,0,0,6.986l18.972,18.971a4.948,4.948,0,0,0,6.986,0l18.971-18.971a4.95,4.95,0,0,0,0-6.986Zm-2.288,4.7L255.3,57.557a1.712,1.712,0,0,1-2.409,0L233.925,38.586a1.712,1.712,0,0,1,0-2.409L252.9,17.205a1.713,1.713,0,0,1,2.409,0l18.972,18.971a1.713,1.713,0,0,1,0,2.409Z" transform="translate(-230.193 -13.474)" fill="#ed1c24" fill-rule="evenodd"/>
        </g>
        <g id="Group_150301" data-name="Group 150301" transform="translate(11.795 8.547)">
          <path id="Path_204189" data-name="Path 204189" d="M274.589,49.546c-.333-2.376,4.256-3.442,1.917-7.5,0,1.905-2.453,1.245-3.276,2.958-.546-3.636,2.989-5.613-1.242-9.979.416,2.981-1.316,2.805-2.208,6.153,1.078-6.258-1.825-9.15-4.542-10.524,1.053,4.864-2.878,4.783-2.416,10.2-.891-3.347-2.9-3.3-2.619-5.959C255.9,39,260.14,40.723,258.78,45c-1.029-1.519-3.342-.988-3.276-2.958-3.639,4,1.91,5.126,1.78,7.182-1.739-.284-1.592-1.183-3.391-.34,2.05.884,1.233,5.883,8.77,7.011a12.771,12.771,0,0,1-2.116-1.034c-1.135-.7-1.661-1.641-2.818-2.326,1.4-.586,2.2-.008,3.645.017-.031-1.754-3.011-1.151-2.574-4.144.835,1.259,2.5,0,3.415,1.492.732-2.474-2.166-1.565-.952-5.423.2,1.831,2.278,1.177,2.6,2.376a5.994,5.994,0,0,0,1.6-3.622,22.035,22.035,0,0,1,.679-3.613c-.111,1.309,1.02,2.659,1.146,3.483.211,1.374-.27,2.585.556,3.65.772-1.686,2.551-.546,2.842-2.4,1.214,3.858-1.282,2.63-.55,5.1.708-.974,2.445-.232,3.076-1.044.438,2.993-2.475,1.941-2.506,3.7a7.191,7.191,0,0,1,3.577.431c-1.157.685-1.684,1.627-2.818,2.326a12.744,12.744,0,0,1-2.126,1.038c7.547-1.113,6.729-6.073,8.779-7.014C276.318,48.039,276.054,49,274.589,49.546Z" transform="translate(-253.893 -30.648)" fill-rule="evenodd"/>
          <rect id="Rectangle_44847" data-name="Rectangle 44847" width="13.43" height="1.535" transform="translate(5.397 26.473)"/>
        </g>
      </g>
      <g id="Group_150312" data-name="Group 150312" transform="translate(642.998 6617.769)">
        <g id="Group_150300-2" data-name="Group 150300">
          <path id="Path_204187-2" data-name="Path 204187" d="M234.414,36.665l18.971-18.971a3.331,3.331,0,0,1,4.7,0l18.971,18.971a3.331,3.331,0,0,1,0,4.7L258.083,60.334a3.332,3.332,0,0,1-4.7,0L234.414,41.363A3.329,3.329,0,0,1,234.414,36.665Z" transform="translate(-231.826 -15.107)" fill="#fff" fill-rule="evenodd"/>
          <path id="Path_204188-2" data-name="Path 204188" d="M276.565,33.888,257.594,14.917a4.95,4.95,0,0,0-6.986,0L231.636,33.888a4.95,4.95,0,0,0,0,6.986l18.972,18.971a4.948,4.948,0,0,0,6.986,0l18.971-18.971a4.95,4.95,0,0,0,0-6.986Zm-2.288,4.7L255.3,57.557a1.712,1.712,0,0,1-2.409,0L233.925,38.586a1.712,1.712,0,0,1,0-2.409L252.9,17.205a1.713,1.713,0,0,1,2.409,0l18.972,18.971a1.713,1.713,0,0,1,0,2.409Z" transform="translate(-230.193 -13.474)" fill="#ed1c24" fill-rule="evenodd"/>
        </g>
        <g id="Group_150301-2" data-name="Group 150301" transform="translate(11.795 8.547)">
          <path id="Path_204189-2" data-name="Path 204189" d="M274.589,49.546c-.333-2.376,4.256-3.442,1.917-7.5,0,1.905-2.453,1.245-3.276,2.958-.546-3.636,2.989-5.613-1.242-9.979.416,2.981-1.316,2.805-2.208,6.153,1.078-6.258-1.825-9.15-4.542-10.524,1.053,4.864-2.878,4.783-2.416,10.2-.891-3.347-2.9-3.3-2.619-5.959C255.9,39,260.14,40.723,258.78,45c-1.029-1.519-3.342-.988-3.276-2.958-3.639,4,1.91,5.126,1.78,7.182-1.739-.284-1.592-1.183-3.391-.34,2.05.884,1.233,5.883,8.77,7.011a12.771,12.771,0,0,1-2.116-1.034c-1.135-.7-1.661-1.641-2.818-2.326,1.4-.586,2.2-.008,3.645.017-.031-1.754-3.011-1.151-2.574-4.144.835,1.259,2.5,0,3.415,1.492.732-2.474-2.166-1.565-.952-5.423.2,1.831,2.278,1.177,2.6,2.376a5.994,5.994,0,0,0,1.6-3.622,22.035,22.035,0,0,1,.679-3.613c-.111,1.309,1.02,2.659,1.146,3.483.211,1.374-.27,2.585.556,3.65.772-1.686,2.551-.546,2.842-2.4,1.214,3.858-1.282,2.63-.55,5.1.708-.974,2.445-.232,3.076-1.044.438,2.993-2.475,1.941-2.506,3.7a7.191,7.191,0,0,1,3.577.431c-1.157.685-1.684,1.627-2.818,2.326a12.744,12.744,0,0,1-2.126,1.038c7.547-1.113,6.729-6.073,8.779-7.014C276.318,48.039,276.054,49,274.589,49.546Z" transform="translate(-253.893 -30.648)" fill-rule="evenodd"/>
          <rect id="Rectangle_44847-2" data-name="Rectangle 44847" width="13.43" height="1.535" transform="translate(5.397 26.473)"/>
        </g>
      </g>
      <g id="Group_150304" data-name="Group 150304" transform="translate(875.688 6562.458)">
        <g id="Group_150303" data-name="Group 150303">
          <path id="Path_204190" data-name="Path 204190" d="M234.414,145.658l18.971-18.971a3.331,3.331,0,0,1,4.7,0l18.971,18.971a3.331,3.331,0,0,1,0,4.7l-18.971,18.971a3.331,3.331,0,0,1-4.7,0l-18.971-18.971A3.329,3.329,0,0,1,234.414,145.658Z" transform="translate(-231.826 -124.1)" fill="#fff" fill-rule="evenodd"/>
          <path id="Path_204191" data-name="Path 204191" d="M276.565,142.88l-18.971-18.971a4.95,4.95,0,0,0-6.986,0L231.636,142.88a4.95,4.95,0,0,0,0,6.986l18.972,18.971a4.948,4.948,0,0,0,6.986,0l18.971-18.971a4.95,4.95,0,0,0,0-6.986Zm-2.288,4.7L255.3,166.549a1.712,1.712,0,0,1-2.409,0l-18.971-18.971a1.711,1.711,0,0,1,0-2.409L252.9,126.2a1.712,1.712,0,0,1,2.409,0l18.972,18.971a1.712,1.712,0,0,1,0,2.409Z" transform="translate(-230.193 -122.466)" fill="#ed1c24" fill-rule="evenodd"/>
        </g>
        <path id="Path_204192" data-name="Path 204192" d="M278.2,144.63l-1.242,15.812a1.235,1.235,0,0,1-1.233,1.14h-.619a1.235,1.235,0,0,1-1.233-1.14L272.63,144.63c0-.029,0-.056,0-.085v-.321c.174-3.122,5.414-3.119,5.579.009v.308c0,.029,0,.058,0,.089Zm-2.785,18.708A2.664,2.664,0,1,1,272.751,166,2.665,2.665,0,0,1,275.414,163.339Z" transform="translate(-251.508 -132.221)" fill-rule="evenodd"/>
      </g>
      <g id="Group_150309" data-name="Group 150309" transform="translate(642.999 6795.146)">
        <g id="Group_150303-2" data-name="Group 150303">
          <path id="Path_204190-2" data-name="Path 204190" d="M234.414,145.658l18.971-18.971a3.331,3.331,0,0,1,4.7,0l18.971,18.971a3.331,3.331,0,0,1,0,4.7l-18.971,18.971a3.331,3.331,0,0,1-4.7,0l-18.971-18.971A3.329,3.329,0,0,1,234.414,145.658Z" transform="translate(-231.826 -124.1)" fill="#fff" fill-rule="evenodd"/>
          <path id="Path_204191-2" data-name="Path 204191" d="M276.565,142.88l-18.971-18.971a4.95,4.95,0,0,0-6.986,0L231.636,142.88a4.95,4.95,0,0,0,0,6.986l18.972,18.971a4.948,4.948,0,0,0,6.986,0l18.971-18.971a4.95,4.95,0,0,0,0-6.986Zm-2.288,4.7L255.3,166.549a1.712,1.712,0,0,1-2.409,0l-18.971-18.971a1.711,1.711,0,0,1,0-2.409L252.9,126.2a1.712,1.712,0,0,1,2.409,0l18.972,18.971a1.712,1.712,0,0,1,0,2.409Z" transform="translate(-230.193 -122.466)" fill="#ed1c24" fill-rule="evenodd"/>
        </g>
        <path id="Path_204192-2" data-name="Path 204192" d="M278.2,144.63l-1.242,15.812a1.235,1.235,0,0,1-1.233,1.14h-.619a1.235,1.235,0,0,1-1.233-1.14L272.63,144.63c0-.029,0-.056,0-.085v-.321c.174-3.122,5.414-3.119,5.579.009v.308c0,.029,0,.058,0,.089Zm-2.785,18.708A2.664,2.664,0,1,1,272.751,166,2.665,2.665,0,0,1,275.414,163.339Z" transform="translate(-251.508 -132.221)" fill-rule="evenodd"/>
      </g>
      <g id="Group_150308" data-name="Group 150308" transform="translate(757.436 6562.458)">
        <g id="Group_150307" data-name="Group 150307">
          <g id="Group_150305" data-name="Group 150305">
            <path id="Path_204193" data-name="Path 204193" d="M-125,36.665l18.971-18.971a3.331,3.331,0,0,1,4.7,0l18.971,18.971a3.331,3.331,0,0,1,0,4.7l-18.971,18.971a3.332,3.332,0,0,1-4.7,0L-125,41.363A3.329,3.329,0,0,1-125,36.665Z" transform="translate(127.592 -15.107)" fill="#fff" fill-rule="evenodd"/>
            <path id="Path_204194" data-name="Path 204194" d="M-82.853,33.888l-18.971-18.971a4.927,4.927,0,0,0-3.494-1.443,4.925,4.925,0,0,0-3.492,1.443l-18.972,18.971a4.929,4.929,0,0,0-1.443,3.493,4.929,4.929,0,0,0,1.443,3.493l18.972,18.971a4.923,4.923,0,0,0,3.492,1.443,4.926,4.926,0,0,0,3.494-1.443l18.971-18.971a4.929,4.929,0,0,0,1.443-3.493A4.929,4.929,0,0,0-82.853,33.888Zm-2.288,4.7-18.972,18.971a1.694,1.694,0,0,1-1.2.5,1.7,1.7,0,0,1-1.2-.5l-18.971-18.971a1.7,1.7,0,0,1-.5-1.2,1.7,1.7,0,0,1,.5-1.2l18.971-18.971a1.7,1.7,0,0,1,1.2-.495,1.7,1.7,0,0,1,1.2.495l18.972,18.971a1.7,1.7,0,0,1,.5,1.2A1.7,1.7,0,0,1-85.142,38.586Z" transform="translate(129.225 -13.474)" fill="#ed1c24" fill-rule="evenodd"/>
          </g>
          <g id="Group_150306" data-name="Group 150306" transform="translate(11.795 8.547)">
            <path id="Path_204195" data-name="Path 204195" d="M-84.829,49.546c-.333-2.376,4.256-3.442,1.917-7.5,0,1.905-2.453,1.245-3.276,2.958-.546-3.636,2.989-5.613-1.242-9.979.416,2.981-1.316,2.805-2.208,6.153,1.078-6.258-1.824-9.15-4.542-10.524,1.053,4.864-2.878,4.783-2.416,10.2-.891-3.347-2.9-3.3-2.619-5.959-4.3,4.11-.063,5.834-1.423,10.109-1.029-1.519-3.342-.988-3.276-2.958-3.64,4,1.91,5.126,1.78,7.182-1.739-.284-1.592-1.183-3.391-.34,2.05.884,1.233,5.883,8.77,7.011a12.771,12.771,0,0,1-2.116-1.034c-1.135-.7-1.661-1.641-2.818-2.326,1.4-.586,2.2-.008,3.645.017-.031-1.754-3.011-1.151-2.574-4.144.835,1.259,2.5,0,3.415,1.492.732-2.474-2.166-1.565-.952-5.423.2,1.831,2.278,1.177,2.6,2.376a5.994,5.994,0,0,0,1.6-3.622,22.031,22.031,0,0,1,.679-3.613c-.111,1.309,1.02,2.659,1.146,3.483.211,1.374-.27,2.585.556,3.65.772-1.686,2.551-.546,2.842-2.4,1.214,3.858-1.282,2.63-.55,5.1.708-.974,2.445-.232,3.076-1.044.438,2.993-2.475,1.941-2.506,3.7a7.191,7.191,0,0,1,3.577.431c-1.157.685-1.684,1.627-2.818,2.326A12.745,12.745,0,0,1-90.08,55.9c7.547-1.113,6.729-6.073,8.779-7.014C-83.1,48.039-83.364,49-84.829,49.546Z" transform="translate(105.525 -30.648)" fill-rule="evenodd"/>
            <rect id="Rectangle_44848" data-name="Rectangle 44848" width="13.43" height="1.535" transform="translate(5.397 26.473)"/>
          </g>
        </g>
        <circle id="Ellipse_4085" data-name="Ellipse 4085" cx="5.806" cy="5.806" r="5.806" transform="translate(18.437 23.577)" fill="#fff" stroke="#000" stroke-miterlimit="10" stroke-width="3"/>
      </g>
      <g id="Group_150311" data-name="Group 150311" transform="translate(642.998 6676.895)">
        <g id="Group_150307-2" data-name="Group 150307">
          <g id="Group_150305-2" data-name="Group 150305">
            <path id="Path_204193-2" data-name="Path 204193" d="M-125,36.665l18.971-18.971a3.331,3.331,0,0,1,4.7,0l18.971,18.971a3.331,3.331,0,0,1,0,4.7l-18.971,18.971a3.332,3.332,0,0,1-4.7,0L-125,41.363A3.329,3.329,0,0,1-125,36.665Z" transform="translate(127.592 -15.107)" fill="#fff" fill-rule="evenodd"/>
            <path id="Path_204194-2" data-name="Path 204194" d="M-82.853,33.888l-18.971-18.971a4.927,4.927,0,0,0-3.494-1.443,4.925,4.925,0,0,0-3.492,1.443l-18.972,18.971a4.929,4.929,0,0,0-1.443,3.493,4.929,4.929,0,0,0,1.443,3.493l18.972,18.971a4.923,4.923,0,0,0,3.492,1.443,4.926,4.926,0,0,0,3.494-1.443l18.971-18.971a4.929,4.929,0,0,0,1.443-3.493A4.929,4.929,0,0,0-82.853,33.888Zm-2.288,4.7-18.972,18.971a1.694,1.694,0,0,1-1.2.5,1.7,1.7,0,0,1-1.2-.5l-18.971-18.971a1.7,1.7,0,0,1-.5-1.2,1.7,1.7,0,0,1,.5-1.2l18.971-18.971a1.7,1.7,0,0,1,1.2-.495,1.7,1.7,0,0,1,1.2.495l18.972,18.971a1.7,1.7,0,0,1,.5,1.2A1.7,1.7,0,0,1-85.142,38.586Z" transform="translate(129.225 -13.474)" fill="#ed1c24" fill-rule="evenodd"/>
          </g>
          <g id="Group_150306-2" data-name="Group 150306" transform="translate(11.795 8.547)">
            <path id="Path_204195-2" data-name="Path 204195" d="M-84.829,49.546c-.333-2.376,4.256-3.442,1.917-7.5,0,1.905-2.453,1.245-3.276,2.958-.546-3.636,2.989-5.613-1.242-9.979.416,2.981-1.316,2.805-2.208,6.153,1.078-6.258-1.824-9.15-4.542-10.524,1.053,4.864-2.878,4.783-2.416,10.2-.891-3.347-2.9-3.3-2.619-5.959-4.3,4.11-.063,5.834-1.423,10.109-1.029-1.519-3.342-.988-3.276-2.958-3.64,4,1.91,5.126,1.78,7.182-1.739-.284-1.592-1.183-3.391-.34,2.05.884,1.233,5.883,8.77,7.011a12.771,12.771,0,0,1-2.116-1.034c-1.135-.7-1.661-1.641-2.818-2.326,1.4-.586,2.2-.008,3.645.017-.031-1.754-3.011-1.151-2.574-4.144.835,1.259,2.5,0,3.415,1.492.732-2.474-2.166-1.565-.952-5.423.2,1.831,2.278,1.177,2.6,2.376a5.994,5.994,0,0,0,1.6-3.622,22.031,22.031,0,0,1,.679-3.613c-.111,1.309,1.02,2.659,1.146,3.483.211,1.374-.27,2.585.556,3.65.772-1.686,2.551-.546,2.842-2.4,1.214,3.858-1.282,2.63-.55,5.1.708-.974,2.445-.232,3.076-1.044.438,2.993-2.475,1.941-2.506,3.7a7.191,7.191,0,0,1,3.577.431c-1.157.685-1.684,1.627-2.818,2.326A12.745,12.745,0,0,1-90.08,55.9c7.547-1.113,6.729-6.073,8.779-7.014C-83.1,48.039-83.364,49-84.829,49.546Z" transform="translate(105.525 -30.648)" fill-rule="evenodd"/>
            <rect id="Rectangle_44848-2" data-name="Rectangle 44848" width="13.43" height="1.535" transform="translate(5.397 26.473)"/>
          </g>
        </g>
        <circle id="Ellipse_4085-2" data-name="Ellipse 4085" cx="5.806" cy="5.806" r="5.806" transform="translate(18.437 23.577)" fill="#fff" stroke="#000" stroke-miterlimit="10" stroke-width="3"/>
      </g>
      <path id="Path_204196" data-name="Path 204196" d="M6472.874-5085.948v228.909" transform="translate(-5774.564 11700)" fill="none" stroke="#000" stroke-width="2"/>
      <path id="Path_204197" data-name="Path 204197" d="M6472.874-5085.948v228.909" transform="translate(-5715.438 11700)" fill="none" stroke="#000" stroke-width="2"/>
      <path id="Path_204198" data-name="Path 204198" d="M6472.874-5085.948v228.909" transform="translate(-5656.313 11700)" fill="none" stroke="#000" stroke-width="2"/>
      <path id="Path_204199" data-name="Path 204199" d="M6472.874-5085.948v228.909" transform="translate(-5597.187 11700)" fill="none" stroke="#000" stroke-width="2"/>
      <path id="Path_204200" data-name="Path 204200" d="M6472.874-5085.948v228.909" transform="translate(-5538.061 11700)" fill="none" stroke="#000" stroke-width="2"/>
      <path id="Path_204201" data-name="Path 204201" d="M0,0V236.5" transform="translate(698.31 6842.961) rotate(-90)" fill="none" stroke="#000" stroke-width="2"/>
      <path id="Path_204202" data-name="Path 204202" d="M0,0V236.5" transform="translate(698.31 6785.734) rotate(-90)" fill="none" stroke="#000" stroke-width="2"/>
      <path id="Path_204203" data-name="Path 204203" d="M0,0V236.5" transform="translate(698.31 6728.507) rotate(-90)" fill="none" stroke="#000" stroke-width="2"/>
      <path id="Path_204204" data-name="Path 204204" d="M0,0V236.5" transform="translate(698.31 6671.28) rotate(-90)" fill="none" stroke="#000" stroke-width="2"/>
      <path id="Path_204205" data-name="Path 204205" d="M0,0V236.5" transform="translate(698.31 6614.052) rotate(-90)" fill="none" stroke="#000" stroke-width="2"/>
    </g>
    <path id="Path_204409" data-name="Path 204409" d="M14,0A14,14,0,1,1,0,14,14,14,0,0,1,14,0Z" transform="translate(981.436 5574)" fill="#ed1c24"/>
    <path id="Path_204410" data-name="Path 204410" d="M14,0A14,14,0,1,1,0,14,14,14,0,0,1,14,0Z" transform="translate(981.436 5685)" fill="#ed1c24"/>
    <path id="Path_204411" data-name="Path 204411" d="M14,0A14,14,0,1,1,0,14,14,14,0,0,1,14,0Z" transform="translate(923.436 5685)" fill="#ed1c24"/>
    <path id="Path_204412" data-name="Path 204412" d="M14,0A14,14,0,1,1,0,14,14,14,0,0,1,14,0Z" transform="translate(923.436 5627)" fill="#ed1c24"/>
    <path id="Path_204405" data-name="Path 204405" d="M14,0A14,14,0,1,1,0,14,14,14,0,0,1,14,0Z" transform="translate(1039.436 5574)" fill="#ed1c24"/>
    <path id="Path_204406" data-name="Path 204406" d="M14,0A14,14,0,1,1,0,14,14,14,0,0,1,14,0Z" transform="translate(1039.436 5627)" fill="#ed1c24"/>
    <path id="Path_204398" data-name="Path 204398" d="M7,0A7,7,0,1,1,0,7,7,7,0,0,1,7,0Z" transform="translate(1188.436 5664)" fill="#ed1c24"/>
  </g>
</svg>
