<svg xmlns="http://www.w3.org/2000/svg" width="48.965" height="48.931" viewBox="0 0 48.965 48.931">
  <g id="Group_150356" data-name="Group 150356" transform="translate(-924.204 177.491)">
    <path id="Path_120993" data-name="Path 120993" d="M969.605-164.222q1.573-1.587,3.16-3.16a1.547,1.547,0,0,0,.4-.626v-5.158c-.131-.546-.594-.6-1.029-.69q-6.016-1.2-12.032-2.406-2.926-.582-5.852-1.168a2.236,2.236,0,0,0-2.246.709c-5.167,5.23-10.381,10.416-15.58,15.615q-5.79,5.79-11.588,11.573a1.88,1.88,0,0,0-.635,1.505c.042,1.335.012,2.673.013,4.01,0,.755.148.949.891,1.11.871.188,1.748.35,2.621.53.136.028.33,0,.385.144.07.181-.133.266-.237.371-1.065,1.073-2.129,2.148-3.209,3.206a1.4,1.4,0,0,0-.459,1.1c.021,1.4.007,2.8.008,4.2,0,.812.139,1.006.945,1.161,6.2,1.2,12.361,2.578,18.586,3.638h.669a1.54,1.54,0,0,0,.625-.411q13.854-13.861,27.715-27.715a1.54,1.54,0,0,0,.411-.624v-5.158c-.087-.4-.391-.545-.75-.622-.883-.189-1.771-.353-2.655-.539-.165-.035-.416,0-.468-.161C969.232-163.989,969.479-164.094,969.605-164.222Zm-4.067-9.248c1.64.356,3.292.661,4.938.988a1.6,1.6,0,0,1,.232.078l-18.644,18.636a26.481,26.481,0,0,1,3.381-9.368,26.708,26.708,0,0,1,4.732-5.889c1.471-1.385,2.949-2.762,4.407-4.161A.925.925,0,0,1,965.538-173.47Zm-5.23-1.043c.91.2,1.825.372,2.821.572-1.01.952-1.939,1.864-2.906,2.732a30.1,30.1,0,0,0-6.963,8.809,27.689,27.689,0,0,0-2.926,9.911,1.674,1.674,0,0,1-.518,1.115c-1.874,1.839-3.72,3.707-5.58,5.56-.129.129-.224.357-.433.337a5.762,5.762,0,0,1-1.023-.2c-.159-.046-.017-.192,0-.283a46.713,46.713,0,0,1,1.688-5.878,51.615,51.615,0,0,1,11.637-18.729q1.789-1.856,3.548-3.74A.6.6,0,0,1,960.308-174.512Zm-4.457-.59a.525.525,0,0,1,.572-.184c.535.135,1.082.22,1.7.34-1.37,1.446-2.7,2.817-3.991,4.218a52.772,52.772,0,0,0-12.858,24.355c-.062.268-.136.389-.432.329-2.265-.461-4.532-.913-6.8-1.37a.67.67,0,0,1-.13-.077c.31-.538.615-1.081.932-1.618a111.684,111.684,0,0,1,17.292-22.276Q954-173.241,955.851-175.1ZM927.04-149.344q13.018-13.014,26.027-26.037c.345-.345.647-.6,1.14-.316-.051.173-.224.275-.356.405A140.951,140.951,0,0,0,943.265-163.9,113.835,113.835,0,0,0,932.5-148.148a.5.5,0,0,1-.653.3c-1.718-.365-3.442-.7-5.306-1.077C926.775-149.119,926.918-149.222,927.04-149.344Zm-.94,4.931c-.194-.037-.315-.081-.312-.32.012-.905,0-1.811,0-2.752,2.224.449,4.41.893,6.6,1.331,3.526.707,7.052,1.416,10.582,2.1.329.064.408.178.4.487-.018.857-.006,1.715-.006,2.6L929.5-143.743C928.369-143.97,927.235-144.2,926.1-144.414Zm16.1,5.119a18.566,18.566,0,0,0-1.6,3.592c-.061.188-.116.277-.364.226-2.186-.451-4.376-.881-6.593-1.322a30.382,30.382,0,0,1,1.382-3.885c.109-.25.22-.336.491-.281,2.173.446,4.347.889,6.525,1.31C942.353-139.594,942.321-139.5,942.2-139.3Zm-12.025-2.49a.538.538,0,0,1,.561-.132c.946.191,1.892.387,2.867.587a32.035,32.035,0,0,0-1.418,4.015c-.05.192-.189.187-.337.158l-5.235-1.051C927.845-139.443,929.018-140.606,930.175-141.785Zm13.192,11.511c-2.174-.434-4.313-.86-6.451-1.289-3.57-.715-7.139-1.438-10.713-2.138-.312-.061-.429-.142-.419-.47.024-.763.012-1.528,0-2.291,0-.224-.006-.33.3-.267q7.429,1.51,14.864,2.988,1.049.21,2.1.4c.191.035.319.076.316.318C943.36-132.115,943.368-131.21,943.368-130.274Zm.869-4.826a.7.7,0,0,1-.818.257,6.335,6.335,0,0,0-1.118-.213c-.224-.033-.241-.137-.177-.323a18.638,18.638,0,0,1,1.766-3.724c.04-.064.065-.158.164-.149.491.044.731-.329,1.017-.615q6.013-6.006,12.021-12.018c.122-.122.237-.252.355-.378-.3,1.218-.629,2.388-.844,3.586a2.156,2.156,0,0,0-.052.328,2.572,2.572,0,0,1-.9,1.845Q949.915-140.833,944.236-135.1Zm27.41-23.022c.006.257-.177.359-.315.5q-10.26,10.266-20.524,20.528c-1.945,1.945-3.889,3.892-5.91,5.915,0-.824,0-1.561,0-2.3,0-.2.188-.284.306-.4q10.107-10.115,20.22-20.225c2.046-2.047,4.091-4.095,6.216-6.222C971.64-159.515,971.629-158.818,971.646-158.121Zm-.933-3.6-12.371,12.383a12.575,12.575,0,0,1,.815-2.786,15.991,15.991,0,0,1,3.571-5.4q2.282-2.275,4.552-4.561a.614.614,0,0,1,.656-.2C968.874-162.081,969.819-161.9,970.714-161.724Zm-24.031,18.056c-.571.571-1.138,1.145-1.786,1.8,0-.805.016-1.488-.008-2.17-.01-.276.172-.393.322-.544q12.861-12.865,25.724-25.726c.211-.211.416-.427.706-.726,0,.832,0,1.554,0,2.276,0,.232-.19.319-.317.446Q959.007-155.989,946.682-143.668Z" transform="translate(0)" fill="#a83b24"/>
  </g>
</svg>
