<svg xmlns="http://www.w3.org/2000/svg" width="48.926" height="48.93" viewBox="0 0 48.926 48.93">
  <g id="Group_150258" data-name="Group 150258" transform="translate(-972.953 -549.708)">
    <path id="Path_120999" data-name="Path 120999" d="M1020.953,569.9a.747.747,0,0,0-.525.807c.008,3.582,0,7.165.014,10.747,0,.4-.064.53-.506.529q-11.105-.025-22.211,0c-.432,0-.513-.116-.512-.525q.019-13.159,0-26.318c0-.4.067-.527.5-.526q11.129.024,22.258,0c.371,0,.467.091.465.464-.015,3.789-.009,7.579-.009,11.368,0,.287-.012.574,0,.86a.691.691,0,0,0,.725.663c.459-.007.7-.308.7-.878,0-5.222-.012-10.445.014-15.667a1.7,1.7,0,0,0-.874-1.721h-25.22a1.458,1.458,0,0,0-.933,1.361c0,.732-.008,1.464,0,2.2a1.163,1.163,0,0,0,.552,1.1c.354.183.383.426.382.759q-.009,10.123,0,20.245,0,3.128,0,6.255c0,.136.077.347-.067.4-.453.16-.614.628-.994.864-1.106.685-2.206,1.38-3.294,2.094-.284.186-.393.139-.567-.139-1.388-2.22-2.795-4.427-4.2-6.638a1.408,1.408,0,0,0-2.268-.526q-3.8,2.4-7.6,4.811a1.42,1.42,0,0,0-.5,2.309c1.393,2.2,2.777,4.4,4.187,6.587.211.328.131.451-.158.632-2.164,1.358-4.315,2.736-6.479,4.093a2.326,2.326,0,0,0-.887.89v.764a1.536,1.536,0,0,0,1.622.872c.872-.055,1.751-.029,2.626-.007a2.243,2.243,0,0,0,1.3-.373q2.832-1.8,5.67-3.592c.67-.425,1.344-.844,2-1.285a.712.712,0,0,0,.261-.992.72.72,0,0,0-1.035-.233c-.083.046-.16.1-.241.153-2.292,1.454-4.619,2.855-6.86,4.383-1.088.742-2.2.378-3.309.418l19.882-12.6a7.818,7.818,0,0,0,.015,1.239.464.464,0,0,1-.262.567c-1.027.633-2.042,1.285-3.061,1.931-1.086.688-2.175,1.371-3.256,2.067a.728.728,0,1,0,.758,1.239c.084-.046.162-.1.242-.152l6.878-4.352c.119-.075.236-.21.382-.143.161.074.08.253.081.382.006,1.194,0,2.388,0,3.582a1.744,1.744,0,0,0,1.888,1.906c.924,0,1.847.005,2.77,0,.235,0,.358.028.4.318a6.579,6.579,0,0,0,12.975.126c.059-.346.186-.456.545-.451,1.608.022,3.216.014,4.824.008a1.681,1.681,0,0,0,1.8-1.684q0-10.2,0-20.4a.764.764,0,0,0-.15-.536A.681.681,0,0,0,1020.953,569.9Zm-39.942,11.627c.925-.621.921-.626,1.511.31.278.441.55.887.844,1.318.135.2.148.316-.085.443-.315.172-.612.378-.932.578-.484-.762-.951-1.513-1.438-2.252C980.778,581.728,980.832,581.651,981.011,581.531Zm8.605,4.588q-3.723,2.345-7.432,4.711c-.234.149-.306.073-.425-.116q-2.078-3.3-4.176-6.588c-.17-.266-.109-.364.127-.5.532-.314,1.057-.64,1.569-.987.2-.138.3-.129.427.087.486.8.99,1.587,1.494,2.374a1.145,1.145,0,0,0,1.814.394c.524-.328,1.041-.667,1.564-1a1.076,1.076,0,0,0,.534-.975,1.258,1.258,0,0,0-.254-.725c-.495-.775-.977-1.559-1.484-2.326-.161-.244-.14-.358.12-.508.549-.316,1.08-.665,1.607-1.016.174-.116.254-.1.366.079q2.116,3.36,4.249,6.71C989.841,585.93,989.8,586,989.616,586.119Zm6.816-34.894c.276-.257.964-.082,1.47-.082q5.273,0,10.547,0c3.85,0,7.7,0,11.549-.009.348,0,.477.068.443.436a6.7,6.7,0,0,0,0,1.192c.03.352-.107.4-.425.4q-11.621-.014-23.241,0c-.348,0-.483-.068-.443-.437C996.385,552.213,996.117,551.518,996.432,551.225Zm4.557,40.075c-.793-.036-1.589-.024-2.383,0-.341.009-.483-.08-.477-.448.018-1.207.01-2.415,0-3.623,0-.218.016-.35.3-.348,1.839.012,3.677.006,5.649.006a6.475,6.475,0,0,0-2.3,3.807C1001.682,591.233,1001.464,591.321,1000.988,591.3Zm12.353,1.1a5.133,5.133,0,1,1-4.863-5.495A5.089,5.089,0,0,1,1013.342,592.4Zm7.094-1.5c0,.285-.106.4-.393.4q-2.481-.01-4.962,0c-.217,0-.318-.061-.352-.275a6.7,6.7,0,0,0-2.375-4.136h4.114c1.209,0,2.417,0,3.626,0,.219,0,.348.013.344.3C1020.423,588.415,1020.427,589.656,1020.435,590.9Zm-.1-5.534c-.282.256-.967.075-1.474.075q-11.009,0-22.017.011c-.415,0-.56-.088-.513-.514a6.489,6.489,0,0,0,0-1.145c-.02-.292.065-.375.364-.371,1.4.017,2.8.008,4.2.008h7.5c3.869,0,7.737.006,11.606-.009.357,0,.476.081.437.441C1020.382,584.374,1020.654,585.07,1020.333,585.362Z" fill="#a83b24"/>
    <path id="Path_121000" data-name="Path 121000" d="M974.11,870.23q2.112-1.336,4.223-2.673a.744.744,0,0,0,.076-1.241.729.729,0,0,0-.886.023q-2.088,1.33-4.181,2.653a1.445,1.445,0,0,0-.39.408v.573C973.285,870.3,973.639,870.528,974.11,870.23Z" transform="translate(0 -276.034)" fill="#a83b24"/>
    <path id="Path_121001" data-name="Path 121001" d="M974.284,851.909q1.285-.809,2.565-1.626c.472-.3.592-.686.354-1.076a.734.734,0,0,0-1.117-.165c-.845.529-1.68,1.074-2.527,1.6a2.446,2.446,0,0,0-.606.5v.573C973.421,852.266,973.66,852.3,974.284,851.909Z" transform="translate(0 -260.934)" fill="#a83b24"/>
    <path id="Path_121002" data-name="Path 121002" d="M973.982,833.809c.606-.342,1.2-.719,1.769-1.114a.7.7,0,0,0,.158-.974.655.655,0,0,0-.919-.228,12.476,12.476,0,0,0-2.036,1.355v.573C973.208,833.787,973.523,834.068,973.982,833.809Z" transform="translate(0 -245.692)" fill="#a83b24"/>
    <path id="Path_121003" data-name="Path 121003" d="M1290.191,598.938a.721.721,0,0,0-.81-.736c-.464.039-.668.347-.668,1.026q0,11.363,0,22.726a2.256,2.256,0,0,0,.042.472.656.656,0,0,0,.676.556.688.688,0,0,0,.716-.514,1.641,1.641,0,0,0,.046-.567q0-5.634,0-11.268,0-5.443,0-10.886C1290.2,599.479,1290.21,599.208,1290.191,598.938Z" transform="translate(-275.416 -42.295)" fill="#a83b24"/>
    <path id="Path_121004" data-name="Path 121004" d="M1208.561,598.71a.673.673,0,0,0-.664-.513.681.681,0,0,0-.719.5,1.62,1.62,0,0,0-.05.566q0,5.658,0,11.315,0,5.634,0,11.268c0,.786.242,1.146.761,1.134.5-.012.724-.36.724-1.125q0-11.268,0-22.535A1.89,1.89,0,0,0,1208.561,598.71Z" transform="translate(-204.252 -42.294)" fill="#a83b24"/>
    <path id="Path_121005" data-name="Path 121005" d="M1181.474,598.845a.657.657,0,0,0-.687-.643c-.493-.02-.745.3-.745.935q0,11.458,0,22.915a1.585,1.585,0,0,0,.009.333.691.691,0,0,0,.648.6.669.669,0,0,0,.746-.464,1.739,1.739,0,0,0,.039-.567q0-5.657,0-11.314t0-11.314A4.193,4.193,0,0,0,1181.474,598.845Z" transform="translate(-180.626 -42.297)" fill="#a83b24"/>
    <path id="Path_121006" data-name="Path 121006" d="M1235.956,598.855a.712.712,0,0,0-.835-.647c-.419.053-.607.329-.607.918q0,5.7,0,11.41,0,5.657,0,11.314a4.941,4.941,0,0,0,.014.525.635.635,0,0,0,.532.589.7.7,0,0,0,.786-.31,1.05,1.05,0,0,0,.114-.645q0-11.41,0-22.819A2.9,2.9,0,0,0,1235.956,598.855Z" transform="translate(-228.142 -42.297)" fill="#a83b24"/>
    <path id="Path_121007" data-name="Path 121007" d="M1261.579,622.337a.715.715,0,0,0,.748.651.662.662,0,0,0,.685-.652c.014-.158.013-.318.013-.477q0-11.266,0-22.533a4.6,4.6,0,0,0-.013-.477.654.654,0,0,0-.686-.646.707.707,0,0,0-.748.646,3.152,3.152,0,0,0-.005.381q0,5.681,0,11.362,0,5.657,0,11.314A3.594,3.594,0,0,0,1261.579,622.337Z" transform="translate(-251.741 -42.299)" fill="#a83b24"/>
    <path id="Path_121008" data-name="Path 121008" d="M1316.078,622.253a.658.658,0,0,0,.591.59c.515.081.837-.256.837-.879q0-5.729,0-11.458,0-4.034,0-8.068c0-1.193,0-2.387,0-3.58a.721.721,0,0,0-.979-.752c-.4.159-.462.5-.462.9q.009,11.458,0,22.915A2.11,2.11,0,0,0,1316.078,622.253Z" transform="translate(-299.273 -42.166)" fill="#a83b24"/>
    <path id="Path_121009" data-name="Path 121009" d="M986,677.445c.661,1.071,1.216,1.207,2.272.558q2.817-1.731,5.635-3.462c.35-.214.746-.629,1.049-.572.357.068.475.656.718,1,.036.052.069.107.1.16a1.194,1.194,0,0,0,1.205.6,1.151,1.151,0,0,0,1.011-.754c.888-2.1,1.78-4.194,2.647-6.3a1.223,1.223,0,0,0-1.069-1.725c-2.252-.17-4.506-.316-6.759-.471a1.2,1.2,0,0,0-1.2.6,1.229,1.229,0,0,0,.052,1.35,6.9,6.9,0,0,0,.5.807c.293.347.15.49-.177.688-2.157,1.308-4.3,2.634-6.451,3.957a1.291,1.291,0,0,0-.479,2.013C985.368,676.42,985.685,676.932,986,677.445Zm.4-2.3c.1-.35.761-.545,1.179-.8q2.835-1.744,5.672-3.485a1.156,1.156,0,0,0,.457-1.865l-.627-1.027,6.1.432-2.371,5.643c-.255-.417-.463-.765-.68-1.107a1.125,1.125,0,0,0-1.741-.4c-2.2,1.35-4.41,2.7-6.6,4.07-.346.216-.534.236-.715-.161C986.871,675.98,986.292,675.542,986.4,675.143Z" transform="translate(-10.302 -101.851)" fill="#a83b24"/>
    <path id="Path_121010" data-name="Path 121010" d="M1226.745,855.546a3.246,3.246,0,1,0,.019,6.492,3.246,3.246,0,0,0-.019-6.492Zm.006,5.054a1.8,1.8,0,1,1,1.793-1.8A1.826,1.826,0,0,1,1226.75,860.6Z" transform="translate(-218.524 -266.762)" fill="#a83b24"/>
  </g>
</svg>
