<svg xmlns="http://www.w3.org/2000/svg" width="41.313" height="48.931" viewBox="0 0 41.313 48.931">
  <g id="Group_150266" data-name="Group 150266" transform="translate(120.881 -893.106)">
    <path id="Path_121011" data-name="Path 121011" d="M-79.676,900.915a9.169,9.169,0,0,0-8.266-7.761,9.092,9.092,0,0,0-8.329,3.884c-.287.384-.368,1.1-.851,1.107-.441.007-.9-.421-1.332-.679a18.7,18.7,0,0,1-4.5-3.8,1.3,1.3,0,0,0-2.13-.015c-.206.222-.4.457-.607.673a18.345,18.345,0,0,1-13.481,5.785c-1,.009-1.719.416-1.706,1.706.041,3.852.015,7.7.015,11.557,0,.143,0,.287.009.429a.663.663,0,0,0,.681.656.712.712,0,0,0,.75-.647,3.794,3.794,0,0,0,.006-.43c0-3.773.006-7.545-.009-11.318,0-.374.1-.468.465-.474.682-.013,1.364-.065,2.045-.142a19.949,19.949,0,0,0,8.037-2.709,19.911,19.911,0,0,0,4.587-3.776c.1-.113.181-.422.45-.116a19.792,19.792,0,0,0,6.091,4.664c.12.06.248.1.193.271a11.228,11.228,0,0,0-.387,2.242,22.591,22.591,0,0,1-5.2-3.213,1.217,1.217,0,0,0-1.761.01,23.68,23.68,0,0,1-3.466,2.347,21.992,21.992,0,0,1-7.284,2.482c-1.068.164-1.384.533-1.384,1.609,0,5.587.008,11.175-.005,16.762a15.655,15.655,0,0,0,.647,4.794,16.015,16.015,0,0,0,11.529,11.105,2.063,2.063,0,0,0,1.115.165,17.258,17.258,0,0,0,5.44-2.306,15.919,15.919,0,0,0,7.328-13.676c.045-3.469.017-6.94,0-10.411,0-.44.122-.495.5-.395a4.249,4.249,0,0,0,1.415.161c.362-.03.441.086.44.441q-.023,5.157-.005,10.315a15.988,15.988,0,0,1-.326,3.554,18.278,18.278,0,0,1-12.424,14.07c-1.42.5-2.849,1.006-4.36.293a6.6,6.6,0,0,0-.856-.282,18.471,18.471,0,0,1-12.811-17.344c0-1.751,0-3.5,0-5.253,0-.549-.268-.884-.7-.9s-.738.332-.739.907c0,1.576,0,3.152,0,4.728a18.334,18.334,0,0,0,.394,4.214,19.646,19.646,0,0,0,13.539,15.071c.827.285,1.675.51,2.513.763h.764a7.1,7.1,0,0,1,1.393-.392,19.994,19.994,0,0,0,11.917-8.594,19.882,19.882,0,0,0,3.183-10.992q.012-5.086,0-10.172c0-.38.049-.564.5-.658a8.58,8.58,0,0,0,3.573-1.7,8.623,8.623,0,0,0,1.889-2.008.705.705,0,0,0-.149-1.011.738.738,0,0,0-1.015.159c-.073.084-.131.179-.2.266a7.525,7.525,0,0,1-7.442,2.973,7.66,7.66,0,0,1-6.4-8.365,7.729,7.729,0,0,1,8.953-6.872A7.721,7.721,0,0,1-81.1,903.3c-.024.188-.061.375-.088.563a.732.732,0,0,0,.539.835.67.67,0,0,0,.874-.515A8.706,8.706,0,0,0-79.676,900.915Zm-13.154,9.592a.555.555,0,0,1,.371.568c-.013,3.867.042,7.735-.027,11.6A14.182,14.182,0,0,1-97.1,932.982a15.1,15.1,0,0,1-6.617,3.586,1.108,1.108,0,0,1-.61,0c-5.779-1.647-9.494-5.316-10.938-11.194a11.957,11.957,0,0,1-.332-2.833q-.008-4.129,0-8.259c0-2.864.007-5.729-.009-8.593,0-.413.062-.576.534-.658a23.33,23.33,0,0,0,10.683-4.777.482.482,0,0,1,.744.01,22.249,22.249,0,0,0,5.462,3.24.651.651,0,0,1,.444.532A9,9,0,0,0-92.829,910.507Z" fill="#a83b24"/>
    <path id="Path_121012" data-name="Path 121012" d="M97.3,930.249a2.043,2.043,0,0,0-2.376.422q-1.484,1.417-2.9,2.9c-.323.34-.49.359-.831.009a2.149,2.149,0,0,0-3.084,2.994c.55.6,1.124,1.172,1.724,1.717a2.573,2.573,0,0,0,3.614-.056c1.513-1.478,3-2.985,4.492-4.484a2.217,2.217,0,0,0,.639-1.6A2.1,2.1,0,0,0,97.3,930.249Zm-.433,2.505c-.837.851-1.684,1.691-2.528,2.535-.608.608-1.219,1.211-1.822,1.823a1.154,1.154,0,0,1-.919.4,1.1,1.1,0,0,1-.861-.359c-.5-.493-1-.984-1.485-1.485a.71.71,0,1,1,1-.993c.186.174.359.361.541.538a1.027,1.027,0,0,0,1.621.007c1.074-1.064,2.14-2.136,3.209-3.2.09-.09.177-.184.274-.266a.74.74,0,0,1,1.028-.01A.686.686,0,0,1,96.864,932.754Z" transform="translate(-181.791 -32.221)" fill="#a83b24"/>
    <path id="Path_121013" data-name="Path 121013" d="M-60.747,1022.16a9.22,9.22,0,0,0,9.338,9.119,9.207,9.207,0,0,0,9.009-9.2,9.209,9.209,0,0,0-9.33-9.166A9.228,9.228,0,0,0-60.747,1022.16Zm16.9-.068a7.765,7.765,0,0,1-7.722,7.741A7.779,7.779,0,0,1-59.3,1022.1a7.776,7.776,0,0,1,7.776-7.74A7.762,7.762,0,0,1-43.845,1022.092Z" transform="translate(-52.457 -104.512)" fill="#a83b24"/>
    <path id="Path_121014" data-name="Path 121014" d="M-38.331,1041.048c0,.461,0,.923,0,1.385a1.359,1.359,0,0,0,1.489,1.516c.748.01,1.5.019,2.244-.005.331-.011.43.076.423.416-.017.858-.026,1.72.033,2.575a1.206,1.206,0,0,0,1.284,1.141c.541.006,1.082,0,1.624,0a1.309,1.309,0,0,0,1.389-1.362c.011-.4,0-.8,0-1.193,0-.414.018-.829-.006-1.241-.017-.285.094-.339.352-.334q1.17.023,2.34,0a1.327,1.327,0,0,0,1.447-1.456c.007-.462,0-.923,0-1.385a1.339,1.339,0,0,0-1.536-1.506c-.732,0-1.465-.022-2.2.008-.352.015-.418-.105-.408-.427.024-.763.014-1.528.006-2.292a1.313,1.313,0,0,0-1.424-1.422c-.461,0-.923,0-1.385,0a1.33,1.33,0,0,0-1.528,1.508c-.009.748-.019,1.5.006,2.244.011.327-.1.394-.4.387-.779-.019-1.56-.018-2.34,0A1.324,1.324,0,0,0-38.331,1041.048Zm2.471.038c.621,0,1.242,0,1.862,0,.888-.006,1.285-.4,1.288-1.275,0-.844.017-1.688-.008-2.531-.009-.323.1-.388.4-.385,1,.008,1,0,1,1.016,0,.6,0,1.21,0,1.815,0,1,.361,1.359,1.346,1.361.828,0,1.656.012,2.483-.006.275-.006.338.082.341.346.011,1.042.021,1.042-1.023,1.042-.653,0-1.305-.005-1.958,0a1.057,1.057,0,0,0-1.185,1.175q-.021,1.313,0,2.626c0,.269-.033.384-.352.384-1.044,0-1.044.015-1.044-1.022q0-.358,0-.716c0-.43.005-.86,0-1.289a1.061,1.061,0,0,0-1.157-1.157c-.891-.011-1.783-.012-2.674,0-.268,0-.349-.07-.352-.345C-36.907,1041.086-36.918,1041.086-35.859,1041.086Z" transform="translate(-72.011 -124.189)" fill="#a83b24"/>
  </g>
</svg>
