<svg xmlns="http://www.w3.org/2000/svg" width="48.985" height="48.93" viewBox="0 0 48.985 48.93">
  <g id="Group_150263" data-name="Group 150263" transform="translate(980.516 -352.027)">
    <path id="Path_121015" data-name="Path 121015" d="M-931.555,353c0-.8-.179-.976-.98-.976h-46.979c-.8,0-.976.175-.979.976-.009,2.424-.025,4.849-.024,7.273q.008,19.8.023,39.6c0,.943.136,1.078,1.08,1.078h46.878c.8,0,.977-.178.98-.977.009-2.374.025-4.748.024-7.121Q-931.539,372.931-931.555,353Zm-1.888,46.543q-11.29-.016-22.58-.008-11.265,0-22.53.01c-.4,0-.537-.071-.528-.508.031-1.565.021-3.132,0-4.7,0-.344.035-.484.447-.483q22.606.02,45.211,0c.339,0,.456.059.45.429-.023,1.6-.026,3.2,0,4.8C-932.96,399.486-933.083,399.547-933.443,399.546Zm-37.939-7.557c0,.362-.064.482-.458.478q-3.383-.033-6.766,0c-.38,0-.465-.092-.464-.467q.021-7.751.009-15.5,0-7.726-.009-15.452c0-.4.062-.535.5-.53,2.238.027,4.477.022,6.716,0,.374,0,.47.084.469.466Q-971.4,376.487-971.382,391.989Zm9.761-28.428-3.03-3.033q1.4,0,2.8,0c.131,0,.231.021.231.186C-961.621,361.661-961.62,362.608-961.62,363.561Zm19.3,21.407a.786.786,0,0,1,.256.614q-.017,3.233,0,6.466c0,.323-.073.471-.409.41a.3.3,0,0,0-.05,0,7.666,7.666,0,0,1-2.7-.078c-.778-.318-1.33-1.2-1.976-1.833q-11.215-11.073-22.432-22.143a1.032,1.032,0,0,1-.347-.83c.023-1.094.008-2.189.008-3.283,0-1.128.013-2.257-.008-3.384-.006-.319.085-.393.392-.385.825.022,1.65.02,2.475,0a.763.763,0,0,1,.608.266Q-954.42,372.882-942.325,384.968Zm-17.867-23.995c-.005-.333.051-.457.425-.454,2.508.018,5.016.012,7.523.005.25,0,.389.01.388.335-.012,4.107-.009,8.214-.01,12.32a2.56,2.56,0,0,1-.066.3,3.823,3.823,0,0,0-.313-.438q-3.8-3.807-7.607-7.6a.992.992,0,0,1-.34-.784Q-960.161,362.816-960.192,360.973Zm9.755.038c0-.4.107-.5.5-.493,2.49.018,4.98.014,7.47,0,.285,0,.4.033.4.371q-.017,11.028-.01,22.057c0,.048-.01.1-.026.237-2.4-2.4-4.693-4.787-7.1-7.056a3.689,3.689,0,0,1-1.255-3.057C-950.376,369.055-950.421,365.032-950.437,361.011Zm.01,28.4,2.9,3.044c-.805,0-1.726,0-2.646,0-.154,0-.256-.026-.255-.216C-950.425,391.326-950.428,390.41-950.428,389.413Zm-1.429,2.69c0,.289-.082.361-.364.36q-3.81-.016-7.62,0c-.24,0-.351-.032-.35-.321q.016-6.081.009-12.162a2.331,2.331,0,0,1,.071-.3c.68.715,1.273,1.369,1.9,1.992q3,2.991,6.031,5.958a.988.988,0,0,1,.325.79Q-951.882,390.261-951.857,392.1Zm-18.116-21.922.195-.163c1.274,1.334,2.533,2.684,3.826,4,1.321,1.344,2.673,2.659,4.021,3.976a.95.95,0,0,1,.318.745q-.015,6.614,0,13.229c0,.39-.09.5-.493.5-2.491-.02-4.982-.014-7.473,0-.281,0-.406-.027-.406-.369Q-969.964,381.137-969.973,370.181Zm36.993,21.872c0,.332-.087.414-.414.412-2.272-.015-4.545-.019-6.817,0-.4,0-.456-.124-.455-.481q.017-7.751.008-15.5c0-5.151.006-10.3-.011-15.452,0-.428.11-.519.524-.515,2.239.022,4.477.018,6.716,0,.336,0,.451.056.451.427Q-933,376.5-932.98,392.053Zm.014-38.075c-.032,1.532-.029,3.065,0,4.6.008.426-.076.552-.535.552q-14.169-.025-28.339-.012-8.36,0-16.721.01c-.418,0-.527-.093-.519-.516q.043-2.3,0-4.6c-.008-.442.085-.579.56-.578q11.265.026,22.53.012,11.239,0,22.479-.011C-933.069,353.434-932.957,353.533-932.966,353.978Z" transform="translate(0 0)" fill="#a83b24"/>
    <path id="Path_121016" data-name="Path 121016" d="M-947.7,378.285c-.167-.008-.334,0-.5,0s-.334,0-.5,0a.653.653,0,0,0-.7.684.67.67,0,0,0,.677.72,6.035,6.035,0,0,0,1.052,0,.663.663,0,0,0,.673-.72A.644.644,0,0,0-947.7,378.285Z" transform="translate(-26.912 -22.709)" fill="#a83b24"/>
    <path id="Path_121017" data-name="Path 121017" d="M-664.949,378.286c-.183-.01-.368,0-.552,0-.167,0-.335-.005-.5,0a.649.649,0,0,0-.683.647.683.683,0,0,0,.637.755,5.727,5.727,0,0,0,1.152-.007.658.658,0,0,0,.617-.726A.651.651,0,0,0-664.949,378.286Z" transform="translate(-271.451 -22.709)" fill="#a83b24"/>
    <path id="Path_121018" data-name="Path 121018" d="M-947.648,676.89a4.375,4.375,0,0,0-1.15,0,.666.666,0,0,0-.628.719.656.656,0,0,0,.661.68c.182.016.367,0,.551,0v.006c.167,0,.335.01.5,0a.66.66,0,0,0,.694-.645A.665.665,0,0,0-947.648,676.89Z" transform="translate(-26.891 -280.964)" fill="#a83b24"/>
    <path id="Path_121019" data-name="Path 121019" d="M-664.893,676.923a4.459,4.459,0,0,0-1.2,0,.648.648,0,0,0-.6.738.655.655,0,0,0,.679.659c.166.013.334,0,.5,0v0c.184,0,.368.011.551,0a.662.662,0,0,0,.676-.667A.659.659,0,0,0-664.893,676.923Z" transform="translate(-271.45 -280.991)" fill="#a83b24"/>
  </g>
</svg>
