<svg xmlns="http://www.w3.org/2000/svg" xmlns:xlink="http://www.w3.org/1999/xlink" width="579.385" height="507.744" viewBox="0 0 579.385 507.744">
  <defs>
    <clipPath id="clip-path">
      <rect id="Rectangle_44873" data-name="Rectangle 44873" width="562.258" height="334" fill="none"/>
    </clipPath>
  </defs>
  <g id="Group_150363" data-name="Group 150363" transform="translate(-190.147 -3676)">
    <path id="Path_204483" data-name="Path 204483" d="M37.786,14.474h-1.67V19H33.031V6.2h5.036a5.621,5.621,0,0,1,3.56,1.01,3.421,3.421,0,0,1,1.283,2.853,4.155,4.155,0,0,1-.541,2.213A3.837,3.837,0,0,1,40.678,13.7l2.672,5.167V19h-3.3ZM36.116,12.1h1.951a1.751,1.751,0,0,0,1.323-.463,1.788,1.788,0,0,0,.444-1.291,1.809,1.809,0,0,0-.448-1.3,1.735,1.735,0,0,0-1.318-.471H36.116ZM49.994,19a3.344,3.344,0,0,1-.281-.853,2.754,2.754,0,0,1-2.285,1.028,3.374,3.374,0,0,1-2.285-.813,2.588,2.588,0,0,1-.94-2.043,2.66,2.66,0,0,1,1.143-2.338,5.821,5.821,0,0,1,3.322-.791h.914v-.5q0-1.316-1.134-1.316a.927.927,0,0,0-1.055,1.042H44.431A2.655,2.655,0,0,1,45.6,10.175a4.931,4.931,0,0,1,2.993-.86,4.323,4.323,0,0,1,2.874.888,3.086,3.086,0,0,1,1.081,2.435v4.21a4.311,4.311,0,0,0,.4,2V19ZM48.14,17.066a1.652,1.652,0,0,0,.918-.237,1.487,1.487,0,0,0,.523-.536V14.772H48.72q-1.547,0-1.547,1.389a.848.848,0,0,0,.272.655A.986.986,0,0,0,48.14,17.066Zm5.678-2.892a5.809,5.809,0,0,1,.976-3.56,3.211,3.211,0,0,1,2.725-1.3,2.731,2.731,0,0,1,2.145,1V5.5h2.971V19H59.97l-.149-1.02a2.8,2.8,0,0,1-2.32,1.2,3.205,3.205,0,0,1-2.689-1.3A5.993,5.993,0,0,1,53.817,14.175Zm2.962.185q0,2.531,1.477,2.531a1.458,1.458,0,0,0,1.406-.826V12.443a1.419,1.419,0,0,0-1.389-.844q-1.371,0-1.485,2.215ZM67.44,19H64.47V9.49H67.44ZM64.294,7.038A1.322,1.322,0,0,1,64.751,6a1.943,1.943,0,0,1,2.373,0,1.322,1.322,0,0,1,.457,1.037,1.322,1.322,0,0,1-.457,1.037,1.943,1.943,0,0,1-2.373,0A1.322,1.322,0,0,1,64.294,7.038ZM74.621,19a3.344,3.344,0,0,1-.281-.853,2.754,2.754,0,0,1-2.285,1.028,3.374,3.374,0,0,1-2.285-.813,2.588,2.588,0,0,1-.94-2.043,2.66,2.66,0,0,1,1.143-2.338,5.821,5.821,0,0,1,3.322-.791h.914v-.5q0-1.316-1.134-1.316a.927.927,0,0,0-1.055,1.042H69.058a2.655,2.655,0,0,1,1.173-2.239,4.931,4.931,0,0,1,2.993-.86A4.323,4.323,0,0,1,76.1,10.2a3.086,3.086,0,0,1,1.081,2.435v4.21a4.311,4.311,0,0,0,.4,2V19Zm-1.854-1.934a1.652,1.652,0,0,0,.918-.237,1.487,1.487,0,0,0,.523-.536V14.772h-.861q-1.547,0-1.547,1.389a.848.848,0,0,0,.272.655A.986.986,0,0,0,72.767,17.066ZM81.942,19H78.972V5.5h2.971Z" transform="translate(409 4026)" fill="#12263f"/>
    <path id="Path_204493" data-name="Path 204493" d="M24.172,8.585H20.331V19H17.246V8.585H13.476V6.2h10.7ZM29.217,19a3.344,3.344,0,0,1-.281-.853,2.754,2.754,0,0,1-2.285,1.028,3.374,3.374,0,0,1-2.285-.813,2.588,2.588,0,0,1-.94-2.043,2.66,2.66,0,0,1,1.143-2.338,5.821,5.821,0,0,1,3.322-.791H28.8v-.5q0-1.316-1.134-1.316a.927.927,0,0,0-1.055,1.042H23.653a2.655,2.655,0,0,1,1.173-2.239,4.931,4.931,0,0,1,2.993-.86,4.323,4.323,0,0,1,2.874.888,3.086,3.086,0,0,1,1.081,2.435v4.21a4.311,4.311,0,0,0,.4,2V19Zm-1.854-1.934a1.652,1.652,0,0,0,.918-.237,1.487,1.487,0,0,0,.523-.536V14.772h-.861q-1.547,0-1.547,1.389a.848.848,0,0,0,.272.655A.986.986,0,0,0,27.362,17.066ZM36.134,9.49l.1,1.116a3.225,3.225,0,0,1,2.716-1.292,2.713,2.713,0,0,1,2.219.888,4.226,4.226,0,0,1,.76,2.672V19H38.955V13a1.6,1.6,0,0,0-.29-1.059A1.342,1.342,0,0,0,37.61,11.6a1.413,1.413,0,0,0-1.292.686V19H33.356V9.49Zm7.084,4.685a6.421,6.421,0,0,1,.475-2.549,3.821,3.821,0,0,1,1.362-1.709,3.591,3.591,0,0,1,2.065-.6,2.855,2.855,0,0,1,2.32,1l.105-.826h2.689V18.64a4.009,4.009,0,0,1-.584,2.184,3.75,3.75,0,0,1-1.692,1.424,6.219,6.219,0,0,1-2.566.5,5.365,5.365,0,0,1-2.026-.4,3.657,3.657,0,0,1-1.5-1.028l1.239-1.74a2.716,2.716,0,0,0,2.18.976,1.764,1.764,0,0,0,1.969-2.021v-.3a2.781,2.781,0,0,1-2.153.94,3.437,3.437,0,0,1-2.812-1.332,5.517,5.517,0,0,1-1.072-3.564Zm2.971.185a3.383,3.383,0,0,0,.439,1.85,1.387,1.387,0,0,0,1.23.681,1.573,1.573,0,0,0,1.4-.642v-4a1.534,1.534,0,0,0-1.38-.65,1.4,1.4,0,0,0-1.239.708A3.858,3.858,0,0,0,46.188,14.359ZM58.52,19.176a4.889,4.889,0,0,1-3.542-1.305,4.507,4.507,0,0,1-1.354-3.4v-.246a5.84,5.84,0,0,1,.541-2.575,3.955,3.955,0,0,1,1.578-1.727A4.763,4.763,0,0,1,58.2,9.314a4.117,4.117,0,0,1,3.164,1.244,4.887,4.887,0,0,1,1.16,3.467v1.151H56.639a2.135,2.135,0,0,0,.694,1.257,2.066,2.066,0,0,0,1.389.457,2.662,2.662,0,0,0,2.2-.984l1.354,1.6A3.784,3.784,0,0,1,60.7,18.723,5.3,5.3,0,0,1,58.52,19.176ZM58.186,11.6q-1.3,0-1.547,1.723h2.988v-.229a1.467,1.467,0,0,0-.36-1.1A1.434,1.434,0,0,0,58.186,11.6ZM66.438,9.49l.1,1.116a3.225,3.225,0,0,1,2.716-1.292,2.713,2.713,0,0,1,2.219.888,4.226,4.226,0,0,1,.76,2.672V19H69.26V13a1.6,1.6,0,0,0-.29-1.059,1.342,1.342,0,0,0-1.055-.338,1.413,1.413,0,0,0-1.292.686V19H63.661V9.49Zm11.452,7.4a1.317,1.317,0,0,0,.967-.338,1.241,1.241,0,0,0,.334-.945h2.777a3.288,3.288,0,0,1-1.121,2.566,4.168,4.168,0,0,1-2.887,1,4.22,4.22,0,0,1-3.27-1.3,5.125,5.125,0,0,1-1.2-3.6v-.123a5.792,5.792,0,0,1,.532-2.544,3.872,3.872,0,0,1,1.534-1.7,4.573,4.573,0,0,1,2.373-.593,4.116,4.116,0,0,1,2.944,1.028,3.647,3.647,0,0,1,1.09,2.786H79.191A1.626,1.626,0,0,0,78.831,12a1.244,1.244,0,0,0-.967-.4q-1.151,0-1.345,1.468a10.357,10.357,0,0,0-.062,1.283,4.068,4.068,0,0,0,.343,1.986A1.187,1.187,0,0,0,77.891,16.891ZM86.346,19H83.375V9.49h2.971ZM83.2,7.038A1.322,1.322,0,0,1,83.656,6a1.943,1.943,0,0,1,2.373,0,1.322,1.322,0,0,1,.457,1.037,1.322,1.322,0,0,1-.457,1.037,1.943,1.943,0,0,1-2.373,0A1.322,1.322,0,0,1,83.2,7.038ZM93.526,19a3.344,3.344,0,0,1-.281-.853,2.754,2.754,0,0,1-2.285,1.028,3.374,3.374,0,0,1-2.285-.813,2.588,2.588,0,0,1-.94-2.043,2.66,2.66,0,0,1,1.143-2.338A5.821,5.821,0,0,1,92.2,13.19h.914v-.5q0-1.316-1.134-1.316a.927.927,0,0,0-1.055,1.042H87.963a2.655,2.655,0,0,1,1.173-2.239,4.931,4.931,0,0,1,2.993-.86A4.323,4.323,0,0,1,95,10.2a3.086,3.086,0,0,1,1.081,2.435v4.21a4.311,4.311,0,0,0,.4,2V19Zm-1.854-1.934a1.652,1.652,0,0,0,.918-.237,1.487,1.487,0,0,0,.523-.536V14.772h-.861q-1.547,0-1.547,1.389a.848.848,0,0,0,.272.655A.986.986,0,0,0,91.672,17.066ZM100.848,19H97.877V5.5h2.971Z" transform="translate(642 4026)" fill="#12263f"/>
    <path id="Path_204490" data-name="Path 204490" d="M41.555,15.6a1.268,1.268,0,0,0-.479-1.055,5.954,5.954,0,0,0-1.683-.782,16.147,16.147,0,0,1-1.969-.782q-2.487-1.222-2.487-3.357a3.011,3.011,0,0,1,.62-1.876A4.008,4.008,0,0,1,37.31,6.48a6.823,6.823,0,0,1,2.549-.453,5.969,5.969,0,0,1,2.474.492,3.917,3.917,0,0,1,1.7,1.4A3.661,3.661,0,0,1,44.64,10H41.563a1.547,1.547,0,0,0-.479-1.213,1.867,1.867,0,0,0-1.3-.431,2.106,2.106,0,0,0-1.305.365,1.074,1.074,0,0,0,.048,1.819,6.65,6.65,0,0,0,1.854.826,11.36,11.36,0,0,1,2.18.918,3.663,3.663,0,0,1,2.074,3.3,3.125,3.125,0,0,1-1.266,2.637,5.629,5.629,0,0,1-3.472.958,6.888,6.888,0,0,1-2.817-.558,4.247,4.247,0,0,1-1.9-1.529,3.985,3.985,0,0,1-.637-2.237h3.094a1.963,1.963,0,0,0,.532,1.516,2.513,2.513,0,0,0,1.727.488,1.985,1.985,0,0,0,1.208-.33A1.088,1.088,0,0,0,41.555,15.6Zm9.132,3.577a4.889,4.889,0,0,1-3.542-1.305,4.507,4.507,0,0,1-1.354-3.4v-.246a5.84,5.84,0,0,1,.541-2.575,3.955,3.955,0,0,1,1.578-1.727,4.763,4.763,0,0,1,2.461-.611,4.117,4.117,0,0,1,3.164,1.244,4.887,4.887,0,0,1,1.16,3.467v1.151H48.806a2.135,2.135,0,0,0,.694,1.257,2.066,2.066,0,0,0,1.389.457,2.662,2.662,0,0,0,2.2-.984l1.354,1.6a3.784,3.784,0,0,1-1.569,1.217A5.3,5.3,0,0,1,50.687,19.176ZM50.353,11.6q-1.3,0-1.547,1.723h2.988v-.229a1.467,1.467,0,0,0-.36-1.1A1.434,1.434,0,0,0,50.353,11.6Zm9.554,5.291a1.317,1.317,0,0,0,.967-.338,1.241,1.241,0,0,0,.334-.945h2.777a3.288,3.288,0,0,1-1.121,2.566,4.168,4.168,0,0,1-2.887,1,4.22,4.22,0,0,1-3.27-1.3,5.125,5.125,0,0,1-1.2-3.6v-.123a5.792,5.792,0,0,1,.532-2.544,3.872,3.872,0,0,1,1.534-1.7,4.573,4.573,0,0,1,2.373-.593,4.116,4.116,0,0,1,2.944,1.028,3.647,3.647,0,0,1,1.09,2.786H61.207A1.626,1.626,0,0,0,60.847,12a1.244,1.244,0,0,0-.967-.4q-1.151,0-1.345,1.468a10.357,10.357,0,0,0-.062,1.283,4.068,4.068,0,0,0,.343,1.986A1.187,1.187,0,0,0,59.906,16.891Zm9.352,0a1.317,1.317,0,0,0,.967-.338,1.241,1.241,0,0,0,.334-.945h2.777a3.288,3.288,0,0,1-1.121,2.566,4.168,4.168,0,0,1-2.887,1,4.22,4.22,0,0,1-3.27-1.3,5.125,5.125,0,0,1-1.2-3.6v-.123A5.792,5.792,0,0,1,65.4,11.6a3.872,3.872,0,0,1,1.534-1.7A4.573,4.573,0,0,1,69.3,9.314a4.116,4.116,0,0,1,2.944,1.028,3.647,3.647,0,0,1,1.09,2.786H70.559A1.626,1.626,0,0,0,70.2,12a1.244,1.244,0,0,0-.967-.4q-1.151,0-1.345,1.468a10.357,10.357,0,0,0-.062,1.283,4.068,4.068,0,0,0,.343,1.986A1.187,1.187,0,0,0,69.258,16.891ZM77.713,19H74.742V9.49h2.971ZM74.566,7.038A1.322,1.322,0,0,1,75.023,6,1.943,1.943,0,0,1,77.4,6a1.322,1.322,0,0,1,.457,1.037A1.322,1.322,0,0,1,77.4,8.075a1.943,1.943,0,0,1-2.373,0A1.322,1.322,0,0,1,74.566,7.038Zm4.6,7.119a5.613,5.613,0,0,1,.554-2.536,3.96,3.96,0,0,1,1.591-1.709,4.791,4.791,0,0,1,2.435-.6,4.373,4.373,0,0,1,3.366,1.323,5.076,5.076,0,0,1,1.23,3.6v.105A4.925,4.925,0,0,1,87.1,17.871a4.384,4.384,0,0,1-3.344,1.305A4.434,4.434,0,0,1,80.5,17.958a4.761,4.761,0,0,1-1.327-3.3Zm2.962.185a3.538,3.538,0,0,0,.413,1.934,1.376,1.376,0,0,0,1.222.615q1.582,0,1.617-2.435v-.3q0-2.558-1.635-2.558-1.485,0-1.608,2.206ZM84.146,5.5h3.129L84.832,8.26l-2.417,0Zm8.218,3.99.1,1.116a3.225,3.225,0,0,1,2.716-1.292A2.713,2.713,0,0,1,97.4,10.2a4.226,4.226,0,0,1,.76,2.672V19H95.186V13a1.6,1.6,0,0,0-.29-1.059,1.342,1.342,0,0,0-1.055-.338,1.413,1.413,0,0,0-1.292.686V19H89.587V9.49ZM107.4,19h-2.971V5.5H107.4Zm1.45-4.843a5.613,5.613,0,0,1,.554-2.536A3.96,3.96,0,0,1,111,9.912a4.791,4.791,0,0,1,2.435-.6,4.373,4.373,0,0,1,3.366,1.323,5.076,5.076,0,0,1,1.23,3.6v.105a4.925,4.925,0,0,1-1.235,3.529,4.384,4.384,0,0,1-3.344,1.305,4.434,4.434,0,0,1-3.261-1.217,4.761,4.761,0,0,1-1.327-3.3Zm2.962.185a3.538,3.538,0,0,0,.413,1.934,1.376,1.376,0,0,0,1.222.615q1.582,0,1.617-2.435v-.3q0-2.558-1.635-2.558-1.485,0-1.608,2.206ZM122.054,9.49l.1,1.116a3.225,3.225,0,0,1,2.716-1.292,2.713,2.713,0,0,1,2.219.888,4.226,4.226,0,0,1,.76,2.672V19h-2.971V13a1.6,1.6,0,0,0-.29-1.059,1.342,1.342,0,0,0-1.055-.338,1.413,1.413,0,0,0-1.292.686V19h-2.962V9.49Zm7.084,4.685a6.421,6.421,0,0,1,.475-2.549,3.821,3.821,0,0,1,1.362-1.709,3.591,3.591,0,0,1,2.065-.6,2.855,2.855,0,0,1,2.32,1l.105-.826h2.689V18.64a4.009,4.009,0,0,1-.584,2.184,3.75,3.75,0,0,1-1.692,1.424,6.219,6.219,0,0,1-2.566.5,5.365,5.365,0,0,1-2.026-.4,3.657,3.657,0,0,1-1.5-1.028l1.239-1.74a2.716,2.716,0,0,0,2.18.976,1.764,1.764,0,0,0,1.969-2.021v-.3a2.781,2.781,0,0,1-2.153.94,3.437,3.437,0,0,1-2.812-1.332,5.517,5.517,0,0,1-1.072-3.564Zm2.971.185a3.383,3.383,0,0,0,.439,1.85,1.387,1.387,0,0,0,1.23.681,1.573,1.573,0,0,0,1.4-.642v-4a1.534,1.534,0,0,0-1.38-.65,1.4,1.4,0,0,0-1.239.708A3.858,3.858,0,0,0,132.108,14.359ZM142.963,19h-2.971V9.49h2.971ZM139.816,7.038A1.322,1.322,0,0,1,140.273,6a1.943,1.943,0,0,1,2.373,0,1.322,1.322,0,0,1,.457,1.037,1.322,1.322,0,0,1-.457,1.037,1.943,1.943,0,0,1-2.373,0A1.322,1.322,0,0,1,139.816,7.038Zm8.42.088V9.49H149.8v2.057h-1.564V15.9a1.111,1.111,0,0,0,.193.747,1.037,1.037,0,0,0,.765.211,4.345,4.345,0,0,0,.738-.053v2.118a5.466,5.466,0,0,1-1.67.255A3.1,3.1,0,0,1,146,18.455a2.954,2.954,0,0,1-.729-2.188v-4.72h-1.213V9.49h1.213V7.126Zm8.394,10.846a3.054,3.054,0,0,1-2.54,1.2,3,3,0,0,1-2.369-.91,3.826,3.826,0,0,1-.8-2.615V9.49h2.962v6.179a1.065,1.065,0,0,0,1.187,1.222,1.548,1.548,0,0,0,1.45-.729V9.49H159.5V19h-2.777Zm4.113-3.8a5.809,5.809,0,0,1,.976-3.56,3.211,3.211,0,0,1,2.725-1.3,2.731,2.731,0,0,1,2.145,1V5.5h2.971V19H166.9l-.149-1.02a2.8,2.8,0,0,1-2.32,1.2,3.205,3.205,0,0,1-2.689-1.3A5.993,5.993,0,0,1,160.743,14.175Zm2.962.185q0,2.531,1.477,2.531a1.458,1.458,0,0,0,1.406-.826V12.443A1.419,1.419,0,0,0,165.2,11.6q-1.371,0-1.485,2.215ZM174.366,19H171.4V9.49h2.971ZM171.22,7.038A1.322,1.322,0,0,1,171.677,6a1.943,1.943,0,0,1,2.373,0,1.322,1.322,0,0,1,.457,1.037,1.322,1.322,0,0,1-.457,1.037,1.943,1.943,0,0,1-2.373,0A1.322,1.322,0,0,1,171.22,7.038Zm7.69,2.452.1,1.116a3.225,3.225,0,0,1,2.716-1.292,2.713,2.713,0,0,1,2.219.888,4.226,4.226,0,0,1,.76,2.672V19h-2.971V13a1.6,1.6,0,0,0-.29-1.059,1.342,1.342,0,0,0-1.055-.338,1.413,1.413,0,0,0-1.292.686V19h-2.962V9.49ZM191.7,19a3.344,3.344,0,0,1-.281-.853,2.754,2.754,0,0,1-2.285,1.028,3.374,3.374,0,0,1-2.285-.813,2.588,2.588,0,0,1-.94-2.043,2.66,2.66,0,0,1,1.143-2.338,5.821,5.821,0,0,1,3.322-.791h.914v-.5q0-1.316-1.134-1.316a.927.927,0,0,0-1.055,1.042h-2.962a2.655,2.655,0,0,1,1.173-2.239,4.931,4.931,0,0,1,2.993-.86,4.323,4.323,0,0,1,2.874.888,3.086,3.086,0,0,1,1.081,2.435v4.21a4.311,4.311,0,0,0,.4,2V19Zm-1.854-1.934a1.652,1.652,0,0,0,.918-.237,1.487,1.487,0,0,0,.523-.536V14.772h-.861q-1.547,0-1.547,1.389a.848.848,0,0,0,.272.655A.986.986,0,0,0,189.844,17.066ZM199.02,19h-2.971V5.5h2.971Z" transform="translate(466 4161)" fill="#12263f"/>
    <path id="Path_204491" data-name="Path 204491" d="M42.152,15.6a1.268,1.268,0,0,0-.479-1.055,5.954,5.954,0,0,0-1.683-.782,16.147,16.147,0,0,1-1.969-.782q-2.487-1.222-2.487-3.357a3.011,3.011,0,0,1,.62-1.876A4.008,4.008,0,0,1,37.907,6.48a6.823,6.823,0,0,1,2.549-.453,5.969,5.969,0,0,1,2.474.492,3.917,3.917,0,0,1,1.7,1.4A3.661,3.661,0,0,1,45.237,10H42.161a1.547,1.547,0,0,0-.479-1.213,1.867,1.867,0,0,0-1.3-.431,2.106,2.106,0,0,0-1.305.365,1.074,1.074,0,0,0,.048,1.819,6.65,6.65,0,0,0,1.854.826,11.36,11.36,0,0,1,2.18.918,3.663,3.663,0,0,1,2.074,3.3,3.125,3.125,0,0,1-1.266,2.637,5.629,5.629,0,0,1-3.472.958,6.888,6.888,0,0,1-2.817-.558,4.247,4.247,0,0,1-1.9-1.529,3.985,3.985,0,0,1-.637-2.237h3.094a1.963,1.963,0,0,0,.532,1.516,2.513,2.513,0,0,0,1.727.488,1.985,1.985,0,0,0,1.208-.33A1.088,1.088,0,0,0,42.152,15.6Zm9.132,3.577a4.889,4.889,0,0,1-3.542-1.305,4.507,4.507,0,0,1-1.354-3.4v-.246a5.84,5.84,0,0,1,.541-2.575,3.955,3.955,0,0,1,1.578-1.727,4.763,4.763,0,0,1,2.461-.611,4.117,4.117,0,0,1,3.164,1.244,4.887,4.887,0,0,1,1.16,3.467v1.151H49.4a2.135,2.135,0,0,0,.694,1.257,2.066,2.066,0,0,0,1.389.457,2.662,2.662,0,0,0,2.2-.984l1.354,1.6a3.784,3.784,0,0,1-1.569,1.217A5.3,5.3,0,0,1,51.284,19.176ZM50.95,11.6q-1.3,0-1.547,1.723h2.988v-.229a1.467,1.467,0,0,0-.36-1.1A1.434,1.434,0,0,0,50.95,11.6ZM60.5,16.891a1.317,1.317,0,0,0,.967-.338,1.241,1.241,0,0,0,.334-.945h2.777a3.288,3.288,0,0,1-1.121,2.566,4.168,4.168,0,0,1-2.887,1,4.22,4.22,0,0,1-3.27-1.3,5.125,5.125,0,0,1-1.2-3.6v-.123a5.792,5.792,0,0,1,.532-2.544,3.872,3.872,0,0,1,1.534-1.7,4.573,4.573,0,0,1,2.373-.593,4.116,4.116,0,0,1,2.944,1.028,3.647,3.647,0,0,1,1.09,2.786H61.8A1.626,1.626,0,0,0,61.444,12a1.244,1.244,0,0,0-.967-.4q-1.151,0-1.345,1.468a10.357,10.357,0,0,0-.062,1.283,4.068,4.068,0,0,0,.343,1.986A1.187,1.187,0,0,0,60.5,16.891Zm9.352,0a1.317,1.317,0,0,0,.967-.338,1.241,1.241,0,0,0,.334-.945h2.777a3.288,3.288,0,0,1-1.121,2.566,4.168,4.168,0,0,1-2.887,1,4.22,4.22,0,0,1-3.27-1.3,5.125,5.125,0,0,1-1.2-3.6v-.123a5.792,5.792,0,0,1,.532-2.544,3.872,3.872,0,0,1,1.534-1.7A4.573,4.573,0,0,1,69.9,9.314a4.116,4.116,0,0,1,2.944,1.028,3.647,3.647,0,0,1,1.09,2.786H71.156A1.626,1.626,0,0,0,70.8,12a1.244,1.244,0,0,0-.967-.4q-1.151,0-1.345,1.468a10.357,10.357,0,0,0-.062,1.283,4.068,4.068,0,0,0,.343,1.986A1.187,1.187,0,0,0,69.855,16.891ZM78.311,19H75.34V9.49h2.971ZM75.164,7.038A1.322,1.322,0,0,1,75.621,6a1.943,1.943,0,0,1,2.373,0,1.322,1.322,0,0,1,.457,1.037,1.322,1.322,0,0,1-.457,1.037,1.943,1.943,0,0,1-2.373,0A1.322,1.322,0,0,1,75.164,7.038Zm4.6,7.119a5.613,5.613,0,0,1,.554-2.536,3.96,3.96,0,0,1,1.591-1.709,4.791,4.791,0,0,1,2.435-.6,4.373,4.373,0,0,1,3.366,1.323,5.076,5.076,0,0,1,1.23,3.6v.105A4.925,4.925,0,0,1,87.7,17.871a4.384,4.384,0,0,1-3.344,1.305A4.434,4.434,0,0,1,81.1,17.958a4.761,4.761,0,0,1-1.327-3.3Zm2.962.185a3.538,3.538,0,0,0,.413,1.934,1.376,1.376,0,0,0,1.222.615q1.582,0,1.617-2.435v-.3q0-2.558-1.635-2.558-1.485,0-1.608,2.206ZM84.744,5.5h3.129L85.43,8.26l-2.417,0Zm8.218,3.99.1,1.116a3.225,3.225,0,0,1,2.716-1.292,2.713,2.713,0,0,1,2.219.888,4.226,4.226,0,0,1,.76,2.672V19H95.783V13a1.6,1.6,0,0,0-.29-1.059,1.342,1.342,0,0,0-1.055-.338,1.413,1.413,0,0,0-1.292.686V19H90.185V9.49Zm21.568-.905h-3.841V19H107.6V8.585h-3.771V6.2h10.7Zm6.346,3.586-.976-.07a1.752,1.752,0,0,0-1.793.879V19h-2.962V9.49h2.777l.1,1.222a2.294,2.294,0,0,1,2.083-1.4,2.888,2.888,0,0,1,.826.105ZM127.037,19a3.344,3.344,0,0,1-.281-.853,2.754,2.754,0,0,1-2.285,1.028,3.374,3.374,0,0,1-2.285-.813,2.588,2.588,0,0,1-.94-2.043,2.66,2.66,0,0,1,1.143-2.338,5.821,5.821,0,0,1,3.322-.791h.914v-.5q0-1.316-1.134-1.316a.927.927,0,0,0-1.055,1.042h-2.962a2.655,2.655,0,0,1,1.173-2.239,4.931,4.931,0,0,1,2.993-.86,4.323,4.323,0,0,1,2.874.888,3.086,3.086,0,0,1,1.081,2.435v4.21a4.311,4.311,0,0,0,.4,2V19Zm-1.854-1.934a1.652,1.652,0,0,0,.918-.237,1.487,1.487,0,0,0,.523-.536V14.772h-.861q-1.547,0-1.547,1.389a.848.848,0,0,0,.272.655A.986.986,0,0,0,125.183,17.066Zm8.771-7.576.1,1.116a3.225,3.225,0,0,1,2.716-1.292,2.713,2.713,0,0,1,2.219.888,4.226,4.226,0,0,1,.76,2.672V19h-2.971V13a1.6,1.6,0,0,0-.29-1.059,1.342,1.342,0,0,0-1.055-.338,1.413,1.413,0,0,0-1.292.686V19h-2.962V9.49Zm12.41,6.838a.684.684,0,0,0-.4-.606,6.016,6.016,0,0,0-1.5-.475,6.853,6.853,0,0,1-1.828-.646,3.062,3.062,0,0,1-1.1-.971,2.319,2.319,0,0,1-.378-1.31,2.628,2.628,0,0,1,1.081-2.158,4.453,4.453,0,0,1,2.83-.848,4.934,4.934,0,0,1,3.023.853,2.666,2.666,0,0,1,1.143,2.241h-2.971q0-1.143-1.2-1.143a1.194,1.194,0,0,0-.782.259.8.8,0,0,0-.316.646.737.737,0,0,0,.387.642,3.654,3.654,0,0,0,1.235.4,10.671,10.671,0,0,1,1.49.378,2.706,2.706,0,0,1,2.145,2.646,2.491,2.491,0,0,1-1.156,2.118,5.068,5.068,0,0,1-2.993.817,5.172,5.172,0,0,1-2.18-.439,3.645,3.645,0,0,1-1.494-1.2,2.707,2.707,0,0,1-.536-1.591h2.769a1.145,1.145,0,0,0,.439.962,1.808,1.808,0,0,0,1.081.3,1.422,1.422,0,0,0,.91-.246A.787.787,0,0,0,146.364,16.328Zm8.033-.853,1.5-5.985h3.12l-3.1,9.51h-3.023l-3.1-9.51h3.129Zm10.107,3.7a4.889,4.889,0,0,1-3.542-1.305,4.507,4.507,0,0,1-1.354-3.4v-.246a5.84,5.84,0,0,1,.541-2.575,3.955,3.955,0,0,1,1.578-1.727,4.763,4.763,0,0,1,2.461-.611,4.117,4.117,0,0,1,3.164,1.244,4.887,4.887,0,0,1,1.16,3.467v1.151h-5.889a2.135,2.135,0,0,0,.694,1.257,2.066,2.066,0,0,0,1.389.457,2.662,2.662,0,0,0,2.2-.984l1.354,1.6a3.784,3.784,0,0,1-1.569,1.217A5.3,5.3,0,0,1,164.5,19.176Zm-.334-7.576q-1.3,0-1.547,1.723h2.988v-.229a1.467,1.467,0,0,0-.36-1.1A1.434,1.434,0,0,0,164.171,11.6Zm11.285.571-.976-.07a1.752,1.752,0,0,0-1.793.879V19h-2.962V9.49H172.5l.1,1.222a2.294,2.294,0,0,1,2.083-1.4,2.888,2.888,0,0,1,.826.105Zm6.047,4.157a.684.684,0,0,0-.4-.606,6.016,6.016,0,0,0-1.5-.475,6.853,6.853,0,0,1-1.828-.646,3.062,3.062,0,0,1-1.1-.971,2.319,2.319,0,0,1-.378-1.31,2.628,2.628,0,0,1,1.081-2.158,4.453,4.453,0,0,1,2.83-.848,4.934,4.934,0,0,1,3.023.853,2.666,2.666,0,0,1,1.143,2.241h-2.971q0-1.143-1.2-1.143a1.194,1.194,0,0,0-.782.259.8.8,0,0,0-.316.646.737.737,0,0,0,.387.642,3.654,3.654,0,0,0,1.235.4,10.671,10.671,0,0,1,1.49.378,2.706,2.706,0,0,1,2.145,2.646,2.491,2.491,0,0,1-1.156,2.118,5.068,5.068,0,0,1-2.993.817,5.172,5.172,0,0,1-2.18-.439,3.645,3.645,0,0,1-1.494-1.2A2.707,2.707,0,0,1,176,15.95h2.769a1.145,1.145,0,0,0,.439.962,1.808,1.808,0,0,0,1.081.3,1.422,1.422,0,0,0,.91-.246A.787.787,0,0,0,181.5,16.328ZM191.1,19a3.344,3.344,0,0,1-.281-.853,2.754,2.754,0,0,1-2.285,1.028,3.374,3.374,0,0,1-2.285-.813,2.588,2.588,0,0,1-.94-2.043,2.66,2.66,0,0,1,1.143-2.338,5.821,5.821,0,0,1,3.322-.791h.914v-.5q0-1.316-1.134-1.316a.927.927,0,0,0-1.055,1.042h-2.962a2.655,2.655,0,0,1,1.173-2.239,4.931,4.931,0,0,1,2.993-.86,4.323,4.323,0,0,1,2.874.888,3.086,3.086,0,0,1,1.081,2.435v4.21a4.311,4.311,0,0,0,.4,2V19Zm-1.854-1.934a1.652,1.652,0,0,0,.918-.237,1.487,1.487,0,0,0,.523-.536V14.772h-.861q-1.547,0-1.547,1.389a.848.848,0,0,0,.272.655A.986.986,0,0,0,189.246,17.066ZM198.422,19h-2.971V5.5h2.971Z" transform="translate(155 4161)" fill="#12263f"/>
    <path id="Path_204485" data-name="Path 204485" d="M30,0A30,30,0,1,1,0,30,30,30,0,0,1,30,0Z" transform="translate(235 4085)" fill="#a83b24"/>
    <path id="Path_204486" data-name="Path 204486" d="M12.246,31H7.295V15.238L2.432,16.659v-3.75l9.36-3.237h.454Z" transform="translate(256 4095)" fill="#fff"/>
    <path id="Path_204487" data-name="Path 204487" d="M30,0A30,30,0,1,1,0,30,30,30,0,0,1,30,0Z" transform="translate(552 4085)" fill="#a83b24"/>
    <path id="Path_204488" data-name="Path 204488" d="M16.187,31H1.3V27.777L8.159,20.57q2.534-2.886,2.534-4.585a3.189,3.189,0,0,0-.6-2.095,2.144,2.144,0,0,0-1.743-.718,2.171,2.171,0,0,0-1.831.959,3.943,3.943,0,0,0-.7,2.4H.864A7,7,0,0,1,1.846,12.9,6.882,6.882,0,0,1,4.57,10.3a8.094,8.094,0,0,1,3.9-.937,7.962,7.962,0,0,1,5.325,1.6,5.7,5.7,0,0,1,1.868,4.585A6.658,6.658,0,0,1,15.19,18a10.76,10.76,0,0,1-1.458,2.5,36.715,36.715,0,0,1-3.186,3.508L7.793,27.191h8.394Z" transform="translate(573 4095)" fill="#fff"/>
    <path id="Path_204398" data-name="Path 204398" d="M110.734,315.055,143.459,5.53H252.542l47.043,309.525Z" transform="translate(266.406 3678.953)" fill="#f0b58b"/>
    <path id="Path_204399" data-name="Path 204399" d="M300.773,316.089h-190.6l.089-.848L143.065,5.03H253.5l.1.652Zm-188.891-1.534H298.989L252.179,6.564H144.446Z" transform="translate(266.109 3678.686)" fill="#8c6239"/>
    <g id="Group_150359" data-name="Group 150359" transform="translate(207.275 3676)">
      <g id="Group_150358" data-name="Group 150358" clip-path="url(#clip-path)">
        <path id="Path_204400" data-name="Path 204400" d="M112.779,218.9H295.834s4.65-5.673,3.751-11.591H110.734Z" transform="translate(59.131 110.7)" fill="#a4826f"/>
        <path id="Path_204401" data-name="Path 204401" d="M296.518,219.933H112.454l-2.316-13.125H300.563l.1.652c.939,6.184-3.717,11.95-3.915,12.192ZM113.741,218.4H295.775c.838-1.131,3.81-5.5,3.445-10.057H111.967Z" transform="translate(58.812 110.433)" fill="#8c6239"/>
        <path id="Path_204402" data-name="Path 204402" d="M125.595,256.075c-.17-.417-4.137-10.427-.035-27.739,4.03-17.021,7.222-50.465,7.254-50.8l0-34.357,2.275-30.907,1.529.114-2.273,30.849,0,34.374c-.035.41-3.238,33.958-7.294,51.082-3.976,16.791-.075,26.708-.035,26.806Z" transform="translate(66.059 59.951)" fill="#bb7658"/>
        <path id="Path_204403" data-name="Path 204403" d="M142.776,110.894l-1.5-.31c2.608-12.6,2.707-14.343,2.711-14.41-.988-9.489-2.706-25.118-3.094-26.236l.009,0c-.325-.772-.64-3.458-1.4-14.337-.465-6.656-.968-15.137-.968-18.037V9.382h1.534V37.561c0,5.312,1.723,30.221,2.2,31.731l-.038.012c.426,1.089,1.1,5.621,3.295,26.811,0,.227-.074,1.893-2.74,14.778" transform="translate(73.973 5.01)" fill="#bb7658"/>
        <path id="Path_204404" data-name="Path 204404" d="M152.8,155.359l-1.526-.16c.032-.305,3.212-30.784,5.467-41.16,1.738-7.991.773-24.812.253-33.851-.156-2.738-.27-4.715-.27-5.7,0-4.544-.492-18.894-2.681-25.025-2.29-6.407-2.754-34.3-2.773-35.481l1.534-.025c0,.288.479,28.819,2.683,34.99,2.7,7.55,2.772,25.363,2.772,25.541,0,.94.118,3,.268,5.61.523,9.112,1.5,26.072-.285,34.266-2.238,10.293-5.409,40.688-5.441,40.993" transform="translate(80.777 7.454)" fill="#bb7658"/>
        <path id="Path_204405" data-name="Path 204405" d="M147.22,138.313l-1.486-.379c.035-.138,3.505-13.81,3.335-18.417-.106-2.844,1.039-12.99,2.049-21.941.672-5.964,1.308-11.6,1.308-12.892,0-3.148-2.247-29.632-2.269-29.9-.018-.2-1.833-20.451-3.611-26.671-1.852-6.483-.084-13.95-.008-14.265l1.491.36c-.017.074-1.747,7.4-.008,13.484,1.818,6.36,3.588,26.121,3.663,26.958.092,1.1,2.275,26.82,2.275,30.032,0,1.379-.611,6.794-1.318,13.063-.954,8.457-2.143,18.982-2.042,21.712.179,4.827-3.235,18.282-3.381,18.853" transform="translate(77.804 7.396)" fill="#bb7658"/>
        <path id="Path_204406" data-name="Path 204406" d="M135.027,121.248h-1.534V106.262c.015-.239,1.384-18.377,2.734-28.285,1.336-9.79.011-23.323,0-23.459l1.526-.152c.014.135,1.358,13.847,0,23.82-1.344,9.86-2.709,27.952-2.721,28.135Z" transform="translate(71.284 29.031)" fill="#bb7658"/>
        <path id="Path_204407" data-name="Path 204407" d="M138.845,268.081c-.092-.583-2.217-14.35.029-21.263,1.726-5.315,2.168-16.039,2.49-23.872.086-2.1.166-4.025.259-5.651.261-4.534-.566-10.1-1.365-15.49-.575-3.879-1.17-7.894-1.362-11.525-.451-8.56,1.747-23.987,4.013-32.063,2.088-7.437,2.852-22.223,1.46-28.255-1.252-5.427-3.682-22.088-2.746-36.244l1.531.1c-.925,13.988,1.474,30.44,2.709,35.8,1.434,6.213.661,21.4-1.477,29.014-2.233,7.961-4.4,23.154-3.958,31.568.187,3.559.778,7.536,1.347,11.381.811,5.463,1.649,11.112,1.379,15.8-.092,1.621-.172,3.542-.258,5.628-.344,8.36-.772,18.767-2.563,24.281-2.132,6.565.006,20.414.028,20.554Z" transform="translate(73.609 50.045)" fill="#bb7658"/>
        <path id="Path_204408" data-name="Path 204408" d="M134.182,227.043c-3.356-10.7-1.786-16.075.818-24.975.27-.93.554-1.9.844-2.913,2.948-10.344.011-27.942-.02-28.118l1.514-.258c.124.736,3.023,18.123-.02,28.8-.29,1.02-.574,1.991-.847,2.922-2.52,8.623-4.044,13.829-.825,24.087Z" transform="translate(70.63 91.194)" fill="#bb7658"/>
        <path id="Path_204409" data-name="Path 204409" d="M161.619,159.119c-.089-.888-2.166-21.787.055-27.132,1.23-2.962,1.835-10.631,2.368-17.4a116.594,116.594,0,0,1,1.327-12.24c1.331-6.21-.483-25.234-2.717-33.442-1.591-5.843-1-18.742-.488-30.123.236-5.223.46-10.157.46-14h1.534c0,3.875-.224,8.825-.463,14.065-.511,11.269-1.089,24.039.437,29.65,2.324,8.543,4.133,27.656,2.735,34.168a116.163,116.163,0,0,0-1.3,12.037c-.569,7.216-1.157,14.679-2.482,17.866-2.072,4.99.034,26.174.055,26.388Z" transform="translate(85.786 13.237)" fill="#bb7658"/>
        <path id="Path_204410" data-name="Path 204410" d="M152.8,254l-1.531-.094c.055-.91,1.374-22.364,2.138-27.514.365-2.451.192-7.346.008-12.531a139.923,139.923,0,0,1-.012-15.884c.437-4.654-.331-11.545-1.075-18.208-.546-4.881-1.06-9.491-1.06-12.912a165.629,165.629,0,0,1,3.247-31.23c2.217-10.836.1-14.889.081-14.927l1.336-.753c.1.178,2.439,4.473.086,15.987A164.07,164.07,0,0,0,152.8,166.86c0,3.335.509,7.9,1.051,12.741.752,6.742,1.531,13.712,1.078,18.521a141.072,141.072,0,0,0,.018,15.688c.186,5.257.36,10.221-.023,12.809-.755,5.087-2.112,27.161-2.126,27.383" transform="translate(80.777 64.051)" fill="#bb7658"/>
        <path id="Path_204411" data-name="Path 204411" d="M170.633,262.124l-1.468-.443c1.6-5.292,1.944-24.375-.028-40.134a196.693,196.693,0,0,1-1.566-21.947c-.1-3.645-.2-7.414-.54-12.184-.95-13.309,2.589-32.783,4.1-41.1,1.868-10.282,3.617-31.252,3.339-51.441l1.534-.021c.279,20.287-1.482,41.382-3.364,51.737-1.5,8.257-5.018,27.6-4.082,40.714.345,4.8.445,8.59.543,12.252a195.687,195.687,0,0,0,1.557,21.8c2.025,16.205,1.649,35.222-.028,40.769" transform="translate(89.108 50.652)" fill="#bb7658"/>
        <path id="Path_204412" data-name="Path 204412" d="M177.771,190.4c-1.206-5.383,3.519-23.383,5.714-28.212,1.479-3.254.9-12.41.394-20.489-.238-3.786-.463-7.362-.463-10.1,0-7.026-1.195-14.844-2.155-21.128-.207-1.351-.4-2.615-.565-3.761-.89-6.233-4.938-22.514-8.36-29.313-2.381-4.728-.934-20.307.739-38.348.838-9.015,1.7-18.337,2.16-27.027l1.532.081c-.459,8.719-1.325,18.058-2.163,27.089-1.585,17.064-3.08,33.182-.9,37.517,3.49,6.929,7.607,23.465,8.509,29.784.163,1.141.356,2.4.561,3.748.969,6.334,2.174,14.217,2.174,21.359,0,2.691.224,6.243.46,10,.545,8.662,1.109,17.619-.529,21.221-2.276,5.01-6.654,22.59-5.613,27.241Z" transform="translate(91.356 6.42)" fill="#bb7658"/>
        <path id="Path_204413" data-name="Path 204413" d="M181.9,235.9l-1.166-1c.815-.953,1.968-6.021-4.915-32.488-1.6-6.151-1.1-19.655-.566-33.95.3-8.179.618-16.638.541-23.958l1.534-.017c.077,7.357-.238,15.834-.543,24.031-.526,14.18-1.025,27.575.518,33.507,7.826,30.1,5.393,32.939,4.6,33.872" transform="translate(93.309 77.154)" fill="#bb7658"/>
        <path id="Path_204414" data-name="Path 204414" d="M205.541,77.185c-.285-2-.741-6.584-1.269-11.9-.319-3.214-.663-6.674-1.006-9.942-.5-4.731-1.4-10.537-2.658-18.574-1.011-6.483-2.27-14.553-3.7-24.578l1.519-.216c1.43,10.015,2.688,18.078,3.7,24.558,1.258,8.058,2.166,13.88,2.668,18.649.344,3.27.689,6.736,1.008,9.953.526,5.294.982,9.867,1.261,11.83Z" transform="translate(105.146 6.396)" fill="#bb7658"/>
        <path id="Path_204415" data-name="Path 204415" d="M201.622,115.526l-.92-1.227.46.614-.658-.367c.555-1.715-1.4-27.619-3.277-36.915-1.855-9.212-2.772-12.488-4.985-20.405-1.974-7.059-1.922-17.779-1.865-29.129.009-1.885.018-3.781.018-5.677h1.534c0,1.9-.009,3.8-.018,5.685-.055,11.24-.109,21.855,1.809,28.707,2.338,8.359,3.237,11.7,5.013,20.517,1.287,6.389,4.548,36.954,2.89,38.2" transform="translate(101.649 11.971)" fill="#bb7658"/>
        <path id="Path_204416" data-name="Path 204416" d="M192.2,185.788c-1.667-4.86.512-20.546,2.1-32,.23-1.661.445-3.2.626-4.561,1.028-7.728.749-13.286.36-20.979-.123-2.454-.258-5.136-.367-8.184-.334-9.353-2.393-14.677-4.573-20.315-.739-1.917-1.508-3.9-2.209-6.065-1.786-5.5-1.114-13.482-.52-20.522a82.915,82.915,0,0,0,.485-10.465l1.531-.087a83.535,83.535,0,0,1-.488,10.681c-.58,6.9-1.238,14.709.451,19.919.689,2.125,1.448,4.088,2.183,5.987,2.226,5.76,4.329,11.2,4.673,20.812.109,3.04.244,5.714.367,8.162.391,7.774.673,13.39-.373,21.258-.181,1.362-.4,2.9-.627,4.568-1.482,10.664-3.721,26.777-2.172,31.29Z" transform="translate(99.85 33.434)" fill="#bb7658"/>
        <path id="Path_204417" data-name="Path 204417" d="M189.183,245.778c0-.163-.12-16.414-.758-23.573a53.334,53.334,0,0,1,.3-9.371c.434-4.886.885-9.939-.3-15.536a34.285,34.285,0,0,1-.453-13.047,44.813,44.813,0,0,0,.437-7.09,30.58,30.58,0,0,0-1.285-7.6c-1.035-3.962-2.321-8.893-2.6-19.67-.451-17.55,0-28.129,0-28.233l1.532.066c0,.1-.448,10.637,0,28.127.272,10.6,1.532,15.437,2.546,19.324a32.135,32.135,0,0,1,1.336,7.946,46.15,46.15,0,0,1-.448,7.316,32.97,32.97,0,0,0,.431,12.545c1.236,5.821.755,11.224.33,15.99a52.241,52.241,0,0,0-.3,9.1c.644,7.222.762,23.534.764,23.7Z" transform="translate(98.427 64.963)" fill="#bb7658"/>
        <path id="Path_204418" data-name="Path 204418" d="M201.218,232.21c-.011-.268-1.144-26.831-2.036-32.178-.609-3.654-.42-9.051-.221-14.763.1-2.97.212-6.041.212-9,0-7.147-.946-19.077-1.781-29.6l-.489-6.246,1.529-.118.489,6.243c.836,10.554,1.786,22.514,1.786,29.723,0,2.982-.109,6.067-.213,9.052-.2,5.631-.382,10.953.2,14.456.905,5.438,2.008,31.267,2.054,32.364Z" transform="translate(105.144 74.922)" fill="#bb7658"/>
        <path id="Path_204419" data-name="Path 204419" d="M223.364,207.459l-3.637-18.635c-.026-.318-1.384-21.959-2.28-28.251s-4.5-24.288-4.538-24.47l1.5-.3c.035.181,3.649,18.212,4.551,24.555s2.223,27.382,2.28,28.273l3.622,18.537Z" transform="translate(113.692 72.517)" fill="#bb7658"/>
        <path id="Path_204420" data-name="Path 204420" d="M218.467,235.184h-1.534V224.276c0-.143-.468-16.345-1.8-22.565-.52-2.427-1.1-5.458-1.706-8.669-.979-5.157-1.991-10.492-2.829-13.562-.818-2.993-1-7.948-1.187-13.194-.137-3.744-.276-7.618-.655-11.013l1.526-.17c.384,3.451.525,7.354.661,11.128.187,5.154.365,10.023,1.134,12.846.854,3.129,1.873,8.492,2.858,13.68.607,3.2,1.181,6.222,1.7,8.633,1.362,6.357,1.816,22.194,1.835,22.864Z" transform="translate(111.473 82.824)" fill="#bb7658"/>
        <path id="Path_204421" data-name="Path 204421" d="M209.517,171.646l-1.531-.086a117.379,117.379,0,0,0,0-13.068c-.193-2.121-.818-5.667-1.479-9.42-.89-5.045-1.9-10.762-2.16-14.688-.242-3.648-.617-12.77-.977-21.592-.324-7.883-.629-15.329-.841-18.98l1.531-.087c.213,3.662.518,11.115.842,19,.362,8.813.735,17.925.976,21.554.256,3.841,1.256,9.517,2.138,14.524.667,3.786,1.3,7.363,1.5,9.546a116.285,116.285,0,0,1,0,13.294" transform="translate(108.149 50.048)" fill="#bb7658"/>
        <path id="Path_204422" data-name="Path 204422" d="M217.455,158.029c-.023-.172-2.28-17.354-2.28-26.053a54.924,54.924,0,0,0-2.157-14.048c-.689-2.786-1.4-5.668-1.925-9.014-.383-2.462-.874-5.9-1.442-9.876-1.43-10-3.385-23.7-5.268-33.157l1.5-.3c1.891,9.5,3.852,23.22,5.283,33.242.566,3.962,1.057,7.4,1.439,9.856.511,3.278,1.216,6.127,1.9,8.882a56.221,56.221,0,0,1,2.2,14.416c0,8.6,2.244,25.68,2.266,25.852Z" transform="translate(109.139 35.019)" fill="#bb7658"/>
        <path id="Path_204423" data-name="Path 204423" d="M100.676,248.16l-14.84-99.238S32.044,149.85.51,177.674l8.348,61.212L45.029,252.8Z" transform="translate(0.272 79.523)" fill="#c39e75"/>
        <path id="Path_204424" data-name="Path 204424" d="M45.3,253.852l.066,0,55.647-4.637a.776.776,0,0,0,.549-.293.785.785,0,0,0,.161-.6l-14.84-99.238a.814.814,0,0,0-.788-.667c-.54.009-54.444,1.253-85.83,28.946a.783.783,0,0,0-.258.693l8.346,61.211a.786.786,0,0,0,.494.626L45.019,253.8a.841.841,0,0,0,.281.051m54.751-6.13-54.636,4.553L9.842,238.594,1.615,178.256C30.69,152.888,79.112,150.237,85.438,150Z" transform="translate(0 79.25)" fill="#8c6239"/>
        <path id="Path_204425" data-name="Path 204425" d="M119.2,1.1l6.957,63.995L70.973,323.853,56.134,227.86Z" transform="translate(29.975 0.585)" fill="#c99e84"/>
        <path id="Path_204426" data-name="Path 204426" d="M71.246,324.906a.783.783,0,0,0,.765-.618L127.2,65.526a.8.8,0,0,0,.012-.249L120.252,1.282a.782.782,0,0,0-.715-.695.8.8,0,0,0-.818.571L55.653,227.923a.766.766,0,0,0-.02.328l14.84,95.992a.783.783,0,0,0,.75.663ZM125.638,65.322,71.369,319.8,57.206,228.179,119.136,5.5Z" transform="translate(29.703 0.313)" fill="#8c6239"/>
        <path id="Path_204427" data-name="Path 204427" d="M94.648,15.008.51,256.611s27.129-26.664,85.327-28.75L148.905,1.1S105.777,3.879,94.648,15.008" transform="translate(0.272 0.585)" fill="#f5d4a2"/>
        <path id="Path_204428" data-name="Path 204428" d="M.784,257.665a.777.777,0,0,0,.548-.225c.27-.264,27.624-26.475,84.807-28.526a.785.785,0,0,0,.726-.572L149.932,1.575a.785.785,0,0,0-.147-.7.817.817,0,0,0-.658-.285c-1.773.112-43.55,2.93-54.76,14.14a.761.761,0,0,0-.175.267L.054,256.6a.782.782,0,0,0,.3.937.772.772,0,0,0,.431.13M85.509,227.37c-47.885,1.859-75,20.552-82.858,26.877L95.589,15.718c9.98-9.729,45.777-12.962,52.536-13.488Z" transform="translate(0 0.313)" fill="#8c6239"/>
        <path id="Path_204429" data-name="Path 204429" d="M94.8,36.868a.779.779,0,0,0,.75-.561l6.366-21.574a.783.783,0,0,0-1.5-.443L94.049,35.863a.783.783,0,0,0,.529.973.741.741,0,0,0,.221.032" transform="translate(50.204 7.331)" fill="#936b59"/>
        <path id="Path_204430" data-name="Path 204430" d="M84.371,95.633a.782.782,0,0,0,.755-.58l16-59.473a.783.783,0,0,0-1.513-.407l-16,59.473a.785.785,0,0,0,.552.96.776.776,0,0,0,.2.026" transform="translate(44.635 18.473)" fill="#936b59"/>
        <path id="Path_204431" data-name="Path 204431" d="M89.586,94.493a.781.781,0,0,0,.769-.641l8-43.823a.783.783,0,1,0-1.54-.282l-8,43.823a.783.783,0,0,0,.629.911.741.741,0,0,0,.141.012" transform="translate(47.42 26.221)" fill="#936b59"/>
        <path id="Path_204432" data-name="Path 204432" d="M79.23,105.533a.782.782,0,0,0,.747-.551l7.883-25.389a.782.782,0,0,0-1.494-.465l-7.883,25.389a.783.783,0,0,0,.515.98.758.758,0,0,0,.232.035" transform="translate(41.89 41.961)" fill="#936b59"/>
        <path id="Path_204433" data-name="Path 204433" d="M84.371,111.9a.783.783,0,0,0,.764-.617l4.522-20.868a.782.782,0,1,0-1.529-.331l-4.522,20.868a.778.778,0,0,0,.765.948" transform="translate(44.635 47.772)" fill="#936b59"/>
        <path id="Path_204434" data-name="Path 204434" d="M66.08,160.249a.782.782,0,0,0,.733-.509l20.172-54.257a.782.782,0,1,0-1.466-.546L65.347,159.193a.782.782,0,0,0,.733,1.055" transform="translate(34.868 55.763)" fill="#936b59"/>
        <path id="Path_204435" data-name="Path 204435" d="M79.23,122.9a.781.781,0,0,0,.735-.514L83.908,111.6a.783.783,0,0,0-1.471-.537L78.5,121.843a.783.783,0,0,0,.735,1.052" transform="translate(41.89 59.031)" fill="#936b59"/>
        <path id="Path_204436" data-name="Path 204436" d="M75.3,143.379a.783.783,0,0,0,.752-.565l6.027-20.776a.782.782,0,1,0-1.5-.436l-6.029,20.776a.785.785,0,0,0,.534.969.763.763,0,0,0,.218.031" transform="translate(39.792 64.633)" fill="#936b59"/>
        <path id="Path_204437" data-name="Path 204437" d="M66.08,176.837a.784.784,0,0,0,.744-.538l4.752-14.458,5.349-21.069a.783.783,0,0,0-1.519-.385L70.075,161.4l-4.738,14.406a.784.784,0,0,0,.5.988.746.746,0,0,0,.244.04" transform="translate(34.868 74.65)" fill="#936b59"/>
        <path id="Path_204438" data-name="Path 204438" d="M63.259,210.761a.783.783,0,0,0,.758-.589l7.343-28.686,4.179-18.63a.783.783,0,0,0-1.528-.342l-4.172,18.607L62.5,209.784a.784.784,0,0,0,.565.953.771.771,0,0,0,.195.025" transform="translate(33.361 86.454)" fill="#936b59"/>
        <path id="Path_204439" data-name="Path 204439" d="M40.386,203.507a.778.778,0,0,0,.457-.149l22.608-16.346a.783.783,0,0,0-.917-1.269L39.927,202.089a.783.783,0,0,0,.459,1.417" transform="translate(21.147 99.106)" fill="#936b59"/>
        <path id="Path_204440" data-name="Path 204440" d="M20.434,212.886a.784.784,0,0,0,.356-.086l22.258-11.373a.782.782,0,0,0-.712-1.393l-22.26,11.373a.782.782,0,0,0,.357,1.479" transform="translate(10.493 106.77)" fill="#936b59"/>
        <path id="Path_204441" data-name="Path 204441" d="M37.945,179.773a.782.782,0,0,0,.3-1.506l-22.955-9.391a.782.782,0,0,0-.592,1.448l22.955,9.391a.777.777,0,0,0,.3.058" transform="translate(7.587 90.146)" fill="#936b59"/>
        <path id="Path_204442" data-name="Path 204442" d="M8.642,188.552l.077,0,14.26-1.391a.783.783,0,0,0,.7-.856.792.792,0,0,0-.854-.7L8.567,186.99a.783.783,0,0,0,.075,1.562" transform="translate(4.197 99.107)" fill="#936b59"/>
        <path id="Path_204443" data-name="Path 204443" d="M55.123,205.365a.782.782,0,0,0,.77-.644l1.97-11.068a.782.782,0,1,0-1.54-.275l-1.971,11.066a.784.784,0,0,0,.634.908.859.859,0,0,0,.138.012" transform="translate(29.016 102.918)" fill="#936b59"/>
        <path id="Path_204444" data-name="Path 204444" d="M53.308,215.7a.783.783,0,0,0,.749-.552l2.783-9.043a.783.783,0,0,0-1.5-.462l-2.783,9.043a.785.785,0,0,0,.518.979.755.755,0,0,0,.23.035" transform="translate(28.048 109.517)" fill="#936b59"/>
        <path id="Path_204445" data-name="Path 204445" d="M49.509,167.215a.8.8,0,0,0,.239-.037.786.786,0,0,0,.506-.986l-5.044-15.65a.782.782,0,1,0-1.49.48l5.042,15.65a.782.782,0,0,0,.746.543" transform="translate(23.326 80.098)" fill="#936b59"/>
        <path id="Path_204446" data-name="Path 204446" d="M51.535,177.706a.782.782,0,0,0,.477-1.4L24.536,155.261a.783.783,0,1,0-.953,1.243l27.475,21.04a.773.773,0,0,0,.476.163" transform="translate(12.43 82.822)" fill="#936b59"/>
        <path id="Path_204447" data-name="Path 204447" d="M40.386,180.66a.78.78,0,0,0,.368-.092l8.782-4.7,7.868-4.666,7.8-2.525a.782.782,0,1,0-.48-1.488l-7.885,2.549a.77.77,0,0,0-.158.072l-7.912,4.7-8.751,4.677a.783.783,0,0,0,.37,1.473" transform="translate(21.147 89.259)" fill="#936b59"/>
        <path id="Path_204448" data-name="Path 204448" d="M65.023,208.395a.748.748,0,0,0,.143-.014l9.386-1.74a.782.782,0,1,0-.285-1.537l-9.273,1.718L50.763,205.25l-8.414-5.3-3.675-9.181V180.482a.783.783,0,0,0-1.566,0v10.436a.787.787,0,0,0,.057.29l3.826,9.557a.782.782,0,0,0,.31.371l8.782,5.535a.794.794,0,0,0,.331.117l14.524,1.6a.832.832,0,0,0,.086,0" transform="translate(19.815 95.958)" fill="#936b59"/>
        <path id="Path_204449" data-name="Path 204449" d="M56.879,203.715c3.31,0,9.02-.288,11.077-2.168a.783.783,0,0,0-1.057-1.157c-1.882,1.723-8.932,1.841-11.936,1.726-.885-1.216-4.284-6.2-4.961-11.849-.549-4.594.178-5.6.311-5.739a.784.784,0,0,0,.387-.166l9.066-7.23,5.166-2.045a.782.782,0,1,0-.575-1.454l-5.275,2.086a.8.8,0,0,0-.2.117l-9,7.178a1.511,1.511,0,0,0-.693.423c-.946.968-1.189,3.264-.741,7.016.828,6.92,5.306,12.671,5.5,12.912a.773.773,0,0,0,.577.3c.285.015,1.166.052,2.358.052m-6.74-19.183h0Zm0,0h0Z" transform="translate(25.754 92.689)" fill="#936b59"/>
        <path id="Path_204450" data-name="Path 204450" d="M49.933,205.879a.782.782,0,0,0,.532-1.356l-4.792-4.455v-8.529l-1.17-7.408,6.914-7.8,6.728-3.82a.782.782,0,1,0-.773-1.359l-6.84,3.883a.747.747,0,0,0-.2.161l-7.247,8.175a.783.783,0,0,0-.187.641l1.218,7.652-.011,8.747a.784.784,0,0,0,.25.574l5.044,4.686a.773.773,0,0,0,.532.21" transform="translate(22.903 91.336)" fill="#936b59"/>
        <path id="Path_204451" data-name="Path 204451" d="M35.717,213.242a.794.794,0,0,0,.221-.032.782.782,0,0,0,.529-.971l-3.455-11.744-.683-9.569,1.347-9.1,5.716-7.059,8.615-6.374,8.655-4.114,12.2-2.531a.783.783,0,1,0-.319-1.534l-12.287,2.551a.694.694,0,0,0-.178.06l-8.87,4.232-8.824,6.509a.761.761,0,0,0-.143.138l-5.912,7.3a.774.774,0,0,0-.167.377l-1.391,9.39a.791.791,0,0,0-.006.17l.7,9.739a.721.721,0,0,0,.029.164l3.479,11.826a.779.779,0,0,0,.75.563" transform="translate(16.425 85.546)" fill="#936b59"/>
        <path id="Path_204452" data-name="Path 204452" d="M62,206.289c1.193,0,2-.011,2.125-.012l12.318-2.39a.784.784,0,0,0-.3-1.539l-12.178,2.378c-3.421.037-13.136-.02-15.38-.836a27.034,27.034,0,0,1-6.119-3.764.782.782,0,1,0-.991,1.21,28.085,28.085,0,0,0,6.576,4.024c2.264.824,10.114.93,13.949.93" transform="translate(21.995 106.769)" fill="#936b59"/>
        <path id="Path_204453" data-name="Path 204453" d="M12.725,196.2a.8.8,0,0,0,.158-.017.782.782,0,0,0,.609-.923A22.976,22.976,0,0,1,14.5,183.872c2.137-5.585,11.39-11.086,11.483-11.141a.782.782,0,1,0-.793-1.348c-.4.235-9.821,5.832-12.151,11.931a24.112,24.112,0,0,0-1.08,12.261.783.783,0,0,0,.765.626" transform="translate(6.2 91.458)" fill="#936b59"/>
        <path id="Path_204454" data-name="Path 204454" d="M35.164,212.017a.782.782,0,0,0,.293-1.508l-3.921-1.586c-.664-.454-5.812-3.959-9.552-6.073-3.048-1.723-5.536-8.776-6.237-11.35a.783.783,0,0,0-1.511.413c.11.4,2.743,9.907,6.978,12.3,3.925,2.217,9.451,6.01,9.508,6.048a.775.775,0,0,0,.149.081l4,1.617a.783.783,0,0,0,.293.057" transform="translate(7.587 101.951)" fill="#936b59"/>
        <path id="Path_204455" data-name="Path 204455" d="M29.7,196.183a.783.783,0,0,0,.643-1.227,15.766,15.766,0,0,1-2.675-12.548.783.783,0,1,0-1.5-.446,17.146,17.146,0,0,0,2.89,13.884.782.782,0,0,0,.644.337" transform="translate(13.746 96.866)" fill="#936b59"/>
        <path id="Path_204456" data-name="Path 204456" d="M15.449,207.16a.783.783,0,0,0,.419-1.445c-3.056-1.93-5.868-8.817-5.9-8.885a.783.783,0,1,0-1.451.586c.123.3,3.033,7.426,6.51,9.623a.787.787,0,0,0,.417.121" transform="translate(4.52 104.844)" fill="#936b59"/>
        <path id="Path_204457" data-name="Path 204457" d="M9.247,175.93a.778.778,0,0,0,.561-.238c6.964-7.187,23.156-12.209,23.318-12.26a.782.782,0,1,0-.459-1.5c-.681.209-16.739,5.188-23.982,12.666a.782.782,0,0,0,.561,1.327" transform="translate(4.52 86.454)" fill="#936b59"/>
        <path id="Path_204458" data-name="Path 204458" d="M51.951,213.468c.268,0,.492-.011.675-.028a.783.783,0,0,0,.71-.85.8.8,0,0,0-.85-.709c-1.575.149-6.506-.152-18.1-5.949a.783.783,0,0,0-.7,1.4c10.675,5.335,16.023,6.134,18.265,6.134" transform="translate(17.757 109.921)" fill="#936b59"/>
        <path id="Path_204459" data-name="Path 204459" d="M48.711,217.026a.783.783,0,0,0,.054-1.563c-15.958-1.124-21.594-7.313-21.649-7.375a.783.783,0,1,0-1.174,1.037c.242.273,6.122,6.733,22.714,7.9.018,0,.037,0,.055,0" transform="translate(13.748 110.976)" fill="#936b59"/>
        <path id="Path_204460" data-name="Path 204460" d="M321.515.517,439.32,324.374l-130.812-5.852L228.064,4.609Z" transform="translate(121.784 0.276)" fill="#fad8a5"/>
        <path id="Path_204461" data-name="Path 204461" d="M440.824,325.479,308.23,319.547,227.409,4.162,322.429,0l.163.448ZM309.485,318.05l129.03,5.772L321.3,1.585l-91.88,4.024Z" transform="translate(121.434)" fill="#a67c52"/>
        <path id="Path_204462" data-name="Path 204462" d="M361.258,247.621c-.015-.089-1.522-8.968-2.329-13.013-.56-2.807-6.49-11.891-10.342-17.311l-.092-.152-8.676-16.678-6.981-14.194-7.428-11.845-.009-.385c0-.127-.38-12.83-4.465-21.365a21.571,21.571,0,0,0-5.421-7.174,2.208,2.208,0,0,0-2.433-.245,2.671,2.671,0,0,0-1.532,2.068l-1.2,9.233.115,20.2-.051.2c-.041.167-4.254,16.989-6.418,28.459-2.091,11.089,7.8,36.632,7.9,36.888L309,243.738c-.42-1.08-10.288-26.564-8.035-38.5,2.054-10.885,5.926-26.509,6.409-28.452l-.1-20.117,1.219-9.34a6.324,6.324,0,0,1,3.588-4.831,5.14,5.14,0,0,1,5.6.557,24.087,24.087,0,0,1,6.064,8.012c3.975,8.3,4.627,19.808,4.719,22.108l7.107,11.347L342.6,198.8l8.621,16.572c1.23,1.736,9.888,14.054,10.727,18.261.815,4.087,2.327,13,2.342,13.094Z" transform="translate(160.536 75.786)" fill="#d7b080"/>
        <path id="Path_204463" data-name="Path 204463" d="M377.852,260.37l-2.135-9.626-3.648-23.732-15-19.506c-.072-.16-7.365-16-12.244-21.27-3.171-3.424-3.048-6.049-2.928-8.587a10.3,10.3,0,0,0-1.121-6.075c-.364-.687-.719-1.374-1.075-2.063-2.795-5.4-5.683-10.991-13.6-18.153-2.359-2.132-4.306-3.942-5.983-5.5-4.686-4.36-7.268-6.762-10.882-8.718-2.583-1.4-3.623-5.064-4.628-8.607-1.551-5.466-2.589-7.945-5.4-7.069-1.223.379-3.5,1.085-2.858,9.871a34.607,34.607,0,0,1-.195,7.579c-.319,2.734-.68,5.831-.068,14.354a53.269,53.269,0,0,1-2.028,20.209,45.052,45.052,0,0,0-1.618,7.968l-.074.8c-.732,7.945-.977,10.62.514,24.094a86.481,86.481,0,0,1,.614,13.642,70.046,70.046,0,0,0,.69,12.7,72.09,72.09,0,0,0,7.579,23.2l-2.727,1.776a73.536,73.536,0,0,1-7.908-24.194,72.687,72.687,0,0,1-.712-13.159,83.968,83.968,0,0,0-.6-13.243c-1.525-13.772-1.272-16.527-.518-24.7l.074-.8a47.706,47.706,0,0,1,1.717-8.515,49.952,49.952,0,0,0,1.925-19.164c-.634-8.807-.238-12.2.08-14.927a31.56,31.56,0,0,0,.181-7c-.413-5.686-.1-11.729,5.383-13.429,5.9-1.825,7.576,4.074,8.92,8.817.859,3.023,1.746,6.151,3.384,7.038,3.9,2.111,6.565,4.591,11.4,9.092,1.67,1.554,3.608,3.356,5.955,5.479,8.264,7.469,11.26,13.266,14.159,18.871.353.683.7,1.362,1.063,2.042a12.979,12.979,0,0,1,1.436,7.526c-.109,2.312-.187,3.982,2.232,6.6,4.964,5.361,11.855,20.123,12.632,21.807l15.171,19.673,3.738,24.335,2.117,9.535Z" transform="translate(154.16 63.109)" fill="#d7b080"/>
        <path id="Path_204464" data-name="Path 204464" d="M396.561,277.562a70.181,70.181,0,0,0-2.922-8.066c-1.077-2.324-3.232-12.56-5.94-25.7-.948-4.6-1.767-8.578-2.3-10.893-1.16-5.056-6.335-13.007-11.341-20.7-2.137-3.28-4.344-6.673-6.185-9.762-5.469-9.192-8.38-17.977-11.464-27.276q-.624-1.887-1.273-3.824c-2.671-7.952-8.049-13.738-14.275-20.439-2.12-2.281-4.312-4.642-6.539-7.231a62.184,62.184,0,0,1-9.933-16.016,60.361,60.361,0,0,0-5.15-9.451c-5.18-7.463-10.715-12.688-16.575-18.221l-1.545-1.459a41.194,41.194,0,0,1-5.162-6.081c-2.494-3.424-2.988-3.7-4.814-2.688-3.338,1.847-4.722,21.591-2.944,31.8.787,4.528-.617,12.123-2.56,22.634a352.826,352.826,0,0,0-5.828,42.143c-2.123,31.54,16.28,85.25,16.466,85.788l-2.925,1.336c-.767-2.223-18.776-54.786-16.612-86.93a355.46,355.46,0,0,1,5.874-42.508c1.813-9.807,3.246-17.555,2.549-21.559-1.335-7.67-1.767-31.743,4.774-35.361,4.4-2.433,6.34.233,8.589,3.323a38.983,38.983,0,0,0,4.857,5.733l1.54,1.456c5.958,5.627,11.586,10.939,16.917,18.621a62.063,62.063,0,0,1,5.369,9.828,59.919,59.919,0,0,0,9.554,15.427c2.2,2.557,4.37,4.9,6.473,7.159,6.429,6.917,11.98,12.89,14.832,21.381q.653,1.944,1.276,3.833c3.168,9.557,5.9,17.81,11.227,26.754,1.813,3.048,4.007,6.418,6.128,9.678,5.131,7.882,10.437,16.03,11.7,21.553.537,2.345,1.359,6.335,2.312,10.954,1.988,9.655,4.712,22.879,5.743,25.105a71.376,71.376,0,0,1,3.063,8.446Z" transform="translate(147.682 46.006)" fill="#d7b080"/>
        <path id="Path_204465" data-name="Path 204465" d="M265.155,208.841c-.018-.673-1.666-67.727,1.21-94.928,2.74-25.908,3.06-42.455,3.2-49.52l.021-1.065c.017-.873.028-1.721.038-2.546.064-5.324.117-9.529,1.994-12.674a8.771,8.771,0,0,1,6.915-4.436c5.533-.522,12.628,3.729,16.13,9.675,2.233,3.792,4.995,6.323,7.918,9a48.7,48.7,0,0,1,8.026,8.751c4.536,6.681,5.892,9.669,9.515,17.656l1.72,3.783c1.638,3.583,3.237,8.053,4.932,12.784,3.445,9.635,7.352,20.555,12.435,25.937,5.467,5.791,17.161,16.122,24.143,22.3,3.267,2.887,4.855,4.294,5.231,4.7l-2.375,2.255c-.31-.333-2.51-2.276-5.056-4.527-7.016-6.2-18.761-16.581-24.308-22.453-5.449-5.772-9.456-16.966-12.987-26.842-1.674-4.677-3.254-9.1-4.846-12.576l-1.723-3.789c-3.557-7.839-4.889-10.773-9.3-17.271a46.665,46.665,0,0,0-7.641-8.308c-2.931-2.686-5.963-5.464-8.389-9.583-2.984-5.065-9.074-8.848-13.539-8.419a5.2,5.2,0,0,0-4.214,2.683c-1.4,2.342-1.448,6.349-1.5,10.991-.011.833-.02,1.69-.038,2.572l-.021,1.06c-.137,7.105-.46,23.746-3.214,49.787-2.855,27-1.212,93.854-1.195,94.526Z" transform="translate(141.33 23.297)" fill="#d7b080"/>
        <path id="Path_204466" data-name="Path 204466" d="M256.308,141.744l-3.008-.253c2.1-9.936,7.234-37.017,5.7-42.926-2.086-8.043-.451-30.289.583-38.212,2.2-16.889,4.6-28.044,7.325-34.1.612-1.359,1.141-2.625,1.6-3.786a8.985,8.985,0,0,1,5.479-5.182,7.01,7.01,0,0,1,6.828,1.161l10.594,9.116c.5.494,10.473,10.629,15.275,20.994a82.5,82.5,0,0,1,4.107,12.177c1.979,7.047,3.85,13.7,7.845,15.521,4.841,2.2,7.257,6.8,9.818,11.671a56.3,56.3,0,0,0,5.056,8.369c5.667,7.369,22.263,22.749,22.432,22.9l-2.243,2.388c-.689-.637-16.921-15.68-22.717-23.218a58.235,58.235,0,0,1-5.294-8.739c-2.453-4.665-4.571-8.695-8.616-10.537-5.076-2.312-7.105-9.531-9.253-17.175a80.562,80.562,0,0,0-3.958-11.773c-4.61-9.953-14.6-20.1-14.7-20.2l-10.52-9.047a4.1,4.1,0,0,0-4.051-.689,5.235,5.235,0,0,0-3.237,3.06c-.511,1.29-1.071,2.614-1.664,3.935-2.549,5.668-4.923,16.825-7.053,33.157-1.166,8.937-2.453,30.126-.649,37.08,2.019,7.783-5.364,42.821-5.68,44.309" transform="translate(135.259 9.013)" fill="#d7b080"/>
        <path id="Path_204467" data-name="Path 204467" d="M244.644,92.1l-2.83-.831,5.788-14.2.4-18.362,5.041-22.947,9.9-29.311.592-4.533h3.051L265.9,6.927l-9.92,29.38-4.9,22.373-.411,18.649Z" transform="translate(129.126 1.025)" fill="#d7b080"/>
        <path id="Path_204468" data-name="Path 204468" d="M239.363,51.15h-3.053l1.232-9.213,7.984-24.243,8.132-15.769,2.7,1.12L248.289,18.69l-7.783,23.7Z" transform="translate(126.187 1.028)" fill="#d7b080"/>
        <path id="Path_204469" data-name="Path 204469" d="M301.056,28.257l-7.986-8.564-8.55-11.5L275.86,4.205l1.572-2.833,9.255,4.26,8.848,11.911L303.429,26Z" transform="translate(147.306 0.733)" fill="#d7b080"/>
        <path id="Path_204470" data-name="Path 204470" d="M313.075,226.994l-1.009-7.036L310.8,209.951,314.55,181.2a3.688,3.688,0,0,1,1.436-3.462,3.332,3.332,0,0,1,3.883-.38l3.844,2.5,7.279,8.69,3.307,14.169c5.578,9.765,6.041,11.546,6.027,12.191a71.846,71.846,0,0,0,4.056,8.584l-2.761,1.71c-3.912-7.392-4.366-9.213-4.38-9.862-.31-1.129-3.137-6.423-5.759-11.006l-.141-.36-3.209-13.741-6.756-8.067-3.384-2.14a.22.22,0,0,0-.293.028.241.241,0,0,0-.1.287l.081.285-3.8,29.123,1.24,9.4,1.006,7.02Z" transform="translate(165.963 94.463)" fill="#d7b080"/>
        <path id="Path_204471" data-name="Path 204471" d="M284.019,220.16l126.217,2.083,1.118-8.567-130.812-5.854s-1.046,10.623,3.478,12.338" transform="translate(149.75 110.975)" fill="#bca377"/>
        <path id="Path_204472" data-name="Path 204472" d="M411.166,223.307l-.773-.012L284.05,221.21l-.114-.043C279,219.3,280,208.584,280.045,208.13l.083-.833,132.354,5.921Zm-126.632-3.636,125.31,2.068.92-7.046-129.251-5.783c-.181,3.206.084,9.5,3.02,10.761" transform="translate(149.481 110.694)" fill="#8c6239"/>
        <path id="Path_204473" data-name="Path 204473" d="M287.089,219.355l.354-10.509,3.076-.3-.354,10.509Z" transform="translate(153.302 111.361)" fill="#d7b080"/>
        <path id="Path_204474" data-name="Path 204474" d="M295.694,219.559l-.379-10.686,3.077-.509.379,10.687Z" transform="translate(157.695 111.264)" fill="#d7b080"/>
        <path id="Path_204475" data-name="Path 204475" d="M305.528,219.615,306.3,209.4l3.069-.17-.767,10.213Z" transform="translate(163.149 111.727)" fill="#d7b080"/>
        <path id="Path_204476" data-name="Path 204476" d="M314.8,219.921h-3.053l1.336-10.23h3.051Z" transform="translate(166.467 111.972)" fill="#d7b080"/>
        <path id="Path_204477" data-name="Path 204477" d="M330.011,219.6l.654-8.942,3.071-.178-.653,8.943Z" transform="translate(176.222 112.392)" fill="#d7b080"/>
        <path id="Path_204478" data-name="Path 204478" d="M342.383,220.168h-3.053l1.258-9.632h3.051Z" transform="translate(181.199 112.424)" fill="#d7b080"/>
        <path id="Path_204479" data-name="Path 204479" d="M356.962,219.95H353.91L355,211.636h3.051Z" transform="translate(188.984 113.011)" fill="#d7b080"/>
        <path id="Path_204480" data-name="Path 204480" d="M348.684,219.718l-3.02-.2,1.543-7.949,3.019.2Z" transform="translate(184.581 112.976)" fill="#d7b080"/>
        <path id="Path_204481" data-name="Path 204481" d="M411.166,223.307l-.773-.012L284.05,221.21l-.114-.043C279,219.3,280,208.584,280.045,208.13l.083-.833,132.354,5.921Zm-126.632-3.636,125.31,2.068.92-7.046-129.251-5.783c-.181,3.206.084,9.5,3.02,10.761" transform="translate(149.481 110.694)" fill="#8c6239"/>
      </g>
    </g>
    <path id="Path_204482" data-name="Path 204482" d="M0,0V75" transform="translate(265.5 4010.5)" fill="none" stroke="#a83b24" stroke-width="3"/>
    <path id="Path_204484" data-name="Path 204484" d="M0,0V61" transform="translate(466.5 4054.5)" fill="none" stroke="#a83b24" stroke-width="3"/>
    <path id="Path_204489" data-name="Path 204489" d="M0,0H87" transform="translate(465.5 4115.5)" fill="none" stroke="#a83b24" stroke-width="3"/>
    <path id="Path_204492" data-name="Path 204492" d="M0,0H87" transform="translate(612 4115.5)" fill="none" stroke="#a83b24" stroke-width="3"/>
    <path id="Path_204494" data-name="Path 204494" d="M0,0V61" transform="translate(699 4054.5)" fill="none" stroke="#a83b24" stroke-width="3"/>
  </g>
</svg>
