<svg xmlns="http://www.w3.org/2000/svg" width="154.438" height="110.906" viewBox="0 0 154.438 110.906">
  <g id="Group_150351" data-name="Group 150351" transform="translate(-1488.861 -1745.509)">
    <g id="Ellipse_4076" data-name="Ellipse 4076" transform="translate(1488.861 1745.509)" fill="#465f23" stroke="#707070" stroke-width="1">
      <circle cx="49" cy="49" r="49" stroke="none"/>
      <circle cx="49" cy="49" r="48.5" fill="none"/>
    </g>
    <g id="Group_149576" data-name="Group 149576" transform="translate(1488.861 1753.47)">
      <path id="Path_119908" data-name="Path 119908" d="M217.39,181.183c-.753.959-1.535,1.842-2.952,1.612a2.508,2.508,0,0,1-2.174-2.642c-.035-2.061-.095-4.127.019-6.182.069-1.247-.382-1.466-1.519-1.464q-24.436.051-48.872.023H108.644a46.137,46.137,0,0,1-44.56-35.881c-5-22.951,6.895-45.208,28.686-53.7,25.848-10.069,55.442,5.653,61.578,32.7a49.584,49.584,0,0,1,1.227,11.207c-.023,6.134.032,12.268-.037,18.4-.014,1.254.309,1.57,1.563,1.567q25.417-.066,50.833-.029c5.483,0,7.465,1.327,9.457,6.328Z" transform="translate(-62.952 -79.886)" fill="#403f44"/>
      <path id="Path_119909" data-name="Path 119909" d="M134.791,174.952H116.083a39.176,39.176,0,0,1-25.377-9.225,39.921,39.921,0,0,1-14.756-26.3,41.2,41.2,0,0,1,81.26-13.483,34.951,34.951,0,0,1,.725,6.879q-.015,20.291.033,40.581c0,1.273-.364,1.587-1.6,1.577C149.174,174.923,141.983,174.952,134.791,174.952Z" transform="translate(-70.478 -87.49)" fill="#b47c4b"/>
      <path id="Path_119910" data-name="Path 119910" d="M320.168,258.534q12.819,0,25.638,0c2.579,0,3.461.873,3.466,3.421.007,3.519-.056,7.039.033,10.555.031,1.232-.382,1.627-1.523,1.452a3.377,3.377,0,0,0-.452,0c-.954-.015-2.077.279-2.819-.126-.9-.489-.234-1.731-.39-2.631a2.736,2.736,0,0,0-2.7-2.36,2.633,2.633,0,0,0-2.43,2.595c-.16,2.523-.16,2.523-2.7,2.523a7.018,7.018,0,0,0-1.055.008c-1.141.175-1.572-.294-1.4-1.416a4.534,4.534,0,0,0,0-1.054,2.687,2.687,0,0,0-2.719-2.658,2.648,2.648,0,0,0-2.42,2.757c-.1,2.363-.1,2.363-2.417,2.363h-.6c-2.046,0-2.056,0-2.125-2.037a2.853,2.853,0,0,0-1.6-2.838,2.427,2.427,0,0,0-2.676.392,2.83,2.83,0,0,0-.87,2.749c.146,1.35-.283,1.994-1.71,1.738a3.446,3.446,0,0,0-.6,0c-2.688,0-2.688,0-2.932-2.617a2.581,2.581,0,0,0-2.365-2.5,2.63,2.63,0,0,0-2.678,2.167c-.043.2-.056.4-.092.594-.139.762.376,2.052-.333,2.206a18.365,18.365,0,0,1-4.491.056c-.357-.013-.314-.454-.322-.746-.012-.452,0-.9-.009-1.357-.044-1.747-1.095-2.945-2.559-2.924s-2.52,1.2-2.586,2.947a9.853,9.853,0,0,0,0,1.206c.06.7-.194,1.053-.93.967a1,1,0,0,0-.151,0c-4.065.185-4.065.185-4.065-3.867,0-3.418.044-6.837-.026-10.254-.022-1.088.338-1.331,1.367-1.327C302.673,258.55,311.421,258.534,320.168,258.534Z" transform="translate(-199.971 -186.482)" fill="#ffd400"/>
      <path id="Path_119911" data-name="Path 119911" d="M154.926,187.411a15.424,15.424,0,0,1-.135-30.848,15.425,15.425,0,1,1,.135,30.848Z" transform="translate(-108.602 -125.643)" fill="#403f44"/>
      <path id="Path_119912" data-name="Path 119912" d="M88.3,140.514a36.244,36.244,0,0,1,35.757-35.188,2.594,2.594,0,0,1,2.787,3.233,2.429,2.429,0,0,1-2.431,1.88,31.967,31.967,0,0,0-12.967,2.924c-10.43,5.161-16.454,13.458-17.777,25.077q-.153,1.343-.225,2.7c-.094,1.819-1.035,2.809-2.665,2.761-1.5-.043-2.427-1.1-2.478-2.822C88.289,140.825,88.3,140.574,88.3,140.514Z" transform="translate(-78.074 -95.067)" fill="#403f44"/>
      <path id="Path_119913" data-name="Path 119913" d="M90.944,212.748a2.691,2.691,0,0,1-2.627-2.569,2.654,2.654,0,0,1,2.629-2.549,2.429,2.429,0,0,1,2.477,2.464A2.515,2.515,0,0,1,90.944,212.748Z" transform="translate(-78.089 -156.118)" fill="#413f44"/>
      <path id="Path_119914" data-name="Path 119914" d="M152.373,179.591a10.085,10.085,0,0,1,10.216-10.226,10.273,10.273,0,1,1-10.216,10.226Z" transform="translate(-116.314 -133.283)" fill="#e1c1a3"/>
    </g>
  </g>
</svg>
