<svg xmlns="http://www.w3.org/2000/svg" width="75.409" height="75.402" viewBox="0 0 75.409 75.402">
  <g id="Group_150354" data-name="Group 150354" transform="translate(-527.811 -155.744)">
    <path id="Path_204386" data-name="Path 204386" d="M602.293,217.479q-4.877-4.846-9.728-9.718c-.727-.728-.741-.754-.187-1.61a15.664,15.664,0,0,0-6.018-22.265,1.466,1.466,0,0,1-.892-1.495c.032-3.063,0-6.128.023-9.191a3.341,3.341,0,0,0-1.018-2.508q-7.041-7.05-14.09-14.092a2.817,2.817,0,0,0-2.109-.855q-16.325.017-32.65.009a7.629,7.629,0,0,0-1.751.154,8.045,8.045,0,0,0-6.062,7.5q.023,30.074.007,60.148a6.855,6.855,0,0,0,1.133,3.891,7.515,7.515,0,0,0,6,3.7h43.256a16.865,16.865,0,0,0,1.787-.312,8.307,8.307,0,0,0,5.465-7.643q.026-5.07-.009-10.14a1.276,1.276,0,0,1,.863-1.421,5.158,5.158,0,0,0,1.462-.837c.508-.418.824-.268,1.232.149,1.661,1.7,3.351,3.368,5.032,5.047,1.733,1.731,3.494,3.435,5.186,5.2,1.1,1.151,3.715,1.01,3.993-1.082v-1.03A2.705,2.705,0,0,0,602.293,217.479Zm-31.736-53.894,6.943,6.95c-2.132,0-4.309,0-6.486,0-.251,0-.468.037-.465-.354C570.565,167.964,570.557,165.746,570.557,163.585Zm10.284,59.631a3.641,3.641,0,0,1-3.485,3.512c-.22.011-.441,0-.662,0H536.464c-2.709,0-4.16-1.458-4.16-4.18q0-14.525,0-29.049,0-14.6,0-29.2a3.713,3.713,0,0,1,4.047-4.071q14.526,0,29.052-.015c.6,0,.763.127.758.747-.033,3.824-.018,7.648-.016,11.473a2.25,2.25,0,0,0,2.485,2.506c3.849,0,7.7.011,11.547-.011.516,0,.709.073.7.658-.043,2.083-.031,4.167-.006,6.251.006.466-.109.541-.57.507a15.44,15.44,0,0,0-5.167,30.305,14.8,14.8,0,0,0,5.238.488c.392-.035.5.043.495.437C580.849,216.793,580.883,220.005,580.841,223.216Zm-1.634-14.432a11.033,11.033,0,1,1,10.976-11.062A11.023,11.023,0,0,1,579.207,208.784Z" fill="#d3fa9c"/>
    <path id="Path_204387" data-name="Path 204387" d="M575.694,280.268h12.13q6.175,0,12.351,0a2.211,2.211,0,1,0-.04-4.41q-12.241-.007-24.481,0a2.254,2.254,0,0,0-2.543,2.225C573.123,279.41,574.133,280.268,575.694,280.268Z" transform="translate(-36.392 -96.493)" fill="#d3fa9c"/>
    <path id="Path_204388" data-name="Path 204388" d="M575.611,325.161q4.631,0,9.262,0,4.668,0,9.335,0a2.218,2.218,0,1,0-.021-4.411q-9.3,0-18.6,0a2.222,2.222,0,1,0,.021,4.412Z" transform="translate(-36.393 -132.56)" fill="#d3fa9c"/>
    <path id="Path_204389" data-name="Path 204389" d="M594.372,365.638q-9.482-.013-18.964-.007a2.3,2.3,0,0,0-1.314.388,2.2,2.2,0,0,0,1.265,4.023c3.161.012,6.321,0,9.482,0s6.321.006,9.482,0a2.206,2.206,0,1,0,.049-4.407Z" transform="translate(-36.397 -168.618)" fill="#d3fa9c"/>
    <path id="Path_204390" data-name="Path 204390" d="M594.182,410.535q-9.3,0-18.6,0a2.222,2.222,0,1,0,.03,4.412q4.631,0,9.262,0,4.667,0,9.335,0a2.218,2.218,0,1,0-.03-4.411Z" transform="translate(-36.393 -204.691)" fill="#d3fa9c"/>
  </g>
</svg>
