<svg xmlns="http://www.w3.org/2000/svg" width="55.028" height="48.931" viewBox="0 0 55.028 48.931">
  <g id="Group_150251" data-name="Group 150251" transform="translate(503.137 -372.575)">
    <path id="Path_120994" data-name="Path 120994" d="M-448.717,414.587c-.4-.735-.831-1.457-1.25-2.183l-21.483-37.216a5.331,5.331,0,0,0-1.312-1.61,4.617,4.617,0,0,0-6.968,1.507q-9.833,17.022-19.647,34.055a46.411,46.411,0,0,0-3.76,6.924v1.612c.026.023.067.041.075.069a4.628,4.628,0,0,0,4.849,3.759q22.591,0,45.183,0a5.59,5.59,0,0,0,1.331-.132A4.6,4.6,0,0,0-448.717,414.587Zm-1.144,3.112a2.966,2.966,0,0,1-3.041,2.14q-11.363,0-22.726,0t-22.726,0a2.951,2.951,0,0,1-3.132-2.616,3.168,3.168,0,0,1,.542-2.132q3.257-5.627,6.507-11.259,8.055-13.949,16.11-27.9a2.984,2.984,0,0,1,3.609-1.56,3.229,3.229,0,0,1,1.838,1.622q4.684,8.135,9.385,16.261,6.539,11.327,13.082,22.651A3.426,3.426,0,0,1-449.861,417.7Z" transform="translate(0 0)" fill="#a83b24"/>
    <path id="Path_120995" data-name="Path 120995" d="M-444.46,453.739a1.369,1.369,0,0,0-.683-.09h-12.728l19.1-33.086c.351.6.631,1.118.95,1.611a.763.763,0,0,0,1.072.287.789.789,0,0,0,.327-1.1c-.526-.952-1.062-1.9-1.632-2.826a.8.8,0,0,0-1.442.009c-.08.118-.148.244-.22.367l-16.874,29.227q-1.658,2.872-3.312,5.746c-.322.561-.243,1.053.2,1.3a1.42,1.42,0,0,0,.734.1q6.929,0,13.859,0a3.276,3.276,0,0,0,.428-.019.729.729,0,0,0,.676-.654A.78.78,0,0,0-444.46,453.739Z" transform="translate(-36.859 -38.974)" fill="#a83b24"/>
    <path id="Path_120996" data-name="Path 120996" d="M-291.494,460.328c-.361-.625-.782-.8-1.254-.527-.456.262-.513.73-.165,1.344.035.062.07.124.105.186q7.913,13.711,15.824,27.424c.085.147.229.274.2.513h-12.556a3.755,3.755,0,0,0-.483.009.839.839,0,0,0-.755.834.8.8,0,0,0,.783.792c.106.01.215.006.322.006q6.956,0,13.912,0c1.071,0,1.389-.551.855-1.478Q-283.1,474.878-291.494,460.328Z" transform="translate(-179.838 -74.592)" fill="#a83b24"/>
    <path id="Path_120997" data-name="Path 120997" d="M-333.029,497.92a1.621,1.621,0,0,0-1.77,1.809c.052,1.413.142,2.824.216,4.236q.27,5.2.543,10.4a1.615,1.615,0,0,0,1.531,1.515c.7.026,1.4.027,2.094,0a1.617,1.617,0,0,0,1.52-1.469c.054-.7.077-1.394.114-2.091.128-2.359.26-4.718.382-7.077.1-1.877.2-3.754.264-5.632a1.587,1.587,0,0,0-1.618-1.689c-.555-.016-1.11,0-1.665,0v0C-331.954,497.919-332.492,497.914-333.029,497.92Zm2.69,1.615c.567-.077.609.17.581.655-.194,3.268-.354,6.539-.527,9.808-.07,1.322-.149,2.644-.208,3.967-.01.227-.064.318-.3.31-.447-.016-.9-.016-1.342,0-.243.009-.29-.089-.3-.312q-.207-4.316-.435-8.631c-.091-1.733-.184-3.466-.3-5.2-.029-.428,0-.674.531-.6a8.691,8.691,0,0,0,1.18.01A8.443,8.443,0,0,0-330.339,499.535Z" transform="translate(-144.159 -107.34)" fill="#a83b24"/>
    <path id="Path_120998" data-name="Path 120998" d="M-331.821,635.767a3.444,3.444,0,0,0-3.548,3.323,3.423,3.423,0,0,0,3.334,3.476,3.423,3.423,0,0,0,3.494-3.316A3.451,3.451,0,0,0-331.821,635.767Zm-.122,5.157a1.717,1.717,0,0,1-1.757-1.753,1.74,1.74,0,0,1,1.759-1.765,1.738,1.738,0,0,1,1.731,1.741A1.719,1.719,0,0,1-331.943,640.925Z" transform="translate(-143.671 -225.39)" fill="#a83b24"/>
  </g>
</svg>
