<svg xmlns="http://www.w3.org/2000/svg" width="48.932" height="48.928" viewBox="0 0 48.932 48.928">
  <g id="Group_150276" data-name="Group 150276" transform="translate(1363.78 -790.574)">
    <path id="Path_121021" data-name="Path 121021" d="M-1316.769,812.535a.485.485,0,0,1-.452-.5c-.041-.554-.091-1.107-.171-1.659a21.865,21.865,0,0,0-8.085-14.253,20.513,20.513,0,0,0-5.859-3.344,1.071,1.071,0,0,1-.686-.66,2.322,2.322,0,0,0-1.841-1.543h-10.893a2.665,2.665,0,0,0-1.761,1.7.7.7,0,0,1-.512.53,21.618,21.618,0,0,0-8.588,5.818,21.631,21.631,0,0,0-5.644,13.461c-.027.426-.176.507-.531.565a2.36,2.36,0,0,0-1.956,2.058,20.633,20.633,0,0,0,0,2.291,1.812,1.812,0,0,0,.215.723,2.58,2.58,0,0,0,2.541,1.423q21.682-.009,43.365,0c.127,0,.255.005.382,0a2.468,2.468,0,0,0,2.117-1.327c.1-.186.187-.379.28-.569v-2.771A2.324,2.324,0,0,0-1316.769,812.535Zm-42.823-.567a19.609,19.609,0,0,1,2.771-8.946,20.111,20.111,0,0,1,9.949-8.517,1.107,1.107,0,0,1,.208-.037v.637q0,6.592,0,13.184c0,.695.328,1.065.895,1.024a.725.725,0,0,0,.722-.637,3.438,3.438,0,0,0,.039-.618q0-7.284,0-14.569c0-1.059.227-1.285,1.283-1.285,1,0,2.007.025,3.009-.012.447-.016.577.08.575.556-.02,5.653-.013,11.305-.012,16.958a2.137,2.137,0,0,0,.065.661.754.754,0,0,0,.771.581.753.753,0,0,0,.778-.572,2.086,2.086,0,0,0,.069-.66q0-8.5-.01-17.006c0-.417.092-.532.515-.518,1.05.035,2.1.011,3.152.012.929,0,1.2.261,1.2,1.18q0,7.309,0,14.617a4.689,4.689,0,0,0,.023.571.769.769,0,0,0,.776.746.809.809,0,0,0,.846-.734,3.408,3.408,0,0,0,.012-.477q0-6.544,0-13.089v-.585a19.632,19.632,0,0,1,5.325,3.035,20.173,20.173,0,0,1,6.47,9.016,21.179,21.179,0,0,1,1.184,5.852c.011.163-.022.238-.195.228-.127-.007-.255,0-.382,0h-39.5C-1359.645,812.564-1359.628,812.565-1359.592,811.968Zm43.111,4.519c-.02.667-.3.949-.962.968-.143,0-.286,0-.43,0h-42.883c-.159,0-.319,0-.478,0a.808.808,0,0,1-.9-.834,12.143,12.143,0,0,1,0-1.527c.038-.615.35-.846,1.074-.846h43.361c.992,0,1.216.229,1.217,1.239C-1316.479,815.819-1316.47,816.153-1316.48,816.487Z" fill="#a83b24"/>
    <path id="Path_121022" data-name="Path 121022" d="M-1315.949,1049.059c-.652.021-1.309-.036-1.958.017a1.1,1.1,0,0,1-1.334-.814,3.939,3.939,0,0,0-3.991-2.454q-15.741,0-31.482,0a11.776,11.776,0,0,0-1.38.07,4.021,4.021,0,0,0-3.491,3.645c-.02.31-.12.4-.427.391-.891-.021-1.783-.009-2.675-.007-.727,0-1.011.281-1.012,1q0,3.034,0,6.067c0,.825.274,1.1,1.119,1.1.94.005,1.879.014,2.818-.006a.471.471,0,0,1,.522.354,5.644,5.644,0,0,0,5.552,3.711c1.5,0,2.994.013,4.49,0a10.5,10.5,0,0,0,8.949-4.674c.809-1.15,1.209-1.15,2.016,0a10.5,10.5,0,0,0,8.948,4.676c1.592.016,3.185.005,4.777,0a5.712,5.712,0,0,0,5.515-4.517c.062-.308.193-.37.475-.364.875.016,1.752-.012,2.627.013a1.113,1.113,0,0,0,1.11-.577v-7.071A1.2,1.2,0,0,0-1315.949,1049.059Zm-46.134,2.816c.019-.264.077-.354.349-.345.588.02,1.179.029,1.766,0,.356-.019.321.179.33.41.009.255-.012.431-.347.4-.3-.029-.6-.006-.906-.006a6.446,6.446,0,0,0-.716.005C-1361.97,1052.374-1362.111,1052.264-1362.083,1051.875Zm2.373,4.457c-.2.244-.718.072-1.095.072-.408,0-.944.18-1.191-.071s-.067-.784-.071-1.194c-.01-1.136,0-1.136,1.111-1.136h.168c.321.035.837-.171,1.076.075s.06.754.066,1.148C-1359.641,1055.606-1359.52,1056.1-1359.71,1056.332Zm39.2-.059a4.017,4.017,0,0,1-3.07,4.069,4.035,4.035,0,0,1-1.126.155c-1.845-.02-3.692.091-5.536-.069a8.8,8.8,0,0,1-5.667-2.7,13.13,13.13,0,0,1-1.258-1.614,2.409,2.409,0,0,0-4.141,0,10.629,10.629,0,0,1-2.919,2.967,9.311,9.311,0,0,1-5.008,1.428c-1.48.023-2.961.011-4.441,0a4.108,4.108,0,0,1-4.3-4.318q-.005-3.032,0-6.065a2.43,2.43,0,0,1,2.683-2.636q8.023-.006,16.046,0t16.046,0a2.425,2.425,0,0,1,2.635,1.918,2.929,2.929,0,0,1,.055.662Q-1320.5,1053.17-1320.507,1056.274Zm2.088-5.534a16.3,16.3,0,0,0,1.669,0c.332-.018.358.133.345.392-.012.227.037.447-.326.406a8.178,8.178,0,0,0-.906-.007c-.255,0-.51-.014-.763,0-.287.02-.463,0-.452-.383C-1318.843,1050.809-1318.745,1050.724-1318.419,1050.74Zm1.938,4.78c-.246.259-.781.076-1.188.079-1.168.011-1.177,0-1.164-1.185,0-.4-.184-.945.092-1.175.233-.193.754-.04,1.148-.04v-.05c.377.017.865-.1,1.1.09.252.205.073.713.077,1.087C-1316.411,1054.735-1316.24,1055.266-1316.481,1055.52Z" transform="translate(-0.069 -222.64)" fill="#a83b24"/>
    <path id="Path_121023" data-name="Path 121023" d="M-1293.018,1071.363a1.97,1.97,0,0,0-.611-.068q-2.481,0-4.963,0c-1.67,0-3.34.01-5.011,0a2.527,2.527,0,0,0-2.7,2.655c.034.953,0,1.909.008,2.863,0,.665.33,1.064.838,1.047s.8-.41.8-1.043c0-.875,0-1.75,0-2.625,0-.994.212-1.211,1.187-1.211h9.831a2.029,2.029,0,0,0,.612-.065.764.764,0,0,0,.589-.772A.763.763,0,0,0-1293.018,1071.363Z" transform="translate(-50.132 -244.872)" fill="#a83b24"/>
    <path id="Path_121024" data-name="Path 121024" d="M-1182.186,1071.217a5.428,5.428,0,0,0-2.07,0,.706.706,0,0,0-.6.748.761.761,0,0,0,.6.8,4.665,4.665,0,0,0,1.037.066,3.986,3.986,0,0,0,1.037-.073.758.758,0,0,0,.572-.775A.707.707,0,0,0-1182.186,1071.217Z" transform="translate(-156.079 -244.717)" fill="#a83b24"/>
  </g>
</svg>
